<?xml version="1.0" standalone="no"?>
<!DOCTYPE svg PUBLIC "-//W3C//DTD SVG 1.1//EN" "http://www.w3.org/Graphics/SVG/1.1/DTD/svg11.dtd" >
<svg xmlns="http://www.w3.org/2000/svg" xmlns:xlink="http://www.w3.org/1999/xlink" version="1.1">
<metadata>
Created by FontForge 20170731 at Sat Mar 14 14:22:26 2015
 By Aleksey,,,
Copyright (c) 2014 by Eduardo Manso. All rights reserved.
</metadata>
<defs>
<font id="Shentox-Regular7" horiz-adv-x="531" >
  <font-face 
    font-family="Shentox 8"
    font-weight="400"
    font-stretch="normal"
    units-per-em="1000"
    panose-1="0 0 0 0 0 0 0 0 0 0"
    ascent="782"
    descent="-218"
    x-height="507"
    cap-height="697"
    bbox="-231 -251 1440.12 940"
    underline-thickness="133"
    underline-position="-392"
    unicode-range="U+000D-FF19"
  />
<missing-glyph horiz-adv-x="830" 
d="M50 183v331q0 89 49 138t138 49h355q89 0 138 -49t49 -138v-331q0 -89 -49 -138t-138 -49h-355q-89 0 -138 49t-49 138zM591 621h-353q-49 0 -72 -23t-23 -73v-353q0 -50 23 -73t72 -23h353q50 0 73 23t23 73v353q0 50 -23 73t-73 23zM353 492l66 -59l61 63q2 2 7 6.5
t7 7t4 7t2 9.5v26h136v-42q0 -13 -3.5 -24.5t-12 -22.5t-14 -16.5t-19.5 -18t-17 -15.5l-64 -58l90 -80q46 -42 46 -82v-48h-139v22q0 20 -20 38l-77 68l-62 -72q-20 -24 -20 -36v-20h-136v32q0 44 66 107l67 65l-81 73q-46 41 -46 82v48h139v-28q0 -14 20 -32z" />
    <glyph glyph-name="fi" unicode="fi" horiz-adv-x="611" 
d="M353 0l107 507h144l-107 -507h-144zM471 566l28 131h148l-28 -131h-148zM370 379h-123l-120 -569h-144l121 569h-71l26 124h70l13 62q28 132 161 132h137l-26 -124h-100q-25 0 -31 -26l-9 -44h121z" />
    <glyph glyph-name="fl" unicode="fl" horiz-adv-x="612" 
d="M501 697h144l-148 -697h-144zM370 379h-123l-120 -569h-144l121 569h-71l26 124h70l13 62q28 132 161 132h137l-26 -124h-100q-25 0 -31 -26l-9 -44h121z" />
    <glyph glyph-name=".notdef" horiz-adv-x="830" 
d="M50 183v331q0 89 49 138t138 49h355q89 0 138 -49t49 -138v-331q0 -89 -49 -138t-138 -49h-355q-89 0 -138 49t-49 138zM591 621h-353q-49 0 -72 -23t-23 -73v-353q0 -50 23 -73t72 -23h353q50 0 73 23t23 73v353q0 50 -23 73t-73 23zM353 492l66 -59l61 63q2 2 7 6.5
t7 7t4 7t2 9.5v26h136v-42q0 -13 -3.5 -24.5t-12 -22.5t-14 -16.5t-19.5 -18t-17 -15.5l-64 -58l90 -80q46 -42 46 -82v-48h-139v22q0 20 -20 38l-77 68l-62 -72q-20 -24 -20 -36v-20h-136v32q0 44 66 107l67 65l-81 73q-46 41 -46 82v48h139v-28q0 -14 20 -32z" />
    <glyph glyph-name="glyph1" horiz-adv-x="0" 
 />
    <glyph glyph-name="glyph2" horiz-adv-x="333" 
 />
    <glyph glyph-name=".null" horiz-adv-x="500" 
 />
    <glyph glyph-name=".null" horiz-adv-x="500" 
 />
    <glyph glyph-name="nonmarkingreturn" unicode="&#xd;" horiz-adv-x="500" 
 />
    <glyph glyph-name="space" unicode=" " horiz-adv-x="205" 
 />
    <glyph glyph-name="exclam" unicode="!" horiz-adv-x="301" 
d="M11 0l35 165h153l-35 -165h-153zM192 223h-114l24 218l55 256h158l-55 -256z" />
    <glyph glyph-name="quotedbl" unicode="&#x22;" horiz-adv-x="390" 
d="M178 421h-89l21 204l15 72h133l-15 -72zM351 421h-90l22 204l15 72h132l-15 -72z" />
    <glyph glyph-name="numbersign" unicode="#" horiz-adv-x="625" 
d="M73 398v109h102l41 190h120l-41 -190h122l41 190h120l-41 -190h78v-109h-101l-22 -101h82v-109h-105l-40 -188h-119l40 188h-123l-40 -188h-119l40 188h-76v109h99l21 101h-79zM272 398l-22 -101h123l21 101h-122z" />
    <glyph glyph-name="dollar" unicode="$" horiz-adv-x="553" 
d="M163 -4h-6q-82 0 -116.5 41.5t-17.5 120.5l10 48h150l-12 -57q-6 -26 21 -26h126q25 0 31 26l19 91q4 22 -18 29l-176 50q-102 30 -79 146l20 99q13 66 56.5 101.5t110.5 35.5h30l22 106h131l-22 -106h2q79 0 112.5 -41.5t17.5 -120.5l-11 -54h-150l13 63q6 26 -21 26
h-113q-25 0 -31 -25l-15 -73q-3 -13 0 -19t16 -10l170 -48q111 -31 89 -139l-25 -127q-13 -67 -56 -102t-110 -35h-37l-23 -106h-131z" />
    <glyph glyph-name="percent" unicode="%" horiz-adv-x="787" 
d="M441 100l40 186q9 41 36.5 63.5t68.5 22.5h98q49 0 70 -26.5t10 -74.5l-40 -186q-18 -87 -105 -87h-98q-49 0 -70 26t-10 76zM585 268l-37 -167q-3 -14 12 -14h46q12 0 15 14l36 167q3 14 -10 14h-46q-13 0 -16 -14zM68 428l40 186q9 41 36.5 63.5t68.5 22.5h98
q49 0 70 -26.5t10 -74.5l-40 -186q-18 -87 -105 -87h-98q-49 0 -70 26t-10 76zM212 596l-37 -167q-3 -14 12 -14h46q12 0 15 14l36 167q3 14 -10 14h-46q-13 0 -16 -14zM181 -4h-108l575 705h109z" />
    <glyph glyph-name="ampersand" unicode="&#x26;" horiz-adv-x="651" 
d="M605 130l-27 -130h-74q-59 0 -95 40q-48 -44 -123 -44h-124q-84 0 -120 39t-20 113l24 113q7 35 30 60t41.5 34.5t48.5 20.5l15 5l-3 5q-30 45 -17 107l16 81q12 62 55.5 94.5t110.5 32.5h94q84 0 119.5 -39t19.5 -113l-14 -66h-142l15 72q6 26 -20 26h-67q-26 0 -32 -26
l-11 -54q-5 -30 3 -44l131 -196l43 51q14 16 19 43l7 33h141l-11 -52q-7 -34 -24 -55l-105 -125l2 -2q17 -24 33 -24h61zM289 116q28 0 43 18l7 9l-96 145l-31 -12q-22 -8 -27 -31l-22 -103q-6 -26 20 -26h106z" />
    <glyph glyph-name="quotesingle" unicode="'" horiz-adv-x="221" 
d="M182 421h-93l21 204l15 72h137l-15 -72z" />
    <glyph glyph-name="parenleft" unicode="(" horiz-adv-x="306" 
d="M211 -60l-28 -130h-49q-78 0 -111 44.5t-15 127.5l139 651q14 67 56.5 102t109.5 35h72l-28 -130h-31q-25 0 -31 -26l-138 -648q-3 -15 2 -20.5t19 -5.5h33z" />
    <glyph glyph-name="parenright" unicode=")" horiz-adv-x="306" 
d="M110 640l28 130h49q77 0 110 -44.5t15 -127.5l-139 -651q-29 -137 -165 -137h-72l28 130h31q25 0 31 26l138 648q3 15 -2 20.5t-19 5.5h-33z" />
    <glyph glyph-name="asterisk" unicode="*" horiz-adv-x="460" 
d="M320 362v-50h-96v50q0 13 4 53l2 19l-15 -12q-29 -21 -43 -29l-44 -24l-47 84l44 24q20 11 48 22l14 5l-14 6q-33 13 -48 21l-44 25l47 83l44 -24q23 -12 43 -29l15 -12l-2 20q-4 40 -4 53v50h96v-50q0 -13 -4 -53l-2 -21l16 13q20 17 43 29l44 24l47 -83l-44 -25
q-15 -8 -48 -21l-14 -6l14 -5q28 -11 48 -22l44 -24l-47 -84l-44 24q-14 8 -43 29l-16 13l2 -20q4 -40 4 -53z" />
    <glyph glyph-name="plus" unicode="+" horiz-adv-x="491" 
d="M439 293h-129v-128h-111v128h-127v111h127v128h111v-128h129v-111z" />
    <glyph glyph-name="comma" unicode="," horiz-adv-x="259" 
d="M190 165l-11 -51l-155 -229h-90l102 280h154z" />
    <glyph glyph-name="hyphen" unicode="-" horiz-adv-x="364" 
d="M62 347h260l-26 -123h-260z" />
    <glyph glyph-name="period" unicode="." horiz-adv-x="253" 
d="M-12 0l35 165h153l-35 -165h-153z" />
    <glyph glyph-name="slash" unicode="/" horiz-adv-x="447" 
d="M90 -73h-148l435 843h150z" />
    <glyph glyph-name="zero" unicode="0" horiz-adv-x="571" 
d="M45 168l84 396q14 67 57 102t110 35h153q84 0 118.5 -44.5t16.5 -127.5l-84 -396q-14 -67 -56.5 -102t-109.5 -35h-153q-83 0 -118.5 44.5t-17.5 127.5zM215 126h106q25 0 31 26l83 393q6 26 -20 26h-106q-26 0 -32 -26l-83 -393q-6 -26 21 -26z" />
    <glyph glyph-name="one" unicode="1" horiz-adv-x="494" 
d="M421 0h-446l28 132h151l93 433h-153l29 132h303l-120 -565h143z" />
    <glyph glyph-name="two" unicode="2" horiz-adv-x="550" 
d="M236 464h-148l21 100q14 67 56.5 102t109.5 35h139q84 0 119.5 -41.5t18.5 -120.5l-26 -121q-10 -46 -38 -73t-77 -43l-198 -65q-28 -9 -32 -33l-15 -72h310l-28 -132h-463l46 215q10 47 39 78t90 51l186 60q27 8 32 32l23 109q6 26 -21 26h-96q-25 0 -31 -26z" />
    <glyph glyph-name="three" unicode="3" horiz-adv-x="551" 
d="M318 -4h-158q-82 0 -116.5 41.5t-17.5 120.5l10 45h148l-12 -53q-6 -26 21 -26h111q25 0 31 26l26 119q6 26 -21 26h-135l27 125h121q25 0 31 26l22 100q6 26 -21 26h-94q-25 0 -31 -25l-11 -53h-148l14 70q13 66 55.5 101.5t107.5 35.5h141q84 0 119 -41.5t18 -120.5
l-16 -77q-16 -79 -86 -100q73 -26 53 -121l-23 -108q-14 -67 -56.5 -102t-109.5 -35z" />
    <glyph glyph-name="four" unicode="4" horiz-adv-x="570" 
d="M507 149h-71l-31 -149h-152l31 149h-298l27 126l402 422h138l-91 -422h72zM311 275l42 199l-189 -199h147z" />
    <glyph glyph-name="five" unicode="5" horiz-adv-x="537" 
d="M315 -4h-156q-82 0 -116.5 41.5t-17.5 120.5l9 41h148l-11 -51q-6 -26 21 -26h109q25 0 31 26l29 134q6 26 -21 26h-260l83 389h410l-28 -132h-262l-28 -130h118q84 0 119.5 -41.5t18.5 -120.5l-30 -140q-29 -137 -166 -137z" />
    <glyph glyph-name="six" unicode="6" horiz-adv-x="561" 
d="M500 133q-14 -67 -56.5 -102t-109.5 -35h-153q-83 0 -118.5 44.5t-17.5 127.5l84 396q14 67 57 102t110 35h153q82 0 116 -41.5t17 -120.5l-10 -46h-148l11 52q6 26 -20 26h-106q-26 0 -32 -26l-28 -131h139q84 0 119 -41.5t18 -120.5zM215 126h106q25 0 31 26l22 106
q6 26 -20 26h-132l-28 -132q-6 -26 21 -26z" />
    <glyph glyph-name="seven" unicode="7" horiz-adv-x="512" 
d="M209 0h-165l345 565h-319l29 132h483l-26 -118z" />
    <glyph glyph-name="eight" unicode="8" horiz-adv-x="567" 
d="M334 -4h-161q-85 0 -120.5 40t-18.5 117l24 113q19 88 102 103q-60 29 -42 113l17 82q13 66 56.5 101.5t110.5 35.5h133q170 0 138 -157l-17 -82q-17 -79 -85 -100q71 -26 53 -116l-24 -113q-14 -67 -56.5 -102t-109.5 -35zM371 420q25 0 31 25l22 103q6 26 -21 26h-90
q-25 0 -31 -26l-22 -102q-6 -26 21 -26h90zM204 122h118q25 0 31 26l26 122q6 26 -21 26h-118q-25 0 -31 -26l-26 -122q-6 -26 21 -26z" />
    <glyph glyph-name="nine" unicode="9" horiz-adv-x="560" 
d="M323 -4h-153q-83 0 -117 41.5t-16 120.5l10 46h148l-11 -52q-6 -26 20 -26h106q26 0 32 26l30 141h-139q-85 0 -119.5 41.5t-17.5 120.5l23 109q14 67 56.5 102t109.5 35h153q83 0 118 -44.5t18 -127.5l-84 -396q-14 -67 -57 -102t-110 -35zM267 423h132l26 122
q6 26 -21 26h-106q-25 0 -31 -26l-20 -96q-6 -26 20 -26z" />
    <glyph glyph-name="colon" unicode=":" horiz-adv-x="256" 
d="M-11 0l35 165h153l-35 -165h-153zM62 342l34 165h153l-35 -165h-152z" />
    <glyph glyph-name="semicolon" unicode=";" horiz-adv-x="273" 
d="M79 342l34 165h153l-35 -165h-152zM194 165l-11 -51l-155 -229h-88l100 280h154z" />
    <glyph glyph-name="less" unicode="&#x3c;" horiz-adv-x="491" 
d="M419 119l-367 175v110l367 175v-130l-225 -100l225 -101v-129z" />
    <glyph glyph-name="equal" unicode="=" horiz-adv-x="491" 
d="M68 307h367v-110h-367v110zM68 508h367v-110h-367v110z" />
    <glyph glyph-name="greater" unicode="&#x3e;" horiz-adv-x="491" 
d="M462 294l-367 -175v129l225 101l-225 100v130l367 -175v-110z" />
    <glyph glyph-name="question" unicode="?" horiz-adv-x="547" 
d="M243 368l129 66q27 14 32 33l16 78q6 26 -21 26h-143q-25 0 -31 -26l-14 -65h-146l18 84q14 67 56.5 102t109.5 35h181q84 0 119.5 -41.5t18.5 -120.5l-19 -90q-5 -22 -15 -39t-28.5 -30.5t-29 -20t-33.5 -17.5l-100 -49q-28 -13 -32 -30l-8 -40h-135l16 77
q5 26 19.5 40.5t39.5 27.5zM112 0l35 165h153l-36 -165h-152z" />
    <glyph glyph-name="at" unicode="@" horiz-adv-x="837" 
d="M198 -82q-98 0 -141 54.5t-22 152.5l85 399q38 177 215 177h366q100 0 142 -54t21 -153l-54 -249q-32 -146 -161 -146h-30q-76 0 -113 50l-54 -33q-26 -17 -60 -17h-46q-45 0 -72.5 29t-16.5 78l47 207q11 51 35 74.5t76 23.5h58q29 0 55 -18l23 -15l10 29h105l-62 -274
q-3 -15 3.5 -24.5t21.5 -9.5h27q23 0 30 36l63 300q15 66 -51 66h-374q-65 0 -80 -66l-95 -451q-15 -66 52 -66h375l-22 -100h-356zM409 198q10 0 29 11l53 31q0 2 2 11l29 123l-26 27q-10 11 -31 11h-27q-19 0 -24 -21l-40 -167q-7 -26 23 -26h12z" />
    <glyph glyph-name="A" unicode="A" horiz-adv-x="578" 
d="M145 141l-29 -141h-145l33 160q5 23 25 60l266 477h160l61 -477q5 -37 0 -60l-34 -160h-144l29 141v3h-222v-3zM339 531l-134 -262h160z" />
    <glyph glyph-name="B" unicode="B" horiz-adv-x="609" 
d="M1 0l148 697h315q85 0 119.5 -41t17.5 -121l-16 -75q-18 -86 -102 -103q91 -22 70 -125l-20 -95q-14 -67 -56.5 -102t-109.5 -35h-366zM431 569h-157l-31 -147h157q26 0 32 26l20 95q6 26 -21 26zM388 295h-173l-35 -167h173q25 0 31 26l25 115q6 26 -21 26z" />
    <glyph glyph-name="C" unicode="C" horiz-adv-x="577" 
d="M397 240h150l-23 -107q-14 -67 -56.5 -102t-109.5 -35h-179q-83 0 -118.5 44.5t-17.5 127.5l84 396q14 67 57 102t110 35h179q84 0 118 -44t17 -128l-11 -52h-150l14 68q6 26 -20 26h-134q-26 0 -32 -26l-83 -393q-6 -26 21 -26h134q25 0 31 26z" />
    <glyph glyph-name="D" unicode="D" horiz-adv-x="618" 
d="M1 0l148 697h320q88 0 125 -47t18 -135l-78 -368q-15 -71 -61 -109t-117 -38h-355zM181 132h172q25 0 31 26l81 381q6 26 -21 26h-172z" />
    <glyph glyph-name="E" unicode="E" horiz-adv-x="548" 
d="M1 0l148 697h442l-28 -130h-290l-30 -145h262l-27 -127h-263l-34 -165h296l-27 -130h-449z" />
    <glyph glyph-name="F" unicode="F" horiz-adv-x="542" 
d="M481 264h-272l-56 -264h-152l148 697h452l-28 -130h-300l-36 -173h272z" />
    <glyph glyph-name="G" unicode="G" horiz-adv-x="588" 
d="M525 133q-13 -67 -56 -102t-110 -35h-179q-83 0 -118.5 44.5t-17.5 127.5l84 396q29 137 167 137h179q84 0 118 -44t17 -128l-11 -52h-150l14 68q6 26 -20 26h-134q-26 0 -32 -26l-83 -393q-6 -26 21 -26h134q25 0 31 26l19 90h-91l24 120h241z" />
    <glyph glyph-name="H" unicode="H" horiz-adv-x="630" 
d="M351 0l62 293h-198l-62 -293h-152l148 697h152l-58 -273h198l58 273h152l-148 -697h-152z" />
    <glyph glyph-name="I" unicode="I" horiz-adv-x="280" 
d="M1 0l148 697h152l-148 -697h-152z" />
    <glyph glyph-name="J" unicode="J" horiz-adv-x="513" 
d="M404 697h152l-120 -564q-14 -67 -56.5 -102t-109.5 -35h-132q-84 0 -119.5 44.5t-16.5 127.5l14 63h150l-17 -77q-6 -26 21 -26h87q25 0 31 26z" />
    <glyph glyph-name="K" unicode="K" horiz-adv-x="600" 
d="M368 153l-93 142h-60l-62 -295h-152l148 697h152l-58 -275h69l144 120q17 14 24 48l23 107h146l-29 -134q-11 -53 -42 -78l-160 -129l97 -146q24 -38 16 -77l-28 -133h-151l24 115q4 20 -8 38z" />
    <glyph glyph-name="L" unicode="L" horiz-adv-x="487" 
d="M1 0l148 697h152l-120 -565h267l-28 -132h-419z" />
    <glyph glyph-name="M" unicode="M" horiz-adv-x="731" 
d="M298 202l-66 216l-89 -418h-142l148 697h141l91 -320l220 320h151l-148 -697h-143l88 416l-150 -214h-101z" />
    <glyph glyph-name="N" unicode="N" horiz-adv-x="630" 
d="M369 0l-139 410l-86 -410h-143l148 697h137l138 -405l84 405h143l-148 -697h-134z" />
    <glyph glyph-name="O" unicode="O" horiz-adv-x="609" 
d="M43 168l84 396q14 67 57 102t110 35h193q84 0 118.5 -44.5t16.5 -127.5l-84 -396q-14 -67 -56.5 -102t-109.5 -35h-193q-83 0 -118.5 44.5t-17.5 127.5zM192 152q-6 -26 21 -26h146q25 0 31 26l83 393q6 26 -20 26h-146q-26 0 -32 -26z" />
    <glyph glyph-name="P" unicode="P" horiz-adv-x="583" 
d="M408 247h-203l-52 -247h-152l148 697h320q83 0 117.5 -44.5t16.5 -127.5l-30 -141q-29 -137 -165 -137zM435 566h-162l-40 -188h162q25 0 31 26l29 136q6 26 -20 26z" />
    <glyph glyph-name="Q" unicode="Q" horiz-adv-x="609" 
d="M400 -155h-156l-40 151h-25q-83 0 -118.5 44.5t-17.5 127.5l84 396q14 67 57 102t110 35h193q84 0 118.5 -44.5t16.5 -127.5l-84 -396q-14 -67 -56.5 -102t-109.5 -35h-11zM390 152l83 393q6 26 -20 26h-146q-26 0 -32 -26l-83 -393q-6 -26 21 -26h146q25 0 31 26z" />
    <glyph glyph-name="R" unicode="R" horiz-adv-x="597" 
d="M332 0l-25 262h-98l-56 -262h-152l148 697h319q84 0 118.5 -44.5t16.5 -127.5l-27 -126q-23 -108 -114 -131l33 -268h-163zM435 568h-162l-37 -177h162q25 0 31 26l27 125q6 26 -21 26z" />
    <glyph glyph-name="S" unicode="S" horiz-adv-x="580" 
d="M99 465l21 99q14 67 57 102t110 35h180q82 0 116 -41t17 -121l-11 -54h-150l13 63q6 26 -21 26h-133q-25 0 -31 -25l-15 -73q-3 -13 0 -19t16 -10l183 -50q119 -32 96 -141l-26 -123q-29 -137 -165 -137h-194q-82 0 -116.5 41.5t-17.5 120.5l10 48h150l-12 -57
q-6 -26 21 -26h146q25 0 31 26l19 87q5 23 -18 29l-190 52q-45 13 -72 49.5t-14 98.5z" />
    <glyph glyph-name="T" unicode="T" horiz-adv-x="514" 
d="M555 565h-164l-120 -565h-152l121 565h-167l29 132h482z" />
    <glyph glyph-name="U" unicode="U" horiz-adv-x="625" 
d="M514 697h152l-120 -564q-14 -67 -56.5 -102t-109.5 -35h-193q-83 0 -118.5 44.5t-17.5 127.5l113 529h152l-116 -543q-6 -26 21 -26h146q25 0 31 26z" />
    <glyph glyph-name="V" unicode="V" horiz-adv-x="568" 
d="M145 0l-57 477q-4 40 1 60l34 160h149l-30 -141q-7 -31 -4 -55l27 -313l163 324q10 19 16 44l30 141h151l-34 -160q-6 -26 -25 -60l-261 -477h-160z" />
    <glyph glyph-name="W" unicode="W" horiz-adv-x="800" 
d="M556 697l-30 -141q-7 -28 -7 -44l7 -296l134 296q9 19 14 44l30 141h147l-34 -160q-2 -11 -24 -60l-229 -477h-151l-17 268l-129 -268h-152l-27 477q-3 32 2 60l34 160h144l-30 -141q-6 -29 -6 -44l8 -296l132 296q11 24 15 44l30 141h139z" />
    <glyph glyph-name="X" unicode="X" horiz-adv-x="571" 
d="M145 107l-22 -107h-151l28 137q9 42 38 69l163 148l-95 133q-22 31 -12 79l28 131h147l-23 -106q-6 -28 6 -45l70 -99l103 96q14 13 22 52l22 102h151l-31 -145q-7 -34 -36 -61l-160 -147l94 -132q24 -33 14 -80l-27 -132h-147l23 111q5 23 -6 39l-72 102l-104 -97
q-16 -15 -23 -48z" />
    <glyph glyph-name="Y" unicode="Y" horiz-adv-x="555" 
d="M298 0h-151l51 241l-106 256q-11 26 -3 60l30 140h147l-26 -121q-6 -29 0 -44l62 -154l122 144q17 18 22 44l28 131h147l-30 -140q-10 -47 -30 -70l-214 -253z" />
    <glyph glyph-name="Z" unicode="Z" horiz-adv-x="550" 
d="M462 0h-501l28 132l395 433h-284l29 132h471l-28 -132l-394 -433h312z" />
    <glyph glyph-name="bracketleft" unicode="[" horiz-adv-x="333" 
d="M221 -60l-28 -130h-219l202 960h218l-28 -130h-66l-147 -700h68z" />
    <glyph glyph-name="backslash" unicode="\" horiz-adv-x="518" 
d="M422 -73h-136l-168 843h137z" />
    <glyph glyph-name="bracketright" unicode="]" horiz-adv-x="333" 
d="M109 640l28 130h219l-202 -960h-218l28 130h66l147 700h-68z" />
    <glyph glyph-name="asciicircum" unicode="^" horiz-adv-x="541" 
d="M386 291l-109 257l-111 -257h-130l185 407h110l185 -407h-130z" />
    <glyph glyph-name="underscore" unicode="_" horiz-adv-x="448" 
d="M-38 -73h368l-25 -116h-368z" />
    <glyph glyph-name="grave" unicode="`" horiz-adv-x="250" 
d="M84 671l6 26h140l40 -132h-93z" />
    <glyph glyph-name="a" unicode="a" 
d="M263 18q-38 -22 -78 -22h-54q-62 0 -91.5 37t-16.5 100l54 256q13 59 51 90.5t97 31.5h69q39 0 69 -22l29 -21l14 39h131l-108 -507h-130l2 39zM190 120h21q17 0 43 14l67 37l36 172l-40 30q-19 14 -38 14h-32q-26 0 -32 -26l-45 -215q-6 -26 20 -26z" />
    <glyph glyph-name="b" unicode="b" horiz-adv-x="530" 
d="M300 -4h-70q-41 0 -69 22l-28 21l-14 -39h-130l148 697h144l-48 -224l28 16q38 22 78 22h54q63 0 92.5 -37t16.5 -100l-54 -256q-13 -59 -51 -90.5t-97 -31.5zM245 120h33q26 0 32 26l45 215q6 26 -20 26h-21q-21 0 -44 -14l-66 -37l-36 -172l40 -30q19 -14 37 -14z" />
    <glyph glyph-name="c" unicode="c" horiz-adv-x="490" 
d="M163 -4q-82 0 -115.5 43t-16.5 124l46 216q28 132 160 132h119q80 0 113.5 -41.5t15.5 -120.5l-5 -22h-140l7 34q6 26 -20 26h-78q-26 0 -32 -26l-45 -215q-6 -26 20 -26h78q26 0 32 26l8 38h140l-12 -56q-28 -132 -156 -132h-119z" />
    <glyph glyph-name="d" unicode="d" 
d="M263 18q-38 -22 -78 -22h-54q-62 0 -91.5 37t-16.5 100l54 256q13 59 51 90.5t97 31.5h69q41 0 69 -22l22 -16l48 224h144l-148 -697h-130l2 39zM190 120h21q20 0 43 14l68 37l35 172l-40 30q-19 14 -38 14h-32q-26 0 -32 -26l-45 -215q-6 -26 20 -26z" />
    <glyph glyph-name="e" unicode="e" horiz-adv-x="495" 
d="M437 123q-13 -62 -53 -94.5t-102 -32.5h-119q-82 0 -115.5 43t-16.5 124l46 216q28 132 160 132h119q80 0 113 -43t15 -124l-27 -124h-270l-18 -84q-6 -26 20 -26h79q28 0 32 26l5 27h140zM218 371l-11 -54h133l11 54q6 26 -20 26h-81q-26 0 -32 -26z" />
    <glyph glyph-name="f" unicode="f" horiz-adv-x="364" 
d="M370 379h-123l-120 -569h-144l121 569h-71l26 124h70l13 62q28 132 161 132h137l-26 -124h-100q-25 0 -31 -26l-9 -44h121z" />
    <glyph glyph-name="g" unicode="g" 
d="M275 -194h-140q-154 0 -131 147l2 13h140l-4 -20q-6 -26 21 -26h91q25 0 31 26l24 113l-31 -17q-39 -22 -78 -22h-54q-62 0 -91.5 37t-16.5 100l49 232q13 59 51 90.5t97 31.5h69q37 0 69 -22l31 -22l15 40h127l-122 -579q-26 -122 -149 -122zM203 144h23q20 0 43 12
l69 38l31 148l-42 31q-19 14 -38 14h-34q-26 0 -32 -26l-40 -191q-6 -26 20 -26z" />
    <glyph glyph-name="h" unicode="h" horiz-adv-x="536" 
d="M271 373l-67 -38l-71 -335h-144l148 697h144l-48 -224l29 16q41 22 78 22h54q66 0 94.5 -35.5t14.5 -101.5l-79 -374h-144l76 361q6 26 -20 26h-21q-21 0 -44 -14z" />
    <glyph glyph-name="i" unicode="i" horiz-adv-x="248" 
d="M-11 0l107 507h144l-107 -507h-144zM107 566l28 131h148l-28 -131h-148z" />
    <glyph glyph-name="j" unicode="j" horiz-adv-x="247" 
d="M-146 -190l27 124h69q24 0 30 26l116 547h144l-121 -570q-13 -61 -52.5 -94t-100.5 -33h-112zM107 566l28 131h148l-28 -131h-148z" />
    <glyph glyph-name="k" unicode="k" horiz-adv-x="521" 
d="M293 116l-74 97h-41l-45 -213h-144l148 697h144l-76 -361h28l119 69q26 15 30 35l14 67h130l-19 -91q-11 -56 -80 -94l-83 -46l76 -93q20 -25 26 -44t1 -44l-20 -95h-138l16 77q4 17 -12 39z" />
    <glyph glyph-name="l" unicode="l" horiz-adv-x="248" 
d="M137 697h144l-148 -697h-144z" />
    <glyph glyph-name="m" unicode="m" horiz-adv-x="814" 
d="M270 373l-67 -38l-71 -335h-144l108 507h130l-2 -39l37 21q41 22 78 22h49q81 0 104 -53l55 31q38 22 78 22h49q66 0 94 -35t14 -102l-79 -374h-144l76 361q6 26 -19 26h-17q-20 0 -43 -14l-69 -39l-70 -334h-143l76 361q6 26 -20 26h-16q-21 0 -44 -14z" />
    <glyph glyph-name="n" unicode="n" horiz-adv-x="534" 
d="M335 387h-21q-21 0 -44 -14l-67 -38l-71 -335h-144l108 507h130l-2 -39l37 21q41 22 78 22h54q66 0 94.5 -35.5t14.5 -101.5l-79 -374h-144l76 361q6 26 -20 26z" />
    <glyph glyph-name="o" unicode="o" horiz-adv-x="520" 
d="M297 -4h-140q-78 0 -111 42t-17 120l47 221q28 132 160 132h140q78 0 111 -42t17 -120l-47 -221q-28 -132 -160 -132zM191 117h94q25 0 31 26l47 221q6 26 -21 26h-94q-25 0 -31 -26l-47 -221q-6 -26 21 -26z" />
    <glyph glyph-name="p" unicode="p" 
d="M161 18l-21 16l-48 -224h-143l147 697h130l-2 -39l37 21q38 22 78 22h54q63 0 92.5 -37t16.5 -100l-54 -256q-13 -59 -51 -90.5t-97 -31.5h-70q-41 0 -69 22zM245 120h33q26 0 32 26l45 215q6 26 -20 26h-21q-18 0 -44 -14l-67 -37l-35 -172l40 -30q19 -14 37 -14z" />
    <glyph glyph-name="q" unicode="q" horiz-adv-x="530" 
d="M388 -190h-144l48 224l-29 -16q-38 -22 -78 -22h-54q-62 0 -91.5 37t-16.5 100l54 256q13 59 51 90.5t97 31.5h69q41 0 69 -22l29 -21l14 39h130zM190 120h21q20 0 43 14l67 37l36 172l-40 30q-19 14 -38 14h-32q-26 0 -32 -26l-45 -215q-6 -26 20 -26z" />
    <glyph glyph-name="r" unicode="r" horiz-adv-x="375" 
d="M132 0h-144l108 507h130l-3 -48l39 30q28 22 78 22h79l-26 -124h-72q-25 0 -43 -14l-80 -62z" />
    <glyph glyph-name="s" unicode="s" horiz-adv-x="483" 
d="M32 164h140l-7 -33q-6 -26 21 -26h84q27 0 31 22l7 35q3 17 -15 21l-142 36q-95 24 -76 117l13 63q23 112 156 112h106q80 0 114 -37.5t18 -109.5l-3 -14h-140l6 26q6 26 -20 26h-69q-27 0 -31 -20l-8 -38q-3 -16 11 -19l145 -37q46 -12 66 -41t12 -68l-15 -71
q-23 -112 -155 -112h-120q-160 0 -133 147z" />
    <glyph glyph-name="t" unicode="t" horiz-adv-x="376" 
d="M316 124l-27 -124h-127q-69 0 -97.5 36t-13.5 106l51 237h-71l26 124h71l29 137h144l-29 -137h121l-25 -124h-123l-49 -229q-3 -14 2 -20t19 -6h99z" />
    <glyph glyph-name="u" unicode="u" horiz-adv-x="530" 
d="M107 507h144l-76 -361q-6 -26 20 -26h15q17 0 43 14l69 38l71 335h144l-108 -507h-130l2 40l-39 -22q-41 -22 -78 -22h-48q-66 0 -94 35t-14 102z" />
    <glyph glyph-name="v" unicode="v" horiz-adv-x="493" 
d="M112 0l-64 293q-7 34 -3 55l34 159h144l-30 -141q-6 -30 -4 -43l30 -171l102 172q13 22 18 45l30 138h139l-34 -159q-7 -32 -23 -55l-191 -293h-148z" />
    <glyph glyph-name="w" unicode="w" horiz-adv-x="737" 
d="M103 0l-52 293q-7 37 -2 61l33 153h140l-29 -140q-5 -23 -3 -43l21 -158l90 159q15 28 18 42l30 140h140l-30 -140q-5 -27 -3 -42l23 -159l90 159q15 27 19 47l28 135h136l-31 -149q-7 -32 -26 -64l-178 -294h-143l-29 165l-99 -165h-143z" />
    <glyph glyph-name="x" unicode="x" horiz-adv-x="515" 
d="M120 71l-15 -71h-137l15 72q13 60 71 106l101 78l-65 71q-22 24 -27.5 45.5t0.5 46.5l18 88h138l-15 -74q-4 -20 10 -36l55 -60l81 69q18 16 22 34l14 67h136l-17 -82q-11 -51 -65 -92l-100 -75l71 -78q38 -41 27 -97l-17 -83h-137l15 73q4 21 -11 37l-63 69l-84 -76
q-18 -15 -21 -32z" />
    <glyph glyph-name="y" unicode="y" horiz-adv-x="494" 
d="M69 -190h-110l27 124h76q4 0 8 1t6.5 1.5t5.5 3t5 4t4.5 5t4 5.5t4.5 6.5t4 6.5l10 15l-70 310q-8 34 -1 65l32 150h143l-29 -141q-6 -29 -3 -42l29 -171l103 171q13 22 17 42l29 141h140l-33 -155q-7 -34 -23 -59l-222 -364q-18 -29 -24 -39t-19.5 -28.5t-22 -24
t-23 -14.5t-30.5 -11t-38 -2z" />
    <glyph glyph-name="z" unicode="z" horiz-adv-x="480" 
d="M182 122h233l-26 -122h-422l22 109l281 276h-213l26 122h403l-22 -109z" />
    <glyph glyph-name="braceleft" unicode="{" horiz-adv-x="330" 
d="M227 179l-46 -213q-6 -26 21 -26h33l-28 -130h-49q-78 0 -111 44.5t-15 127.5l49 225q2 9 -4 15t-17 6h-28l27 125h28q25 0 31 26l54 254q29 137 165 137h72l-28 -130h-31q-25 0 -31 -26l-47 -224q-14 -72 -87 -93q62 -28 42 -118z" />
    <glyph glyph-name="bar" unicode="|" horiz-adv-x="285" 
d="M-27 -190l204 960h132l-204 -960h-132z" />
    <glyph glyph-name="braceright" unicode="}" horiz-adv-x="329" 
d="M118 402l46 212q6 26 -21 26h-33l28 130h49q77 0 110 -44.5t15 -127.5l-49 -224q-2 -9 4.5 -15t17.5 -6h28l-27 -125h-28q-25 0 -31 -26l-54 -255q-29 -137 -165 -137h-72l28 130h31q25 0 31 26l47 225q14 72 87 93q-62 28 -42 118z" />
    <glyph glyph-name="asciitilde" unicode="~" horiz-adv-x="491" 
d="M395 376q16 0 30 14l45 43l83 -78l-58 -63q-35 -38 -81 -38h-56q-24 0 -72 19l-89 36q-34 14 -42 14h-39q-16 0 -30 -14l-45 -44l-83 78l58 64q35 38 81 38h56q23 0 71 -19l88 -36q34 -14 43 -14h40z" />
    <glyph glyph-name="uni00A0" unicode="&#xa0;" horiz-adv-x="205" 
 />
    <glyph glyph-name="exclamdown" unicode="&#xa1;" horiz-adv-x="288" 
d="M265 507l-35 -165h-153l35 165h153zM84 284h114l-24 -218l-55 -256h-158l55 256z" />
    <glyph glyph-name="cent" unicode="&#xa2;" horiz-adv-x="502" 
d="M165 91h-2q-59 0 -94 45t-19 122l46 216q28 132 160 132h14l21 95h128l-21 -95h1q66 0 99 -42.5t16 -119.5l-5 -22h-139l7 34q6 26 -20 26h-89q-26 0 -32 -26l-45 -215q-6 -26 20 -26h89q26 0 32 26l8 38h139l-12 -56q-28 -132 -155 -132h-19l-20 -95h-128z" />
    <glyph glyph-name="sterling" unicode="&#xa3;" horiz-adv-x="600" 
d="M503 0h-524l29 132h63l33 154h-64l23 108h64l36 170q14 67 56.5 102t109.5 35h140q84 0 119.5 -41.5t18.5 -120.5l-13 -62h-150l14 68q6 26 -21 26h-95q-25 0 -31 -26l-32 -151h117l-23 -108h-117l-33 -154h308z" />
    <glyph glyph-name="currency" unicode="&#xa4;" horiz-adv-x="685" 
d="M551 71l-98 97q-15 -3 -33 -3h-138q-10 0 -30 2l-96 -96l-80 80l85 85q-9 26 -9 59v110q0 33 9 57l-85 86l80 80l95 -96q15 3 31 3h138q21 0 34 -4l97 97l80 -80l-89 -89q8 -26 8 -54v-110q0 -30 -8 -54l89 -90zM299 266h105q24 0 24 25v119q0 24 -24 24h-105
q-24 0 -24 -24v-119q0 -25 24 -25z" />
    <glyph glyph-name="yen" unicode="&#xa5;" horiz-adv-x="578" 
d="M300 0h-147l30 142h-168l20 95h168l1 4l-15 38h-145l20 95h89l-47 123q-11 25 -3 60l30 140h145l-26 -121q-6 -27 0 -44l56 -154l112 144q18 23 22 44l28 131h145l-30 -140q-11 -48 -28 -68l-94 -115h82l-20 -95h-140l-34 -42h165l-19 -95h-167z" />
    <glyph glyph-name="brokenbar" unicode="&#xa6;" horiz-adv-x="292" 
d="M221 387h-112v383h112v-383zM109 194h112v-384h-112v384z" />
    <glyph glyph-name="section" unicode="&#xa7;" horiz-adv-x="583" 
d="M334 211l-32 -145l-172 62q-93 33 -70 142l63 294q14 67 57 102t110 35h180q82 0 116 -41t17 -121l-10 -47h-150l12 56q6 26 -21 26h-133q-25 0 -31 -25l-58 -271q-5 -21 17 -29zM265 293l32 145l172 -62q92 -34 69 -142l-62 -291q-14 -67 -56.5 -102t-109.5 -35h-180
q-82 0 -116 41t-17 121l10 47h150l-12 -56q-6 -26 21 -26h133q25 0 31 25l57 268q5 21 -18 29z" />
    <glyph glyph-name="dieresis" unicode="&#xa8;" horiz-adv-x="349" 
d="M97 574l24 112h103l-24 -112h-103zM255 574l24 112h104l-24 -112h-104z" />
    <glyph glyph-name="copyright" unicode="&#xa9;" horiz-adv-x="855" 
d="M84 183v331q0 89 49 138t138 49h336q89 0 138 -49t49 -138v-331q0 -89 -49 -138t-138 -49h-336q-89 0 -138 49t-49 138zM606 621h-334q-49 0 -72 -23t-23 -73v-353q0 -50 23 -73t72 -23h334q49 0 72 23t23 73v353q0 50 -23 73t-72 23zM385 128q-66 0 -100.5 34.5
t-34.5 100.5v172q0 65 34.5 99.5t100.5 34.5h110q64 0 97.5 -34.5t33.5 -99.5v-40h-133v32q0 25 -25 25h-57q-24 0 -24 -25v-157q0 -24 24 -24h57q25 0 25 24v36h133v-43q0 -66 -33.5 -100.5t-97.5 -34.5h-110z" />
    <glyph glyph-name="ordfeminine" unicode="&#xaa;" horiz-adv-x="465" 
d="M287 271q-42 -24 -76 -24h-50q-54 0 -81 30t-13 91l50 232q21 101 118 101h72q34 0 66 -24l17 -12l13 32h116l-95 -446h-116v32zM219 354h27q16 0 35 11l40 22l38 177l-30 22q-15 11 -31 11h-27q-20 0 -24 -19l-44 -204q-2 -12 1.5 -16t14.5 -4z" />
    <glyph glyph-name="guillemotleft" unicode="&#xab;" horiz-adv-x="564" 
d="M244 107h-145l-61 84q-1 2 -5 7.5t-5.5 7t-4 6.5t-3.5 8t-2 8t0 10.5t2 11.5l12 53q3 14 11 26t11.5 15.5t19.5 17.5l97 84h157l-176 -154q-12 -10 -14 -18l-1 -4q-2 -10 3 -17zM479 107h-146l-61 84q-18 26 -19 42q0 7 2 17l11 53q1 6 3 11.5t5 10.5t4.5 8t6.5 8t7 6.5
t8 7t8 7.5l97 84h158l-176 -154q-12 -10 -14 -18l-1 -4q-2 -9 3 -17z" />
    <glyph glyph-name="logicalnot" unicode="&#xac;" horiz-adv-x="491" 
d="M313 169v128h-257v110h367v-238h-110z" />
    <glyph glyph-name="uni00AD" unicode="&#xad;" horiz-adv-x="364" 
d="M62 347h260l-26 -123h-260z" />
    <glyph glyph-name="registered" unicode="&#xae;" horiz-adv-x="564" 
d="M94 359v229q0 54 29.5 83.5t82.5 29.5h223q53 0 82.5 -29.5t29.5 -83.5v-229q0 -54 -29.5 -83t-82.5 -29h-223q-53 0 -82.5 29t-29.5 83zM222 637q-30 0 -43.5 -13.5t-13.5 -43.5v-213q0 -57 57 -57h191q58 0 58 57v213q0 57 -58 57h-191zM334 533h-37v-48h37q16 0 16 15
v18q0 15 -16 15zM297 344h-91v261h142q44 0 68 -21.5t24 -61.5v-27q0 -46 -31 -66l33 -85h-103l-22 69h-20v-69z" />
    <glyph glyph-name="macron" unicode="&#xaf;" horiz-adv-x="350" 
d="M105 582l21 97h252l-21 -97h-252z" />
    <glyph glyph-name="degree" unicode="&#xb0;" horiz-adv-x="416" 
d="M316 379h-118q-103 0 -103 103v116q0 103 103 103h118q50 0 76.5 -26.5t26.5 -76.5v-116q0 -50 -26.5 -76.5t-76.5 -26.5zM224 470h67q18 0 18 20v100q0 20 -18 20h-67q-19 0 -19 -20v-100q0 -20 19 -20z" />
    <glyph glyph-name="plusminus" unicode="&#xb1;" horiz-adv-x="491" 
d="M429 367h-130v-108h-110v108h-127v110h127v109h110v-109h130v-110zM62 218h367v-110h-367v110z" />
    <glyph glyph-name="twosuperior" unicode="&#xb2;" horiz-adv-x="346" 
d="M234 747l-7 -26h-102l9 44q8 41 35.5 63.5t69.5 22.5h87q50 0 70.5 -26.5t9.5 -74.5l-11 -52q-12 -55 -77 -73l-106 -30q-11 -2 -14 -16l-2 -9h178l-18 -91h-283l23 114q11 57 87 78l94 26q13 3 16 18l7 32q5 14 -11 14h-40q-12 0 -15 -14z" />
    <glyph glyph-name="threesuperior" unicode="&#xb3;" horiz-adv-x="344" 
d="M276 477h-101q-47 0 -68.5 24.5t-10.5 69.5l5 20h103l-3 -12q-3 -14 11 -14h50q13 0 16 14l8 38q3 13 -10 13h-74l16 75h67q13 0 16 13l6 30q3 14 -10 14h-41q-13 0 -16 -14l-3 -11h-102l6 29q8 41 35 63t66 22h92q48 0 69 -26t11 -73l-6 -28q-8 -40 -51 -52
q44 -15 32 -70l-11 -54q-15 -71 -102 -71z" />
    <glyph glyph-name="acute" unicode="&#xb4;" horiz-adv-x="250" 
d="M291 697l-6 -26l-106 -106h-99l66 132h145z" />
    <glyph glyph-name="mu" unicode="&#xb5;" horiz-adv-x="533" 
d="M113 -92l-21 -98h-143l147 697h144l-76 -361q-6 -26 20 -26h15q17 0 43 14l69 38l71 335h144l-108 -507h-130l2 40l-39 -22q-41 -22 -78 -22h-47q-7 -59 -13 -88z" />
    <glyph glyph-name="paragraph" unicode="&#xb6;" horiz-adv-x="627" 
d="M129 -190l93 437h-17q-83 0 -118.5 44.5t-17.5 127.5l31 141q31 137 166 137h381l-189 -887h-132l161 756h-208q-26 0 -32 -26l-29 -136q-6 -26 21 -26h143l-121 -568h-132z" />
    <glyph glyph-name="periodcentered" unicode="&#xb7;" horiz-adv-x="255" 
d="M34 216l35 165h153l-35 -165h-153z" />
    <glyph glyph-name="cedilla" unicode="&#xb8;" horiz-adv-x="344" 
d="M219 48l-44 -81h7q44 0 65 -18t13 -56l-8 -38q-12 -54 -84 -54h-137l15 70h115q12 0 13 10l1 7q2 11 -8 11h-78q-29 0 -22 23l3 10q3 9 9 21l73 122h32z" />
    <glyph glyph-name="onesuperior" unicode="&#xb9;" horiz-adv-x="325" 
d="M90 570h90l39 187h-90l19 91h195l-58 -278h85l-20 -91h-280z" />
    <glyph glyph-name="ordmasculine" unicode="&#xba;" horiz-adv-x="461" 
d="M310 247h-121q-71 0 -101.5 37.5t-14.5 108.5l41 192q25 116 141 116h121q70 0 100.5 -37.5t14.5 -108.5l-41 -192q-25 -116 -140 -116zM223 358h69q22 0 27 24l39 184q4 24 -17 24h-69q-24 0 -28 -24l-39 -184q-5 -24 18 -24z" />
    <glyph glyph-name="guillemotright" unicode="&#xbb;" horiz-adv-x="562" 
d="M311 446h145l61 -84q1 -2 5 -7.5t5.5 -7t4 -6.5t3.5 -8t2 -8t0 -10.5t-2 -11.5l-12 -53q-3 -14 -11 -26t-11.5 -15.5t-19.5 -17.5l-97 -84h-157l175 154q14 14 15 18l1 4q2 10 -3 17zM76 446h146l60 -84q1 -2 5 -7.5t5.5 -7t4 -6.5t3.5 -8t2 -8t0 -10.5t-2 -11.5l-12 -53
q-3 -14 -10 -25.5t-12 -16t-19 -17.5l-97 -84h-158l176 154q12 10 14 18l1 4q2 10 -3 17z" />
    <glyph glyph-name="onequarter" unicode="&#xbc;" horiz-adv-x="770" 
d="M693 65h-43l-14 -65h-101l14 65h-166l17 82l220 222h94l-47 -222h43zM566 147l18 81l-81 -81h63zM59 419h90l39 187h-90l19 91h195l-58 -278h85l-20 -91h-280zM214 -4h-108l575 705h109z" />
    <glyph glyph-name="onehalf" unicode="&#xbd;" horiz-adv-x="809" 
d="M596 268l-7 -26h-102l9 44q8 41 35.5 63.5t69.5 22.5h87q50 0 70.5 -26.5t9.5 -74.5l-11 -52q-12 -55 -77 -73l-106 -30q-11 -2 -14 -16l-2 -9h178l-18 -91h-283l23 114q11 57 87 78l94 26q13 3 16 18l7 32q5 14 -11 14h-40q-12 0 -15 -14zM59 419h90l39 187h-90l19 91
h195l-58 -278h85l-20 -91h-280zM200 -4h-108l575 705h109z" />
    <glyph glyph-name="threequarters" unicode="&#xbe;" horiz-adv-x="758" 
d="M693 65h-43l-14 -65h-101l14 65h-166l17 82l220 222h94l-47 -222h43zM566 147l18 81l-81 -81h63zM180 -4h-108l575 705h109zM248 326h-101q-47 0 -68.5 24.5t-10.5 69.5l5 20h103l-3 -12q-3 -14 11 -14h50q13 0 16 14l8 38q3 13 -10 13h-74l16 75h67q13 0 16 13l6 30
q3 14 -10 14h-41q-13 0 -16 -14l-3 -11h-102l6 29q8 41 35 63t66 22h92q48 0 69 -26t11 -73l-6 -28q-8 -40 -51 -52q44 -15 32 -70l-11 -54q-15 -71 -102 -71z" />
    <glyph glyph-name="questiondown" unicode="&#xbf;" horiz-adv-x="542" 
d="M300 139l-129 -66q-27 -14 -32 -33l-16 -78q-6 -26 21 -26h143q25 0 31 26l14 65h146l-18 -84q-14 -67 -56.5 -102t-109.5 -35h-181q-84 0 -119.5 41.5t-18.5 120.5l19 90q5 22 15 39t28.5 30.5t29 20t33.5 17.5l100 49q28 13 32 30l8 40h135l-16 -77q-5 -26 -19.5 -40.5
t-39.5 -27.5zM431 507l-35 -165h-153l36 165h152z" />
    <glyph glyph-name="Agrave" unicode="&#xc0;" horiz-adv-x="578" 
d="M145 141l-29 -141h-145l33 160q5 23 25 60l266 477h160l61 -477q5 -37 0 -60l-34 -160h-144l29 141v3h-222v-3zM339 531l-134 -262h160zM236 851l6 26h140l40 -132h-93z" />
    <glyph glyph-name="Aacute" unicode="&#xc1;" horiz-adv-x="578" 
d="M145 141l-29 -141h-145l33 160q5 23 25 60l266 477h160l61 -477q5 -37 0 -60l-34 -160h-144l29 141v3h-222v-3zM339 531l-134 -262h160zM544 877l-6 -26l-107 -106h-99l66 132h146z" />
    <glyph glyph-name="Acircumflex" unicode="&#xc2;" horiz-adv-x="578" 
d="M145 141l-29 -141h-145l33 160q5 23 25 60l266 477h160l61 -477q5 -37 0 -60l-34 -160h-144l29 141v3h-222v-3zM339 531l-134 -262h160zM436 745l-39 53l-61 -53h-104l126 132h101l70 -132h-93z" />
    <glyph glyph-name="Atilde" unicode="&#xc3;" horiz-adv-x="578" 
d="M145 141l-29 -141h-145l33 160q5 23 25 60l266 477h160l61 -477q5 -37 0 -60l-34 -160h-144l29 141v3h-222v-3zM339 531l-134 -262h160zM462 831q15 0 18 15l7 31h79l-14 -65q-14 -67 -77 -67h-36q-19 0 -49 13l-55 25q-16 8 -28 8h-8q-16 0 -19 -15l-6 -31h-79l13 66
q6 32 26.5 49.5t51.5 17.5h39q16 0 46 -13l54 -25q18 -9 29 -9h8z" />
    <glyph glyph-name="Adieresis" unicode="&#xc4;" horiz-adv-x="578" 
d="M145 141l-29 -141h-145l33 160q5 23 25 60l266 477h160l61 -477q5 -37 0 -60l-34 -160h-144l29 141v3h-222v-3zM339 531l-134 -262h160zM252 754l24 112h103l-24 -112h-103zM410 754l24 112h104l-24 -112h-104z" />
    <glyph glyph-name="Aring" unicode="&#xc5;" horiz-adv-x="578" 
d="M145 141l-29 -141h-145l33 160q5 23 25 60l266 477h160l61 -477q5 -37 0 -60l-34 -160h-144l29 141v3h-222v-3zM339 531l-134 -262h160zM411 732h-48q-97 0 -80 91l8 42q14 75 101 75h48q49 0 70 -22t12 -63l-10 -47q-17 -76 -101 -76zM374 802h41q20 0 23 18l6 32
q3 18 -15 18h-41q-16 0 -21 -18l-7 -32q-4 -18 14 -18z" />
    <glyph glyph-name="AE" unicode="&#xc6;" horiz-adv-x="853" 
d="M134 141l-29 -141h-150l33 160q8 39 30 66l386 471h491l-27 -130h-290l-31 -145h262l-26 -127h-263l-35 -165h296l-26 -130h-449l30 144h-202v-3zM415 517l-198 -248h146z" />
    <glyph glyph-name="Ccedilla" unicode="&#xc7;" horiz-adv-x="578" 
d="M397 240h150l-23 -107q-14 -67 -56.5 -102t-109.5 -35h-70l-16 -29h7q44 0 65 -18t13 -56l-8 -38q-12 -54 -84 -54h-137l15 70h115q12 0 13 10l1 7q2 11 -8 11h-78q-29 0 -22 23l3 10q3 9 9 21l25 43h-22q-83 0 -118.5 44.5t-17.5 127.5l84 396q14 67 57 102t110 35h179
q84 0 118 -44t17 -128l-11 -52h-150l14 68q6 26 -20 26h-134q-26 0 -32 -26l-83 -393q-6 -26 21 -26h134q25 0 31 26z" />
    <glyph glyph-name="Egrave" unicode="&#xc8;" horiz-adv-x="548" 
d="M242 851l6 26h140l40 -132h-93zM1 0l148 697h442l-28 -130h-290l-30 -145h262l-27 -127h-263l-34 -165h296l-27 -130h-449z" />
    <glyph glyph-name="Eacute" unicode="&#xc9;" horiz-adv-x="548" 
d="M1 0l148 697h442l-28 -130h-290l-30 -145h262l-27 -127h-263l-34 -165h296l-27 -130h-449zM513 877l-6 -26l-107 -106h-99l66 132h146z" />
    <glyph glyph-name="Ecircumflex" unicode="&#xca;" horiz-adv-x="548" 
d="M427 745l-39 53l-61 -53h-104l126 132h101l70 -132h-93zM1 0l148 697h442l-28 -130h-290l-30 -145h262l-27 -127h-263l-34 -165h296l-27 -130h-449z" />
    <glyph glyph-name="Edieresis" unicode="&#xcb;" horiz-adv-x="548" 
d="M1 0l148 697h442l-28 -130h-290l-30 -145h262l-27 -127h-263l-34 -165h296l-27 -130h-449zM239 754l24 112h103l-24 -112h-103zM397 754l24 112h104l-24 -112h-104z" />
    <glyph glyph-name="Igrave" unicode="&#xcc;" horiz-adv-x="280" 
d="M1 0l148 697h152l-148 -697h-152zM91 851l6 26h140l40 -132h-93z" />
    <glyph glyph-name="Iacute" unicode="&#xcd;" horiz-adv-x="280" 
d="M1 0l148 697h152l-148 -697h-152zM393 877l-6 -26l-107 -106h-99l66 132h146z" />
    <glyph glyph-name="Icircumflex" unicode="&#xce;" horiz-adv-x="280" 
d="M1 0l148 697h152l-148 -697h-152zM290 745l-39 53l-61 -53h-104l126 132h101l70 -132h-93z" />
    <glyph glyph-name="Idieresis" unicode="&#xcf;" horiz-adv-x="280" 
d="M1 0l148 697h152l-148 -697h-152zM101 754l24 112h103l-24 -112h-103zM259 754l24 112h104l-24 -112h-104z" />
    <glyph glyph-name="Eth" unicode="&#xd0;" horiz-adv-x="624" 
d="M7 0l63 297h-50l27 123h49l59 277h320q88 0 125 -47t18 -135l-78 -368q-15 -71 -61 -109t-117 -38h-355zM359 132q25 0 31 26l81 381q6 26 -21 26h-172l-30 -145h87l-27 -123h-87l-34 -165h172z" />
    <glyph glyph-name="Ntilde" unicode="&#xd1;" horiz-adv-x="630" 
d="M502 831q15 0 18 15l7 31h79l-14 -65q-14 -67 -77 -67h-36q-19 0 -49 13l-55 25q-16 8 -28 8h-8q-16 0 -19 -15l-6 -31h-79l13 66q6 32 26.5 49.5t51.5 17.5h39q16 0 46 -13l54 -25q18 -9 29 -9h8zM369 0l-139 410l-86 -410h-143l148 697h137l138 -405l84 405h143
l-148 -697h-134z" />
    <glyph glyph-name="Ograve" unicode="&#xd2;" horiz-adv-x="609" 
d="M262 851l6 26h140l40 -132h-93zM43 168l84 396q14 67 57 102t110 35h193q84 0 118.5 -44.5t16.5 -127.5l-84 -396q-14 -67 -56.5 -102t-109.5 -35h-193q-83 0 -118.5 44.5t-17.5 127.5zM192 152q-6 -26 21 -26h146q25 0 31 26l83 393q6 26 -20 26h-146q-26 0 -32 -26z
" />
    <glyph glyph-name="Oacute" unicode="&#xd3;" horiz-adv-x="609" 
d="M555 877l-6 -26l-107 -106h-99l66 132h146zM43 168l84 396q14 67 57 102t110 35h193q84 0 118.5 -44.5t16.5 -127.5l-84 -396q-14 -67 -56.5 -102t-109.5 -35h-193q-83 0 -118.5 44.5t-17.5 127.5zM192 152q-6 -26 21 -26h146q25 0 31 26l83 393q6 26 -20 26h-146
q-26 0 -32 -26z" />
    <glyph glyph-name="Ocircumflex" unicode="&#xd4;" horiz-adv-x="609" 
d="M456 745l-39 53l-61 -53h-104l126 132h101l70 -132h-93zM43 168l84 396q14 67 57 102t110 35h193q84 0 118.5 -44.5t16.5 -127.5l-84 -396q-14 -67 -56.5 -102t-109.5 -35h-193q-83 0 -118.5 44.5t-17.5 127.5zM192 152q-6 -26 21 -26h146q25 0 31 26l83 393q6 26 -20 26
h-146q-26 0 -32 -26z" />
    <glyph glyph-name="Otilde" unicode="&#xd5;" horiz-adv-x="609" 
d="M43 168l84 396q14 67 57 102t110 35h193q84 0 118.5 -44.5t16.5 -127.5l-84 -396q-14 -67 -56.5 -102t-109.5 -35h-193q-83 0 -118.5 44.5t-17.5 127.5zM192 152q-6 -26 21 -26h146q25 0 31 26l83 393q6 26 -20 26h-146q-26 0 -32 -26zM493 831q15 0 18 15l7 31h79
l-14 -65q-14 -67 -77 -67h-36q-19 0 -49 13l-55 25q-16 8 -28 8h-8q-16 0 -19 -15l-6 -31h-79l13 66q6 32 26.5 49.5t51.5 17.5h39q16 0 46 -13l54 -25q18 -9 29 -9h8z" />
    <glyph glyph-name="Odieresis" unicode="&#xd6;" horiz-adv-x="609" 
d="M43 168l84 396q14 67 57 102t110 35h193q84 0 118.5 -44.5t16.5 -127.5l-84 -396q-14 -67 -56.5 -102t-109.5 -35h-193q-83 0 -118.5 44.5t-17.5 127.5zM192 152q-6 -26 21 -26h146q25 0 31 26l83 393q6 26 -20 26h-146q-26 0 -32 -26zM269 754l24 112h103l-24 -112h-103
zM427 754l24 112h104l-24 -112h-104z" />
    <glyph glyph-name="multiply" unicode="&#xd7;" horiz-adv-x="491" 
d="M354 176l-95 96l-100 -100l-78 78l101 100l-102 100l79 78l100 -101l96 97l78 -79l-97 -96l96 -95z" />
    <glyph glyph-name="Oslash" unicode="&#xd8;" horiz-adv-x="606" 
d="M26 168l84 396q14 67 57 102t110 35h191q34 0 63 -8l21 28h84l-49 -66q34 -45 16 -126l-84 -396q-14 -67 -56.5 -102t-109.5 -35h-191q-34 0 -63 8l-21 -28h-83l48 64q-35 44 -17 128zM254 546l-67 -313l255 341q-1 0 -3 0.5t-3 0.5h-147q-29 0 -35 -29zM341 122
q29 0 35 29l65 309l-254 -338h154z" />
    <glyph glyph-name="Ugrave" unicode="&#xd9;" horiz-adv-x="625" 
d="M287 851l6 26h140l40 -132h-93zM514 697h152l-120 -564q-14 -67 -56.5 -102t-109.5 -35h-193q-83 0 -118.5 44.5t-17.5 127.5l113 529h152l-116 -543q-6 -26 21 -26h146q25 0 31 26z" />
    <glyph glyph-name="Uacute" unicode="&#xda;" horiz-adv-x="625" 
d="M514 697h152l-120 -564q-14 -67 -56.5 -102t-109.5 -35h-193q-83 0 -118.5 44.5t-17.5 127.5l113 529h152l-116 -543q-6 -26 21 -26h146q25 0 31 26zM576 877l-6 -26l-107 -106h-99l66 132h146z" />
    <glyph glyph-name="Ucircumflex" unicode="&#xdb;" horiz-adv-x="625" 
d="M472 745l-39 53l-61 -53h-104l126 132h101l70 -132h-93zM514 697h152l-120 -564q-14 -67 -56.5 -102t-109.5 -35h-193q-83 0 -118.5 44.5t-17.5 127.5l113 529h152l-116 -543q-6 -26 21 -26h146q25 0 31 26z" />
    <glyph glyph-name="Udieresis" unicode="&#xdc;" horiz-adv-x="625" 
d="M514 697h152l-120 -564q-14 -67 -56.5 -102t-109.5 -35h-193q-83 0 -118.5 44.5t-17.5 127.5l113 529h152l-116 -543q-6 -26 21 -26h146q25 0 31 26zM289 754l24 112h103l-24 -112h-103zM447 754l24 112h104l-24 -112h-104z" />
    <glyph glyph-name="Yacute" unicode="&#xdd;" horiz-adv-x="555" 
d="M298 0h-151l51 241l-106 256q-11 26 -3 60l30 140h147l-26 -121q-6 -29 0 -44l62 -154l122 144q17 18 22 44l28 131h147l-30 -140q-10 -47 -30 -70l-214 -253zM531 877l-6 -26l-107 -106h-99l66 132h146z" />
    <glyph glyph-name="Thorn" unicode="&#xde;" horiz-adv-x="590" 
d="M377 101h-203l-21 -101h-152l148 697h152l-31 -146h167q84 0 118.5 -44.5t16.5 -127.5l-30 -141q-29 -137 -165 -137zM404 420h-162l-40 -188h162q25 0 31 26l29 136q6 26 -20 26z" />
    <glyph glyph-name="germandbls" unicode="&#xdf;" horiz-adv-x="570" 
d="M127 -190h-144l120 569h-70l26 124h70l13 62q28 132 161 132h126q85 0 121 -40.5t17 -116.5l-19 -90q-17 -75 -98 -92q90 -23 69 -121l-22 -100q-28 -137 -163 -137h-103l26 124h67q27 0 31 26l26 121q6 26 -21 26h-55l26 123h41q26 0 31 26l22 101q4 26 -21 26h-90
q-25 0 -31 -26z" />
    <glyph glyph-name="agrave" unicode="&#xe0;" 
d="M263 18q-38 -22 -78 -22h-54q-62 0 -91.5 37t-16.5 100l54 256q13 59 51 90.5t97 31.5h69q39 0 69 -22l29 -21l14 39h131l-108 -507h-130l2 39zM190 120h21q17 0 43 14l67 37l36 172l-40 30q-19 14 -38 14h-32q-26 0 -32 -26l-45 -215q-6 -26 20 -26zM169 671l6 26h140
l40 -132h-93z" />
    <glyph glyph-name="aacute" unicode="&#xe1;" 
d="M263 18q-38 -22 -78 -22h-54q-62 0 -91.5 37t-16.5 100l54 256q13 59 51 90.5t97 31.5h69q39 0 69 -22l29 -21l14 39h131l-108 -507h-130l2 39zM190 120h21q17 0 43 14l67 37l36 172l-40 30q-19 14 -38 14h-32q-26 0 -32 -26l-45 -215q-6 -26 20 -26zM458 697l-6 -26
l-106 -106h-99l66 132h145z" />
    <glyph glyph-name="acircumflex" unicode="&#xe2;" 
d="M263 18q-38 -22 -78 -22h-54q-62 0 -91.5 37t-16.5 100l54 256q13 59 51 90.5t97 31.5h69q39 0 69 -22l29 -21l14 39h131l-108 -507h-130l2 39zM190 120h21q17 0 43 14l67 37l36 172l-40 30q-19 14 -38 14h-32q-26 0 -32 -26l-45 -215q-6 -26 20 -26zM378 565l-39 53
l-61 -53h-104l125 132h102l69 -132h-92z" />
    <glyph glyph-name="atilde" unicode="&#xe3;" 
d="M263 18q-38 -22 -78 -22h-54q-62 0 -91.5 37t-16.5 100l54 256q13 59 51 90.5t97 31.5h69q39 0 69 -22l29 -21l14 39h131l-108 -507h-130l2 39zM190 120h21q17 0 43 14l67 37l36 172l-40 30q-19 14 -38 14h-32q-26 0 -32 -26l-45 -215q-6 -26 20 -26zM417 651q15 0 18 15
l7 31h80l-14 -65q-14 -67 -77 -67h-37q-23 0 -49 13l-55 26q-16 8 -28 8h-8q-15 0 -18 -16l-6 -31h-80l13 66q6 32 26.5 49.5t51.5 17.5h39q16 0 46 -13l55 -25q18 -9 28 -9h8z" />
    <glyph glyph-name="adieresis" unicode="&#xe4;" 
d="M263 18q-38 -22 -78 -22h-54q-62 0 -91.5 37t-16.5 100l54 256q13 59 51 90.5t97 31.5h69q39 0 69 -22l29 -21l14 39h131l-108 -507h-130l2 39zM190 120h21q17 0 43 14l67 37l36 172l-40 30q-19 14 -38 14h-32q-26 0 -32 -26l-45 -215q-6 -26 20 -26zM195 574l24 112h103
l-24 -112h-103zM353 574l24 112h104l-24 -112h-104z" />
    <glyph glyph-name="aring" unicode="&#xe5;" 
d="M263 18q-38 -22 -78 -22h-54q-62 0 -91.5 37t-16.5 100l54 256q13 59 51 90.5t97 31.5h69q39 0 69 -22l29 -21l14 39h131l-108 -507h-130l2 39zM190 120h21q17 0 43 14l67 37l36 172l-40 30q-19 14 -38 14h-32q-26 0 -32 -26l-45 -215q-6 -26 20 -26zM347 542h-48
q-97 0 -80 91l8 42q14 75 101 75h48q49 0 70 -22t12 -63l-10 -47q-17 -76 -101 -76zM310 612h41q20 0 23 18l6 32q3 18 -15 18h-41q-17 0 -21 -18l-7 -32q-5 -18 14 -18z" />
    <glyph glyph-name="ae" unicode="&#xe6;" horiz-adv-x="768" 
d="M76 351l8 38q13 59 52.5 90.5t101.5 31.5h99q65 0 94 -36q40 36 108 36h87q80 0 113 -43t15 -124l-30 -137h-269l-15 -71q-7 -26 19 -26h80q27 0 31 26l4 17h139l-6 -30q-13 -62 -53 -94.5t-102 -32.5h-118q-95 0 -126 58l-52 -30q-49 -28 -86 -28h-44q-58 0 -91 35
t-18 103l12 53q13 55 51.5 79.5t99.5 30.5l153 14l13 60q6 26 -20 26h-74q-26 0 -32 -26l-4 -20h-140zM476 309h133l13 62q4 26 -20 26h-82q-25 0 -31 -26zM207 109q18 0 40 13l53 30q0 3 2 11l9 44l-113 -12q-26 -3 -31 -25l-8 -36q-6 -25 19 -25h29z" />
    <glyph glyph-name="ccedilla" unicode="&#xe7;" horiz-adv-x="490" 
d="M282 -4h-33l-16 -29h7q44 0 65 -18t13 -56l-8 -38q-12 -54 -84 -54h-137l15 70h115q12 0 13 10l1 7q2 11 -8 11h-78q-29 0 -22 23l3 10q3 9 9 21l25 43q-81 0 -114.5 43t-16.5 124l46 216q28 132 160 132h119q80 0 113.5 -41.5t15.5 -120.5l-5 -22h-140l7 34q6 26 -20 26
h-78q-26 0 -32 -26l-45 -215q-6 -26 20 -26h78q26 0 32 26l8 38h140l-12 -56q-28 -132 -156 -132z" />
    <glyph glyph-name="egrave" unicode="&#xe8;" horiz-adv-x="495" 
d="M437 123q-13 -62 -53 -94.5t-102 -32.5h-119q-82 0 -115.5 43t-16.5 124l46 216q28 132 160 132h119q80 0 113 -43t15 -124l-27 -124h-270l-18 -84q-6 -26 20 -26h79q28 0 32 26l5 27h140zM218 371l-11 -54h133l11 54q6 26 -20 26h-81q-26 0 -32 -26zM159 671l6 26h140
l40 -132h-93z" />
    <glyph glyph-name="eacute" unicode="&#xe9;" horiz-adv-x="495" 
d="M459 697l-6 -26l-106 -106h-99l66 132h145zM437 123q-13 -62 -53 -94.5t-102 -32.5h-119q-82 0 -115.5 43t-16.5 124l46 216q28 132 160 132h119q80 0 113 -43t15 -124l-27 -124h-270l-18 -84q-6 -26 20 -26h79q28 0 32 26l5 27h140zM218 371l-11 -54h133l11 54
q6 26 -20 26h-81q-26 0 -32 -26z" />
    <glyph glyph-name="ecircumflex" unicode="&#xea;" horiz-adv-x="495" 
d="M357 565l-39 53l-61 -53h-104l125 132h102l69 -132h-92zM437 123q-13 -62 -53 -94.5t-102 -32.5h-119q-82 0 -115.5 43t-16.5 124l46 216q28 132 160 132h119q80 0 113 -43t15 -124l-27 -124h-270l-18 -84q-6 -26 20 -26h79q28 0 32 26l5 27h140zM218 371l-11 -54h133
l11 54q6 26 -20 26h-81q-26 0 -32 -26z" />
    <glyph glyph-name="edieresis" unicode="&#xeb;" horiz-adv-x="495" 
d="M168 574l24 112h103l-24 -112h-103zM326 574l24 112h104l-24 -112h-104zM437 123q-13 -62 -53 -94.5t-102 -32.5h-119q-82 0 -115.5 43t-16.5 124l46 216q28 132 160 132h119q80 0 113 -43t15 -124l-27 -124h-270l-18 -84q-6 -26 20 -26h79q28 0 32 26l5 27h140zM218 371
l-11 -54h133l11 54q6 26 -20 26h-81q-26 0 -32 -26z" />
    <glyph glyph-name="igrave" unicode="&#xec;" horiz-adv-x="248" 
d="M-11 0l107 507h144l-107 -507h-144zM33 671l6 26h140l40 -132h-93z" />
    <glyph glyph-name="iacute" unicode="&#xed;" horiz-adv-x="248" 
d="M335 697l-6 -26l-106 -106h-99l66 132h145zM-11 0l107 507h144l-107 -507h-144z" />
    <glyph glyph-name="icircumflex" unicode="&#xee;" horiz-adv-x="247" 
d="M231 565l-39 53l-61 -53h-104l125 132h102l69 -132h-92zM-11 0l107 507h144l-107 -507h-144z" />
    <glyph glyph-name="idieresis" unicode="&#xef;" horiz-adv-x="248" 
d="M44 574l24 112h103l-24 -112h-103zM202 574l24 112h104l-24 -112h-104zM-11 0l107 507h144l-107 -507h-144z" />
    <glyph glyph-name="eth" unicode="&#xf0;" horiz-adv-x="528" 
d="M300 -4h-135q-82 0 -115.5 43t-16.5 124l51 236q25 112 135 112h76q42 0 72 -22l22 -16l6 27q4 23 -3 42l-13 30l-83 -25l15 70l44 13l-29 67h159l10 -25l83 25l-15 -70l-44 -13l10 -23q19 -47 5 -110l-75 -353q-13 -64 -53.5 -98t-105.5 -34zM194 117h94q25 0 31 26
l42 199l-41 31q-19 14 -38 14h-31q-25 0 -31 -26l-47 -218q-6 -26 21 -26z" />
    <glyph glyph-name="ntilde" unicode="&#xf1;" horiz-adv-x="534" 
d="M335 387h-21q-21 0 -44 -14l-67 -38l-71 -335h-144l108 507h130l-2 -39l37 21q41 22 78 22h54q66 0 94.5 -35.5t14.5 -101.5l-79 -374h-144l76 361q6 26 -20 26zM406 651q15 0 18 15l7 31h80l-14 -65q-14 -67 -77 -67h-37q-23 0 -49 13l-55 26q-16 8 -28 8h-8
q-15 0 -18 -16l-6 -31h-80l13 66q6 32 26.5 49.5t51.5 17.5h39q16 0 46 -13l55 -25q18 -9 28 -9h8z" />
    <glyph glyph-name="ograve" unicode="&#xf2;" horiz-adv-x="520" 
d="M297 -4h-140q-78 0 -111 42t-17 120l47 221q28 132 160 132h140q78 0 111 -42t17 -120l-47 -221q-28 -132 -160 -132zM191 117h94q25 0 31 26l47 221q6 26 -21 26h-94q-25 0 -31 -26l-47 -221q-6 -26 21 -26zM176 671l6 26h140l40 -132h-93z" />
    <glyph glyph-name="oacute" unicode="&#xf3;" horiz-adv-x="520" 
d="M469 697l-6 -26l-106 -106h-99l66 132h145zM297 -4h-140q-78 0 -111 42t-17 120l47 221q28 132 160 132h140q78 0 111 -42t17 -120l-47 -221q-28 -132 -160 -132zM191 117h94q25 0 31 26l47 221q6 26 -21 26h-94q-25 0 -31 -26l-47 -221q-6 -26 21 -26z" />
    <glyph glyph-name="ocircumflex" unicode="&#xf4;" horiz-adv-x="520" 
d="M368 565l-39 53l-61 -53h-104l125 132h102l69 -132h-92zM297 -4h-140q-78 0 -111 42t-17 120l47 221q28 132 160 132h140q78 0 111 -42t17 -120l-47 -221q-28 -132 -160 -132zM191 117h94q25 0 31 26l47 221q6 26 -21 26h-94q-25 0 -31 -26l-47 -221q-6 -26 21 -26z" />
    <glyph glyph-name="otilde" unicode="&#xf5;" horiz-adv-x="520" 
d="M297 -4h-140q-78 0 -111 42t-17 120l47 221q28 132 160 132h140q78 0 111 -42t17 -120l-47 -221q-28 -132 -160 -132zM191 117h94q25 0 31 26l47 221q6 26 -21 26h-94q-25 0 -31 -26l-47 -221q-6 -26 21 -26zM402 651q15 0 18 15l7 31h80l-14 -65q-14 -67 -77 -67h-37
q-23 0 -49 13l-55 26q-16 8 -28 8h-8q-15 0 -18 -16l-6 -31h-80l13 66q6 32 26.5 49.5t51.5 17.5h39q16 0 46 -13l55 -25q18 -9 28 -9h8z" />
    <glyph glyph-name="odieresis" unicode="&#xf6;" horiz-adv-x="520" 
d="M185 574l24 112h103l-24 -112h-103zM343 574l24 112h104l-24 -112h-104zM297 -4h-140q-78 0 -111 42t-17 120l47 221q28 132 160 132h140q78 0 111 -42t17 -120l-47 -221q-28 -132 -160 -132zM191 117h94q25 0 31 26l47 221q6 26 -21 26h-94q-25 0 -31 -26l-47 -221
q-6 -26 21 -26z" />
    <glyph glyph-name="divide" unicode="&#xf7;" horiz-adv-x="491" 
d="M73 408h367v-119h-367v119zM196 98v130h121v-130h-121zM196 469v130h121v-130h-121z" />
    <glyph glyph-name="oslash" unicode="&#xf8;" horiz-adv-x="516" 
d="M53 -24h-69l48 58q-37 43 -19 124l47 221q28 132 159 132h139q36 0 62 -9l25 29h69l-49 -59q37 -41 20 -123l-47 -222q-28 -131 -159 -131h-138q-32 0 -64 9zM268 113q28 0 34 28l38 180l-173 -208h101zM196 365l-38 -179l173 208h-100q-28 0 -35 -29z" />
    <glyph glyph-name="ugrave" unicode="&#xf9;" horiz-adv-x="530" 
d="M107 507h144l-76 -361q-6 -26 20 -26h15q17 0 43 14l69 38l71 335h144l-108 -507h-130l2 40l-39 -22q-41 -22 -78 -22h-48q-66 0 -94 35t-14 102zM190 671l6 26h140l40 -132h-93z" />
    <glyph glyph-name="uacute" unicode="&#xfa;" horiz-adv-x="530" 
d="M489 697l-6 -26l-106 -106h-99l66 132h145zM107 507h144l-76 -361q-6 -26 20 -26h15q17 0 43 14l69 38l71 335h144l-108 -507h-130l2 40l-39 -22q-41 -22 -78 -22h-48q-66 0 -94 35t-14 102z" />
    <glyph glyph-name="ucircumflex" unicode="&#xfb;" horiz-adv-x="530" 
d="M386 565l-39 53l-61 -53h-104l125 132h102l69 -132h-92zM107 507h144l-76 -361q-6 -26 20 -26h15q17 0 43 14l69 38l71 335h144l-108 -507h-130l2 40l-39 -22q-41 -22 -78 -22h-48q-66 0 -94 35t-14 102z" />
    <glyph glyph-name="udieresis" unicode="&#xfc;" horiz-adv-x="530" 
d="M197 574l24 112h103l-24 -112h-103zM355 574l24 112h104l-24 -112h-104zM107 507h144l-76 -361q-6 -26 20 -26h15q17 0 43 14l69 38l71 335h144l-108 -507h-130l2 40l-39 -22q-41 -22 -78 -22h-48q-66 0 -94 35t-14 102z" />
    <glyph glyph-name="yacute" unicode="&#xfd;" horiz-adv-x="494" 
d="M69 -190h-110l27 124h76q4 0 8 1t6.5 1.5t5.5 3t5 4t4.5 5t4 5.5t4.5 6.5t4 6.5l10 15l-70 310q-8 34 -1 65l32 150h143l-29 -141q-6 -29 -3 -42l29 -171l103 171q13 22 17 42l29 141h140l-33 -155q-7 -34 -23 -59l-222 -364q-18 -29 -24 -39t-19.5 -28.5t-22 -24
t-23 -14.5t-30.5 -11t-38 -2zM455 697l-6 -26l-106 -106h-99l66 132h145z" />
    <glyph glyph-name="thorn" unicode="&#xfe;" 
d="M161 18l-21 16l-48 -224h-143l188 887h144l-48 -224l28 16q38 22 78 22h54q63 0 92.5 -37t16.5 -100l-54 -256q-13 -59 -51 -90.5t-97 -31.5h-70q-41 0 -69 22zM245 120h33q26 0 32 26l45 215q6 26 -20 26h-21q-21 0 -44 -14l-66 -37l-36 -172l40 -30q19 -14 37 -14z" />
    <glyph glyph-name="ydieresis" unicode="&#xff;" horiz-adv-x="494" 
d="M69 -190h-110l27 124h76q4 0 8 1t6.5 1.5t5.5 3t5 4t4.5 5t4 5.5t4.5 6.5t4 6.5l10 15l-70 310q-8 34 -1 65l32 150h143l-29 -141q-6 -29 -3 -42l29 -171l103 171q13 22 17 42l29 141h140l-33 -155q-7 -34 -23 -59l-222 -364q-18 -29 -24 -39t-19.5 -28.5t-22 -24
t-23 -14.5t-30.5 -11t-38 -2zM167 574l24 112h103l-24 -112h-103zM325 574l24 112h104l-24 -112h-104z" />
    <glyph glyph-name="Amacron" unicode="&#x100;" horiz-adv-x="578" 
d="M145 141l-29 -141h-145l33 160q5 23 25 60l266 477h160l61 -477q5 -37 0 -60l-34 -160h-144l29 141v3h-222v-3zM339 531l-134 -262h160zM257 762l21 97h252l-21 -97h-252z" />
    <glyph glyph-name="amacron" unicode="&#x101;" 
d="M263 18q-38 -22 -78 -22h-54q-62 0 -91.5 37t-16.5 100l54 256q13 59 51 90.5t97 31.5h69q39 0 69 -22l29 -21l14 39h131l-108 -507h-130l2 39zM190 120h21q17 0 43 14l67 37l36 172l-40 30q-19 14 -38 14h-32q-26 0 -32 -26l-45 -215q-6 -26 20 -26zM191 582l21 97h252
l-21 -97h-252z" />
    <glyph glyph-name="Abreve" unicode="&#x102;" horiz-adv-x="578" 
d="M145 141l-29 -141h-145l33 160q5 23 25 60l266 477h160l61 -477q5 -37 0 -60l-34 -160h-144l29 141v3h-222v-3zM339 531l-134 -262h160zM452 890h94l-16 -76q-18 -83 -110 -83h-73q-55 0 -79 26.5t-13 76.5l12 56h92l-12 -58q-5 -21 18 -21h51q20 0 24 21z" />
    <glyph glyph-name="abreve" unicode="&#x103;" 
d="M263 18q-38 -22 -78 -22h-54q-62 0 -91.5 37t-16.5 100l54 256q13 59 51 90.5t97 31.5h69q39 0 69 -22l29 -21l14 39h131l-108 -507h-130l2 39zM190 120h21q17 0 43 14l67 37l36 172l-40 30q-19 14 -38 14h-32q-26 0 -32 -26l-45 -215q-6 -26 20 -26zM392 710h93l-16 -76
q-18 -83 -110 -83h-73q-55 0 -79 26.5t-13 76.5l12 56h92l-12 -58q-5 -21 18 -21h51q19 0 25 21z" />
    <glyph glyph-name="Aogonek" unicode="&#x104;" horiz-adv-x="578" 
d="M145 141l-29 -141h-145l33 160q5 23 25 60l266 477h160l61 -477q5 -37 0 -60l-34 -160h-33l-90 -55q-16 -10 -19 -24l-4 -19q-4 -19 17 -19h87l-15 -73h-99q-51 0 -73 21t-13 61l6 27q8 35 57 62l35 21l29 139v3h-222v-3zM339 531l-134 -262h160z" />
    <glyph glyph-name="aogonek" unicode="&#x105;" 
d="M263 18q-38 -22 -78 -22h-54q-62 0 -91.5 37t-16.5 100l54 256q13 59 51 90.5t97 31.5h69q39 0 69 -22l29 -21l14 39h131l-108 -507h-18l-90 -55q-16 -10 -19 -24l-4 -19q-4 -19 17 -19h87l-15 -73h-99q-51 0 -73 21t-13 61l6 27q8 35 57 62l34 20l2 38zM190 120h21
q17 0 43 14l67 37l36 172l-40 30q-19 14 -38 14h-32q-26 0 -32 -26l-45 -215q-6 -26 20 -26z" />
    <glyph glyph-name="Cacute" unicode="&#x106;" horiz-adv-x="577" 
d="M397 240h150l-23 -107q-14 -67 -56.5 -102t-109.5 -35h-179q-83 0 -118.5 44.5t-17.5 127.5l84 396q14 67 57 102t110 35h179q84 0 118 -44t17 -128l-11 -52h-150l14 68q6 26 -20 26h-134q-26 0 -32 -26l-83 -393q-6 -26 21 -26h134q25 0 31 26zM544 877l-6 -26
l-107 -106h-99l66 132h146z" />
    <glyph glyph-name="cacute" unicode="&#x107;" horiz-adv-x="490" 
d="M455 697l-6 -26l-106 -106h-99l66 132h145zM163 -4q-82 0 -115.5 43t-16.5 124l46 216q28 132 160 132h119q80 0 113.5 -41.5t15.5 -120.5l-5 -22h-140l7 34q6 26 -20 26h-78q-26 0 -32 -26l-45 -215q-6 -26 20 -26h78q26 0 32 26l8 38h140l-12 -56q-28 -132 -156 -132
h-119z" />
    <glyph glyph-name="Ccircumflex" unicode="&#x108;" horiz-adv-x="577" 
d="M397 240h150l-23 -107q-14 -67 -56.5 -102t-109.5 -35h-179q-83 0 -118.5 44.5t-17.5 127.5l84 396q14 67 57 102t110 35h179q84 0 118 -44t17 -128l-11 -52h-150l14 68q6 26 -20 26h-134q-26 0 -32 -26l-83 -393q-6 -26 21 -26h134q25 0 31 26zM451 745l-39 53l-61 -53
h-104l126 132h101l70 -132h-93z" />
    <glyph glyph-name="ccircumflex" unicode="&#x109;" horiz-adv-x="490" 
d="M364 565l-39 53l-61 -53h-104l125 132h102l69 -132h-92zM163 -4q-82 0 -115.5 43t-16.5 124l46 216q28 132 160 132h119q80 0 113.5 -41.5t15.5 -120.5l-5 -22h-140l7 34q6 26 -20 26h-78q-26 0 -32 -26l-45 -215q-6 -26 20 -26h78q26 0 32 26l8 38h140l-12 -56
q-28 -132 -156 -132h-119z" />
    <glyph glyph-name="Cdotaccent" unicode="&#x10a;" horiz-adv-x="577" 
d="M328 749l29 141h130l-30 -141h-129zM397 240h150l-23 -107q-14 -67 -56.5 -102t-109.5 -35h-179q-83 0 -118.5 44.5t-17.5 127.5l84 396q14 67 57 102t110 35h179q84 0 118 -44t17 -128l-11 -52h-150l14 68q6 26 -20 26h-134q-26 0 -32 -26l-83 -393q-6 -26 21 -26h134
q25 0 31 26z" />
    <glyph glyph-name="cdotaccent" unicode="&#x10b;" horiz-adv-x="490" 
d="M163 -4q-82 0 -115.5 43t-16.5 124l46 216q28 132 160 132h119q80 0 113.5 -41.5t15.5 -120.5l-5 -22h-140l7 34q6 26 -20 26h-78q-26 0 -32 -26l-45 -215q-6 -26 20 -26h78q26 0 32 26l8 38h140l-12 -56q-28 -132 -156 -132h-119zM241 568l30 142h130l-30 -142h-130z
" />
    <glyph glyph-name="Ccaron" unicode="&#x10c;" horiz-adv-x="577" 
d="M337 755l-69 132h94l39 -53l61 53h102l-125 -132h-102zM397 240h150l-23 -107q-14 -67 -56.5 -102t-109.5 -35h-179q-83 0 -118.5 44.5t-17.5 127.5l84 396q14 67 57 102t110 35h179q84 0 118 -44t17 -128l-11 -52h-150l14 68q6 26 -20 26h-134q-26 0 -32 -26l-83 -393
q-6 -26 21 -26h134q25 0 31 26z" />
    <glyph glyph-name="ccaron" unicode="&#x10d;" horiz-adv-x="490" 
d="M252 565l-69 132h94l39 -53l61 53h102l-125 -132h-102zM163 -4q-82 0 -115.5 43t-16.5 124l46 216q28 132 160 132h119q80 0 113.5 -41.5t15.5 -120.5l-5 -22h-140l7 34q6 26 -20 26h-78q-26 0 -32 -26l-45 -215q-6 -26 20 -26h78q26 0 32 26l8 38h140l-12 -56
q-28 -132 -156 -132h-119z" />
    <glyph glyph-name="Dcaron" unicode="&#x10e;" horiz-adv-x="618" 
d="M321 755l-69 132h94l39 -53l61 53h102l-125 -132h-102zM1 0l148 697h320q88 0 125 -47t18 -135l-78 -368q-15 -71 -61 -109t-117 -38h-355zM181 132h172q25 0 31 26l81 381q6 26 -21 26h-172z" />
    <glyph glyph-name="dcaron" unicode="&#x10f;" 
d="M759 697l-9 -46l-101 -117h-82l58 163h134zM263 18q-38 -22 -78 -22h-54q-62 0 -91.5 37t-16.5 100l54 256q13 59 51 90.5t97 31.5h69q41 0 69 -22l22 -16l48 224h144l-148 -697h-130l2 39zM190 120h21q20 0 43 14l68 37l35 172l-40 30q-19 14 -38 14h-32q-26 0 -32 -26
l-45 -215q-6 -26 20 -26z" />
    <glyph glyph-name="Dcroat" unicode="&#x110;" horiz-adv-x="624" 
d="M7 0l63 297h-50l27 123h49l59 277h320q88 0 125 -47t18 -135l-78 -368q-15 -71 -61 -109t-117 -38h-355zM359 132q25 0 31 26l81 381q6 26 -21 26h-172l-30 -145h87l-27 -123h-87l-34 -165h172z" />
    <glyph glyph-name="dcroat" unicode="&#x111;" 
d="M325 546l18 88h76l14 63h144l-14 -63h52l-19 -88h-51l-116 -546h-130l2 39l-38 -21q-38 -22 -78 -22h-54q-62 0 -91.5 37t-16.5 100l54 256q13 59 51 90.5t97 31.5h69q41 0 69 -22l22 -16l15 73h-75zM190 120h21q20 0 43 14l68 37l35 172l-40 30q-19 14 -38 14h-32
q-26 0 -32 -26l-45 -215q-6 -26 20 -26z" />
    <glyph glyph-name="Emacron" unicode="&#x112;" horiz-adv-x="548" 
d="M1 0l148 697h442l-28 -130h-290l-30 -145h262l-27 -127h-263l-34 -165h296l-27 -130h-449zM248 762l21 97h252l-21 -97h-252z" />
    <glyph glyph-name="emacron" unicode="&#x113;" horiz-adv-x="495" 
d="M437 123q-13 -62 -53 -94.5t-102 -32.5h-119q-82 0 -115.5 43t-16.5 124l46 216q28 132 160 132h119q80 0 113 -43t15 -124l-27 -124h-270l-18 -84q-6 -26 20 -26h79q28 0 32 26l5 27h140zM218 371l-11 -54h133l11 54q6 26 -20 26h-81q-26 0 -32 -26zM186 582l21 97h252
l-21 -97h-252z" />
    <glyph glyph-name="Ebreve" unicode="&#x114;" horiz-adv-x="548" 
d="M1 0l148 697h442l-28 -130h-290l-30 -145h262l-27 -127h-263l-34 -165h296l-27 -130h-449zM441 890h94l-16 -76q-18 -83 -110 -83h-73q-55 0 -79 26.5t-13 76.5l12 56h92l-12 -58q-4 -21 18 -21h51q19 0 24 21z" />
    <glyph glyph-name="ebreve" unicode="&#x115;" horiz-adv-x="495" 
d="M437 123q-13 -62 -53 -94.5t-102 -32.5h-119q-82 0 -115.5 43t-16.5 124l46 216q28 132 160 132h119q80 0 113 -43t15 -124l-27 -124h-270l-18 -84q-6 -26 20 -26h79q28 0 32 26l5 27h140zM218 371l-11 -54h133l11 54q6 26 -20 26h-81q-26 0 -32 -26zM384 710h93l-16 -76
q-18 -83 -110 -83h-73q-55 0 -79 26.5t-13 76.5l12 56h92l-12 -58q-5 -21 18 -21h51q19 0 25 21z" />
    <glyph glyph-name="Edotaccent" unicode="&#x116;" horiz-adv-x="548" 
d="M300 749l29 141h130l-30 -141h-129zM1 0l148 697h442l-28 -130h-290l-30 -145h262l-27 -127h-263l-34 -165h296l-27 -130h-449z" />
    <glyph glyph-name="edotaccent" unicode="&#x117;" horiz-adv-x="495" 
d="M437 123q-13 -62 -53 -94.5t-102 -32.5h-119q-82 0 -115.5 43t-16.5 124l46 216q28 132 160 132h119q80 0 113 -43t15 -124l-27 -124h-270l-18 -84q-6 -26 20 -26h79q28 0 32 26l5 27h140zM218 371l-11 -54h133l11 54q6 26 -20 26h-81q-26 0 -32 -26zM247 568l30 142h130
l-30 -142h-130z" />
    <glyph glyph-name="Eogonek" unicode="&#x118;" horiz-adv-x="548" 
d="M1 0l148 697h442l-28 -130h-290l-30 -145h262l-27 -127h-263l-34 -165h296l-27 -130h-47l-90 -55q-16 -10 -19 -24l-4 -19q-4 -19 17 -19h87l-15 -73h-99q-51 0 -73 21t-13 61l6 27q8 35 57 62l32 19h-288z" />
    <glyph glyph-name="eogonek" unicode="&#x119;" horiz-adv-x="495" 
d="M337 -190h-109q-46 0 -66 18.5t-12 53.5l6 27q9 40 60 75l17 12h-70q-82 0 -115.5 43t-16.5 124l46 216q28 132 160 132h119q80 0 113 -43t15 -124l-27 -124h-270l-18 -84q-6 -26 20 -26h79q28 0 32 26l5 27h140l-8 -40q-13 -65 -66 -104l-100 -74q-18 -13 -20 -24
l-4 -19q-4 -19 18 -19h87zM218 371l-11 -54h133l11 54q6 26 -20 26h-81q-26 0 -32 -26z" />
    <glyph glyph-name="Ecaron" unicode="&#x11a;" horiz-adv-x="548" 
d="M319 755l-69 132h94l39 -53l61 53h102l-125 -132h-102zM1 0l148 697h442l-28 -130h-290l-30 -145h262l-27 -127h-263l-34 -165h296l-27 -130h-449z" />
    <glyph glyph-name="ecaron" unicode="&#x11b;" horiz-adv-x="495" 
d="M244 565l-69 132h94l39 -53l61 53h102l-125 -132h-102zM437 123q-13 -62 -53 -94.5t-102 -32.5h-119q-82 0 -115.5 43t-16.5 124l46 216q28 132 160 132h119q80 0 113 -43t15 -124l-27 -124h-270l-18 -84q-6 -26 20 -26h79q28 0 32 26l5 27h140zM218 371l-11 -54h133
l11 54q6 26 -20 26h-81q-26 0 -32 -26z" />
    <glyph glyph-name="Gcircumflex" unicode="&#x11c;" horiz-adv-x="588" 
d="M444 745l-39 53l-61 -53h-104l126 132h101l70 -132h-93zM525 133q-13 -67 -56 -102t-110 -35h-179q-83 0 -118.5 44.5t-17.5 127.5l84 396q29 137 167 137h179q84 0 118 -44t17 -128l-11 -52h-150l14 68q6 26 -20 26h-134q-26 0 -32 -26l-83 -393q-6 -26 21 -26h134
q25 0 31 26l19 90h-91l24 120h241z" />
    <glyph glyph-name="gcircumflex" unicode="&#x11d;" 
d="M390 565l-39 53l-61 -53h-104l125 132h102l69 -132h-92zM275 -194h-140q-154 0 -131 147l2 13h140l-4 -20q-6 -26 21 -26h91q25 0 31 26l24 113l-31 -17q-39 -22 -78 -22h-54q-62 0 -91.5 37t-16.5 100l49 232q13 59 51 90.5t97 31.5h69q37 0 69 -22l31 -22l15 40h127
l-122 -579q-26 -122 -149 -122zM203 144h23q20 0 43 12l69 38l31 148l-42 31q-19 14 -38 14h-34q-26 0 -32 -26l-40 -191q-6 -26 20 -26z" />
    <glyph glyph-name="Gbreve" unicode="&#x11e;" horiz-adv-x="588" 
d="M525 133q-13 -67 -56 -102t-110 -35h-179q-83 0 -118.5 44.5t-17.5 127.5l84 396q29 137 167 137h179q84 0 118 -44t17 -128l-11 -52h-150l14 68q6 26 -20 26h-134q-26 0 -32 -26l-83 -393q-6 -26 21 -26h134q25 0 31 26l19 90h-91l24 120h241zM456 890h94l-16 -76
q-18 -83 -110 -83h-73q-55 0 -79 26.5t-13 76.5l12 56h92l-12 -58q-5 -21 18 -21h51q20 0 24 21z" />
    <glyph glyph-name="gbreve" unicode="&#x11f;" 
d="M275 -194h-140q-154 0 -131 147l2 13h140l-4 -20q-6 -26 21 -26h91q25 0 31 26l24 113l-31 -17q-39 -22 -78 -22h-54q-62 0 -91.5 37t-16.5 100l49 232q13 59 51 90.5t97 31.5h69q37 0 69 -22l31 -22l15 40h127l-122 -579q-26 -122 -149 -122zM203 144h23q20 0 43 12
l69 38l31 148l-42 31q-19 14 -38 14h-34q-26 0 -32 -26l-40 -191q-6 -26 20 -26zM405 710h93l-16 -76q-18 -83 -110 -83h-73q-55 0 -79 26.5t-13 76.5l12 56h92l-12 -58q-4 -21 18 -21h51q19 0 25 21z" />
    <glyph glyph-name="Gdotaccent" unicode="&#x120;" horiz-adv-x="588" 
d="M321 749l29 141h130l-30 -141h-129zM525 133q-13 -67 -56 -102t-110 -35h-179q-83 0 -118.5 44.5t-17.5 127.5l84 396q29 137 167 137h179q84 0 118 -44t17 -128l-11 -52h-150l14 68q6 26 -20 26h-134q-26 0 -32 -26l-83 -393q-6 -26 21 -26h134q25 0 31 26l19 90h-91
l24 120h241z" />
    <glyph glyph-name="gdotaccent" unicode="&#x121;" 
d="M275 -194h-140q-154 0 -131 147l2 13h140l-4 -20q-6 -26 21 -26h91q25 0 31 26l24 113l-31 -17q-39 -22 -78 -22h-54q-62 0 -91.5 37t-16.5 100l49 232q13 59 51 90.5t97 31.5h69q37 0 69 -22l31 -22l15 40h127l-122 -579q-26 -122 -149 -122zM203 144h23q20 0 43 12
l69 38l31 148l-42 31q-19 14 -38 14h-34q-26 0 -32 -26l-40 -191q-6 -26 20 -26zM269 568l30 142h130l-30 -142h-130z" />
    <glyph glyph-name="uni0122" unicode="&#x122;" horiz-adv-x="588" 
d="M334 -37l-11 -48l-128 -166h-84l78 214h145zM525 133q-13 -67 -56 -102t-110 -35h-179q-83 0 -118.5 44.5t-17.5 127.5l84 396q29 137 167 137h179q84 0 118 -44t17 -128l-11 -52h-150l14 68q6 26 -20 26h-134q-26 0 -32 -26l-83 -393q-6 -26 21 -26h134q25 0 31 26
l19 90h-91l24 120h241z" />
    <glyph glyph-name="uni0123" unicode="&#x123;" 
d="M247 565l11 48l128 166h84l-78 -214h-145zM275 -194h-140q-154 0 -131 147l2 13h140l-4 -20q-6 -26 21 -26h91q25 0 31 26l24 113l-31 -17q-39 -22 -78 -22h-54q-62 0 -91.5 37t-16.5 100l49 232q13 59 51 90.5t97 31.5h69q37 0 69 -22l31 -22l15 40h127l-122 -579
q-26 -122 -149 -122zM203 144h23q20 0 43 12l69 38l31 148l-42 31q-19 14 -38 14h-34q-26 0 -32 -26l-40 -191q-6 -26 20 -26z" />
    <glyph glyph-name="Hcircumflex" unicode="&#x124;" horiz-adv-x="630" 
d="M351 0l62 293h-198l-62 -293h-152l148 697h152l-58 -273h198l58 273h152l-148 -697h-152zM448 745l-39 53l-61 -53h-104l126 132h101l70 -132h-93z" />
    <glyph glyph-name="hcircumflex" unicode="&#x125;" horiz-adv-x="536" 
d="M259 732l-39 53l-61 -53h-104l125 132h102l69 -132h-92zM271 373l-67 -38l-71 -335h-144l148 697h144l-48 -224l29 16q41 22 78 22h54q66 0 94.5 -35.5t14.5 -101.5l-79 -374h-144l76 361q6 26 -20 26h-21q-21 0 -44 -14z" />
    <glyph glyph-name="Hbar" unicode="&#x126;" horiz-adv-x="640" 
d="M69 536l18 88h52l16 73h152l-16 -73h198l16 73h152l-16 -73h48l-18 -88h-48l-114 -536h-152l62 293h-198l-62 -293h-152l114 536h-52zM249 424h198l24 112h-198z" />
    <glyph glyph-name="hbar" unicode="&#x127;" horiz-adv-x="536" 
d="M55 546l19 88h49l14 63h144l-14 -63h79l-19 -88h-79l-15 -73l29 16q41 22 78 22h54q66 0 94.5 -35.5t14.5 -101.5l-79 -374h-144l76 361q6 26 -20 26h-21q-21 0 -44 -14l-67 -38l-71 -335h-144l116 546h-50z" />
    <glyph glyph-name="Itilde" unicode="&#x128;" horiz-adv-x="280" 
d="M1 0l148 697h152l-148 -697h-152zM321 831q15 0 18 15l7 31h79l-14 -65q-14 -67 -77 -67h-36q-19 0 -49 13l-55 25q-16 8 -28 8h-8q-16 0 -19 -15l-6 -31h-79l13 66q6 32 26.5 49.5t51.5 17.5h39q16 0 46 -13l54 -25q18 -9 29 -9h8z" />
    <glyph glyph-name="itilde" unicode="&#x129;" horiz-adv-x="247" 
d="M-11 0l107 507h144l-107 -507h-144zM256 651q15 0 18 15l7 31h80l-14 -65q-14 -67 -77 -67h-37q-23 0 -49 13l-55 26q-16 8 -28 8h-8q-15 0 -18 -16l-6 -31h-80l13 66q6 32 26.5 49.5t51.5 17.5h39q16 0 46 -13l55 -25q18 -9 28 -9h8z" />
    <glyph glyph-name="Imacron" unicode="&#x12a;" horiz-adv-x="280" 
d="M1 0l148 697h152l-148 -697h-152zM105 772l21 97h252l-21 -97h-252z" />
    <glyph glyph-name="imacron" unicode="&#x12b;" horiz-adv-x="248" 
d="M-11 0l107 507h144l-107 -507h-144zM49 582l21 97h252l-21 -97h-252z" />
    <glyph glyph-name="Iogonek" unicode="&#x12e;" horiz-adv-x="281" 
d="M163 0h-41l-90 -55q-16 -10 -19 -24l-4 -19q-4 -19 17 -19h87l-15 -73h-99q-51 0 -73 21t-13 61l6 27q8 35 57 62l35 21l148 695h152z" />
    <glyph glyph-name="iogonek" unicode="&#x12f;" horiz-adv-x="247" 
d="M142 0h-32l-90 -55q-16 -10 -19 -24l-4 -19q-4 -19 17 -19h87l-15 -73h-99q-51 0 -73 21t-13 61l6 27q8 35 57 62l34 20l107 506h144zM116 566l28 131h148l-28 -131h-148z" />
    <glyph glyph-name="Idotaccent" unicode="&#x130;" horiz-adv-x="280" 
d="M1 0l148 697h152l-148 -697h-152zM172 749l29 141h130l-30 -141h-129z" />
    <glyph glyph-name="dotlessi" unicode="&#x131;" horiz-adv-x="248" 
d="M-11 0l107 507h144l-107 -507h-144z" />
    <glyph glyph-name="IJ" unicode="&#x132;" horiz-adv-x="793" 
d="M1 0l148 697h152l-148 -697h-152zM665 697h152l-120 -564q-14 -67 -56.5 -102t-109.5 -35h-132q-84 0 -119.5 44.5t-16.5 127.5l14 63h150l-17 -77q-6 -26 21 -26h87q25 0 31 26z" />
    <glyph glyph-name="ij" unicode="&#x133;" horiz-adv-x="495" 
d="M-11 0l107 507h144l-107 -507h-144zM107 566l28 131h148l-28 -131h-148zM101 -190l27 124h69q24 0 30 26l116 547h144l-121 -570q-13 -61 -52.5 -94t-100.5 -33h-112zM354 566l28 131h148l-28 -131h-148z" />
    <glyph glyph-name="Jcircumflex" unicode="&#x134;" horiz-adv-x="513" 
d="M404 697h152l-120 -564q-14 -67 -56.5 -102t-109.5 -35h-132q-84 0 -119.5 44.5t-16.5 127.5l14 63h150l-17 -77q-6 -26 21 -26h87q25 0 31 26zM534 745l-39 53l-61 -53h-104l126 132h101l70 -132h-93z" />
    <glyph glyph-name="jcircumflex" unicode="&#x135;" horiz-adv-x="247" 
d="M226 565l-39 53l-61 -53h-104l125 132h102l69 -132h-92zM-146 -190l27 124h69q24 0 30 26l116 547h144l-121 -570q-13 -61 -52.5 -94t-100.5 -33h-112z" />
    <glyph glyph-name="uni0136" unicode="&#x136;" horiz-adv-x="600" 
d="M314 -37l-11 -48l-128 -166h-84l78 214h145zM368 153l-93 142h-60l-62 -295h-152l148 697h152l-58 -275h69l144 120q17 14 24 48l23 107h146l-29 -134q-11 -53 -42 -78l-160 -129l97 -146q24 -38 16 -77l-28 -133h-151l24 115q4 20 -8 38z" />
    <glyph glyph-name="uni0137" unicode="&#x137;" horiz-adv-x="521" 
d="M276 -37l-11 -48l-128 -166h-84l78 214h145zM293 116l-74 97h-41l-45 -213h-144l148 697h144l-76 -361h28l119 69q26 15 30 35l14 67h130l-19 -91q-11 -56 -80 -94l-83 -46l76 -93q20 -25 26 -44t1 -44l-20 -95h-138l16 77q4 17 -12 39z" />
    <glyph glyph-name="kgreenlandic" unicode="&#x138;" horiz-adv-x="521" 
d="M297 113l-79 99h-40l-45 -212h-144l107 507h144l-36 -172h27l118 69q24 14 27 30l15 73h135l-21 -101q-4 -17 -13.5 -31.5t-25 -26t-23.5 -16.5t-23 -13l-77 -43l77 -91q36 -42 28 -82l-21 -103h-134l17 81q3 12 -13 32z" />
    <glyph glyph-name="Lacute" unicode="&#x139;" horiz-adv-x="487" 
d="M396 877l-6 -26l-107 -106h-99l66 132h146zM1 0l148 697h152l-120 -565h267l-28 -132h-419z" />
    <glyph glyph-name="lacute" unicode="&#x13a;" horiz-adv-x="248" 
d="M378 877l-6 -26l-107 -106h-99l66 132h146zM137 697h144l-148 -697h-144z" />
    <glyph glyph-name="uni013B" unicode="&#x13b;" horiz-adv-x="487" 
d="M277 -37l-11 -48l-128 -166h-84l78 214h145zM1 0l148 697h152l-120 -565h267l-28 -132h-419z" />
    <glyph glyph-name="uni013C" unicode="&#x13c;" horiz-adv-x="248" 
d="M127 -37l-11 -48l-128 -166h-84l78 214h145zM137 697h144l-148 -697h-144z" />
    <glyph glyph-name="Lcaron" unicode="&#x13d;" horiz-adv-x="488" 
d="M527 697l-9 -46l-101 -117h-82l58 163h134zM1 0l148 697h152l-120 -565h267l-28 -132h-419z" />
    <glyph glyph-name="lcaron" unicode="&#x13e;" horiz-adv-x="248" 
d="M463 697l-9 -46l-101 -117h-82l58 163h134zM137 697h144l-148 -697h-144z" />
    <glyph glyph-name="Ldot" unicode="&#x13f;" horiz-adv-x="498" 
d="M1 0l148 697h152l-120 -565h267l-28 -132h-419zM323 276l35 165h153l-35 -165h-153z" />
    <glyph glyph-name="ldot" unicode="&#x140;" horiz-adv-x="442" 
d="M137 697h144l-148 -697h-144zM263 276l35 165h153l-35 -165h-153z" />
    <glyph glyph-name="Lslash" unicode="&#x141;" horiz-adv-x="496" 
d="M10 0l61 289l-84 -26l26 120l84 26l61 288h152l-50 -236l144 46l-25 -120l-145 -46l-44 -209h267l-28 -132h-419z" />
    <glyph glyph-name="lslash" unicode="&#x142;" horiz-adv-x="285" 
d="M155 697h144l-46 -217l72 31l-26 -120l-72 -30l-76 -361h-144l62 294l-70 -30l26 120l70 29z" />
    <glyph glyph-name="Nacute" unicode="&#x143;" horiz-adv-x="630" 
d="M562 877l-6 -26l-107 -106h-99l66 132h146zM369 0l-139 410l-86 -410h-143l148 697h137l138 -405l84 405h143l-148 -697h-134z" />
    <glyph glyph-name="nacute" unicode="&#x144;" horiz-adv-x="534" 
d="M487 697l-6 -26l-106 -106h-99l66 132h145zM335 387h-21q-21 0 -44 -14l-67 -38l-71 -335h-144l108 507h130l-2 -39l37 21q41 22 78 22h54q66 0 94.5 -35.5t14.5 -101.5l-79 -374h-144l76 361q6 26 -20 26z" />
    <glyph glyph-name="uni0145" unicode="&#x145;" horiz-adv-x="630" 
d="M330 -37l-11 -48l-128 -166h-84l78 214h145zM369 0l-139 410l-86 -410h-143l148 697h137l138 -405l84 405h143l-148 -697h-134z" />
    <glyph glyph-name="uni0146" unicode="&#x146;" horiz-adv-x="534" 
d="M271 -37l-11 -48l-128 -166h-84l78 214h145zM335 387h-21q-21 0 -44 -14l-67 -38l-71 -335h-144l108 507h130l-2 -39l37 21q41 22 78 22h54q66 0 94.5 -35.5t14.5 -101.5l-79 -374h-144l76 361q6 26 -20 26z" />
    <glyph glyph-name="Ncaron" unicode="&#x147;" horiz-adv-x="630" 
d="M352 755l-69 132h94l39 -53l61 53h102l-125 -132h-102zM369 0l-139 410l-86 -410h-143l148 697h137l138 -405l84 405h143l-148 -697h-134z" />
    <glyph glyph-name="ncaron" unicode="&#x148;" horiz-adv-x="534" 
d="M279 565l-69 132h94l39 -53l61 53h102l-125 -132h-102zM335 387h-21q-21 0 -44 -14l-67 -38l-71 -335h-144l108 507h130l-2 -39l37 21q41 22 78 22h54q66 0 94.5 -35.5t14.5 -101.5l-79 -374h-144l76 361q6 26 -20 26z" />
    <glyph glyph-name="napostrophe" unicode="&#x149;" horiz-adv-x="601" 
d="M245 697l-11 -48l-128 -166h-84l78 214h145zM401 387h-21q-21 0 -44 -14l-67 -38l-71 -335h-144l108 507h130l-2 -39l37 21q41 22 78 22h54q66 0 94.5 -35.5t14.5 -101.5l-79 -374h-144l76 361q6 26 -20 26z" />
    <glyph glyph-name="Omacron" unicode="&#x14c;" horiz-adv-x="609" 
d="M43 168l84 396q14 67 57 102t110 35h193q84 0 118.5 -44.5t16.5 -127.5l-84 -396q-14 -67 -56.5 -102t-109.5 -35h-193q-83 0 -118.5 44.5t-17.5 127.5zM192 152q-6 -26 21 -26h146q25 0 31 26l83 393q6 26 -20 26h-146q-26 0 -32 -26zM282 762l21 97h252l-21 -97h-252z
" />
    <glyph glyph-name="omacron" unicode="&#x14d;" horiz-adv-x="520" 
d="M202 582l21 97h252l-21 -97h-252zM297 -4h-140q-78 0 -111 42t-17 120l47 221q28 132 160 132h140q78 0 111 -42t17 -120l-47 -221q-28 -132 -160 -132zM191 117h94q25 0 31 26l47 221q6 26 -21 26h-94q-25 0 -31 -26l-47 -221q-6 -26 21 -26z" />
    <glyph glyph-name="Obreve" unicode="&#x14e;" horiz-adv-x="609" 
d="M43 168l84 396q14 67 57 102t110 35h193q84 0 118.5 -44.5t16.5 -127.5l-84 -396q-14 -67 -56.5 -102t-109.5 -35h-193q-83 0 -118.5 44.5t-17.5 127.5zM192 152q-6 -26 21 -26h146q25 0 31 26l83 393q6 26 -20 26h-146q-26 0 -32 -26zM489 890h94l-16 -76
q-18 -83 -110 -83h-73q-55 0 -79 26.5t-13 76.5l12 56h92l-12 -58q-4 -21 18 -21h51q19 0 24 21z" />
    <glyph glyph-name="obreve" unicode="&#x14f;" horiz-adv-x="520" 
d="M297 -4h-140q-78 0 -111 42t-17 120l47 221q28 132 160 132h140q78 0 111 -42t17 -120l-47 -221q-28 -132 -160 -132zM191 117h94q25 0 31 26l47 221q6 26 -21 26h-94q-25 0 -31 -26l-47 -221q-6 -26 21 -26zM399 710h93l-16 -76q-18 -83 -110 -83h-73q-55 0 -79 26.5
t-13 76.5l12 56h92l-12 -58q-5 -21 18 -21h51q19 0 25 21z" />
    <glyph glyph-name="Ohungarumlaut" unicode="&#x150;" horiz-adv-x="609" 
d="M482 887l-6 -26l-104 -106h-75l63 132h122zM665 887l-6 -26l-144 -106h-80l103 132h127zM43 168l84 396q14 67 57 102t110 35h193q84 0 118.5 -44.5t16.5 -127.5l-84 -396q-14 -67 -56.5 -102t-109.5 -35h-193q-83 0 -118.5 44.5t-17.5 127.5zM192 152q-6 -26 21 -26h146
q25 0 31 26l83 393q6 26 -20 26h-146q-26 0 -32 -26z" />
    <glyph glyph-name="ohungarumlaut" unicode="&#x151;" horiz-adv-x="520" 
d="M391 697l-6 -26l-104 -106h-75l63 132h122zM574 697l-6 -26l-144 -106h-80l103 132h127zM297 -4h-140q-78 0 -111 42t-17 120l47 221q28 132 160 132h140q78 0 111 -42t17 -120l-47 -221q-28 -132 -160 -132zM191 117h94q25 0 31 26l47 221q6 26 -21 26h-94
q-25 0 -31 -26l-47 -221q-6 -26 21 -26z" />
    <glyph glyph-name="OE" unicode="&#x152;" horiz-adv-x="888" 
d="M127 564q14 67 57 102t110 35h193q19 0 45 -4h416l-28 -130h-290l-30 -145h262l-27 -127h-263l-35 -165h296l-26 -130h-393q-26 -4 -42 -4h-193q-83 0 -118.5 44.5t-17.5 127.5zM359 126q25 0 31 26l83 393q6 26 -20 26h-146q-26 0 -32 -26l-83 -393q-6 -26 21 -26h146z
" />
    <glyph glyph-name="oe" unicode="&#x153;" horiz-adv-x="786" 
d="M726 123q-13 -62 -53 -94.5t-102 -32.5h-89q-77 0 -112 38q-41 -38 -111 -38h-102q-78 0 -111 42t-17 120l47 221q28 132 160 132h102q75 0 108 -38q41 38 110 38h89q80 0 113 -43t15 -124l-27 -124h-269l-19 -84q-6 -26 20 -26h80q25 0 31 26l6 27h139zM191 117h94
q25 0 31 26l47 221q6 26 -21 26h-94q-25 0 -31 -26l-47 -221q-6 -26 21 -26zM508 371l-12 -54h133l12 54q6 26 -20 26h-82q-25 0 -31 -26z" />
    <glyph glyph-name="Racute" unicode="&#x154;" horiz-adv-x="597" 
d="M332 0l-25 262h-98l-56 -262h-152l148 697h319q84 0 118.5 -44.5t16.5 -127.5l-27 -126q-23 -108 -114 -131l33 -268h-163zM435 568h-162l-37 -177h162q25 0 31 26l27 125q6 26 -21 26zM527 877l-6 -26l-107 -106h-99l66 132h146z" />
    <glyph glyph-name="racute" unicode="&#x155;" horiz-adv-x="375" 
d="M403 697l-6 -26l-106 -106h-99l66 132h145zM132 0h-144l108 507h130l-3 -48l39 30q28 22 78 22h79l-26 -124h-72q-25 0 -43 -14l-80 -62z" />
    <glyph glyph-name="uni0156" unicode="&#x156;" horiz-adv-x="597" 
d="M308 -37l-11 -48l-128 -166h-84l78 214h145zM332 0l-25 262h-98l-56 -262h-152l148 697h319q84 0 118.5 -44.5t16.5 -127.5l-27 -126q-23 -108 -114 -131l33 -268h-163zM435 568h-162l-37 -177h162q25 0 31 26l27 125q6 26 -21 26z" />
    <glyph glyph-name="uni0157" unicode="&#x157;" horiz-adv-x="375" 
d="M127 -37l-11 -48l-128 -166h-84l78 214h145zM132 0h-144l108 507h130l-3 -48l39 30q28 22 78 22h79l-26 -124h-72q-25 0 -43 -14l-80 -62z" />
    <glyph glyph-name="Rcaron" unicode="&#x158;" horiz-adv-x="597" 
d="M320 755l-69 132h94l39 -53l61 53h102l-125 -132h-102zM332 0l-25 262h-98l-56 -262h-152l148 697h319q84 0 118.5 -44.5t16.5 -127.5l-27 -126q-23 -108 -114 -131l33 -268h-163zM435 568h-162l-37 -177h162q25 0 31 26l27 125q6 26 -21 26z" />
    <glyph glyph-name="rcaron" unicode="&#x159;" horiz-adv-x="375" 
d="M200 565l-69 132h94l39 -53l61 53h102l-125 -132h-102zM132 0h-144l108 507h130l-3 -48l39 30q28 22 78 22h79l-26 -124h-72q-25 0 -43 -14l-80 -62z" />
    <glyph glyph-name="Sacute" unicode="&#x15a;" horiz-adv-x="580" 
d="M99 465l21 99q14 67 57 102t110 35h180q82 0 116 -41t17 -121l-11 -54h-150l13 63q6 26 -21 26h-133q-25 0 -31 -25l-15 -73q-3 -13 0 -19t16 -10l183 -50q119 -32 96 -141l-26 -123q-29 -137 -165 -137h-194q-82 0 -116.5 41.5t-17.5 120.5l10 48h150l-12 -57
q-6 -26 21 -26h146q25 0 31 26l19 87q5 23 -18 29l-190 52q-45 13 -72 49.5t-14 98.5zM538 877l-6 -26l-107 -106h-99l66 132h146z" />
    <glyph glyph-name="sacute" unicode="&#x15b;" horiz-adv-x="483" 
d="M464 697l-6 -26l-106 -106h-99l66 132h145zM32 164h140l-7 -33q-6 -26 21 -26h84q27 0 31 22l7 35q3 17 -15 21l-142 36q-95 24 -76 117l13 63q23 112 156 112h106q80 0 114 -37.5t18 -109.5l-3 -14h-140l6 26q6 26 -20 26h-69q-27 0 -31 -20l-8 -38q-3 -16 11 -19
l145 -37q46 -12 66 -41t12 -68l-15 -71q-23 -112 -155 -112h-120q-160 0 -133 147z" />
    <glyph glyph-name="Scircumflex" unicode="&#x15c;" horiz-adv-x="580" 
d="M99 465l21 99q14 67 57 102t110 35h180q82 0 116 -41t17 -121l-11 -54h-150l13 63q6 26 -21 26h-133q-25 0 -31 -25l-15 -73q-3 -13 0 -19t16 -10l183 -50q119 -32 96 -141l-26 -123q-29 -137 -165 -137h-194q-82 0 -116.5 41.5t-17.5 120.5l10 48h150l-12 -57
q-6 -26 21 -26h146q25 0 31 26l19 87q5 23 -18 29l-190 52q-45 13 -72 49.5t-14 98.5zM444 745l-39 53l-61 -53h-104l126 132h101l70 -132h-93z" />
    <glyph glyph-name="scircumflex" unicode="&#x15d;" horiz-adv-x="483" 
d="M362 565l-39 53l-61 -53h-104l125 132h102l69 -132h-92zM32 164h140l-7 -33q-6 -26 21 -26h84q27 0 31 22l7 35q3 17 -15 21l-142 36q-95 24 -76 117l13 63q23 112 156 112h106q80 0 114 -37.5t18 -109.5l-3 -14h-140l6 26q6 26 -20 26h-69q-27 0 -31 -20l-8 -38
q-3 -16 11 -19l145 -37q46 -12 66 -41t12 -68l-15 -71q-23 -112 -155 -112h-120q-160 0 -133 147z" />
    <glyph glyph-name="Scedilla" unicode="&#x15e;" horiz-adv-x="581" 
d="M99 465l21 99q14 67 57 102t110 35h180q82 0 116 -41t17 -121l-11 -54h-150l13 63q6 26 -21 26h-133q-25 0 -31 -25l-15 -73q-3 -13 0 -19t16 -10l183 -50q119 -32 96 -141l-26 -123q-29 -137 -165 -137h-75l-16 -29h7q44 0 65 -18t13 -56l-8 -38q-12 -54 -84 -54h-137
l15 70h115q12 0 13 10l1 7q2 11 -8 11h-78q-29 0 -22 23l3 10q3 9 9 21l25 43h-32q-82 0 -116.5 41.5t-17.5 120.5l10 48h150l-12 -57q-6 -26 21 -26h146q25 0 31 26l19 87q5 23 -18 29l-190 52q-45 13 -72 49.5t-14 98.5z" />
    <glyph glyph-name="scedilla" unicode="&#x15f;" horiz-adv-x="483" 
d="M32 164h140l-7 -33q-6 -26 21 -26h84q27 0 31 22l7 35q3 17 -15 21l-142 36q-95 24 -76 117l13 63q23 112 156 112h106q80 0 114 -37.5t18 -109.5l-3 -14h-140l6 26q6 26 -20 26h-69q-27 0 -31 -20l-8 -38q-3 -16 11 -19l145 -37q46 -12 66 -41t12 -68l-15 -71
q-23 -112 -155 -112h-32l-16 -29h7q44 0 65 -18t13 -56l-8 -38q-12 -54 -84 -54h-137l15 70h115q12 0 13 10l1 7q2 11 -8 11h-78q-29 0 -22 23l3 10q3 9 9 21l25 43h-1q-160 0 -133 147z" />
    <glyph glyph-name="Scaron" unicode="&#x160;" horiz-adv-x="580" 
d="M339 755l-69 132h94l39 -53l61 53h102l-125 -132h-102zM99 465l21 99q14 67 57 102t110 35h180q82 0 116 -41t17 -121l-11 -54h-150l13 63q6 26 -21 26h-133q-25 0 -31 -25l-15 -73q-3 -13 0 -19t16 -10l183 -50q119 -32 96 -141l-26 -123q-29 -137 -165 -137h-194
q-82 0 -116.5 41.5t-17.5 120.5l10 48h150l-12 -57q-6 -26 21 -26h146q25 0 31 26l19 87q5 23 -18 29l-190 52q-45 13 -72 49.5t-14 98.5z" />
    <glyph glyph-name="scaron" unicode="&#x161;" horiz-adv-x="483" 
d="M252 565l-69 132h94l39 -53l61 53h102l-125 -132h-102zM32 164h140l-7 -33q-6 -26 21 -26h84q27 0 31 22l7 35q3 17 -15 21l-142 36q-95 24 -76 117l13 63q23 112 156 112h106q80 0 114 -37.5t18 -109.5l-3 -14h-140l6 26q6 26 -20 26h-69q-27 0 -31 -20l-8 -38
q-3 -16 11 -19l145 -37q46 -12 66 -41t12 -68l-15 -71q-23 -112 -155 -112h-120q-160 0 -133 147z" />
    <glyph glyph-name="uni0162" unicode="&#x162;" horiz-adv-x="514" 
d="M555 565h-164l-120 -565h-32l-18 -33h7q44 0 65 -18t13 -56l-8 -38q-12 -54 -84 -54h-137l15 70h115q12 0 13 10l1 7q2 11 -8 11h-78q-29 0 -22 23l3 10q3 9 9 21l28 47h-34l121 565h-167l29 132h482z" />
    <glyph glyph-name="uni0163" unicode="&#x163;" horiz-adv-x="377" 
d="M317 124l-27 -124h-105l-18 -33h7q44 0 65 -18t13 -56l-8 -38q-12 -54 -84 -54h-137l15 70h115q12 0 13 10l1 7q2 11 -8 11h-78q-29 0 -22 23l3 10q3 9 9 21l33 56q-75 27 -52 133l51 237h-71l26 124h71l29 137h144l-29 -137h121l-25 -124h-123l-49 -229q-3 -14 2 -20
t19 -6h99z" />
    <glyph glyph-name="Tcaron" unicode="&#x164;" horiz-adv-x="514" 
d="M294 755l-69 132h94l39 -53l61 53h102l-125 -132h-102zM555 565h-164l-120 -565h-152l121 565h-167l29 132h482z" />
    <glyph glyph-name="tcaron" unicode="&#x165;" horiz-adv-x="376" 
d="M518 697l-9 -46l-101 -117h-82l58 163h134zM316 124l-27 -124h-127q-69 0 -97.5 36t-13.5 106l51 237h-71l26 124h71l29 137h144l-29 -137h121l-25 -124h-123l-49 -229q-3 -14 2 -20t19 -6h99z" />
    <glyph glyph-name="Tbar" unicode="&#x166;" 
d="M563 565h-164l-33 -155h136l-20 -101h-138l-65 -309h-152l66 309h-133l21 101h133l34 155h-167l29 132h482z" />
    <glyph glyph-name="tbar" unicode="&#x167;" horiz-adv-x="379" 
d="M4 233l21 97h68l11 49h-71l26 124h71l29 137h144l-29 -137h121l-25 -124h-123l-11 -49h125l-20 -97h-125l-18 -83q-3 -14 2 -20t19 -6h99l-27 -124h-127q-69 0 -97.5 36t-13.5 106l19 91h-68z" />
    <glyph glyph-name="Utilde" unicode="&#x168;" horiz-adv-x="625" 
d="M514 697h152l-120 -564q-14 -67 -56.5 -102t-109.5 -35h-193q-83 0 -118.5 44.5t-17.5 127.5l113 529h152l-116 -543q-6 -26 21 -26h146q25 0 31 26zM510 831q15 0 18 15l7 31h79l-14 -65q-14 -67 -77 -67h-36q-19 0 -49 13l-55 25q-16 8 -28 8h-8q-16 0 -19 -15l-6 -31
h-79l13 66q6 32 26.5 49.5t51.5 17.5h39q16 0 46 -13l54 -25q18 -9 29 -9h8z" />
    <glyph glyph-name="utilde" unicode="&#x169;" horiz-adv-x="530" 
d="M107 507h144l-76 -361q-6 -26 20 -26h15q17 0 43 14l69 38l71 335h144l-108 -507h-130l2 40l-39 -22q-41 -22 -78 -22h-48q-66 0 -94 35t-14 102zM426 651q15 0 18 15l7 31h80l-14 -65q-14 -67 -77 -67h-37q-23 0 -49 13l-55 26q-16 8 -28 8h-8q-15 0 -18 -16l-6 -31h-80
l13 66q6 32 26.5 49.5t51.5 17.5h39q16 0 46 -13l55 -25q18 -9 28 -9h8z" />
    <glyph glyph-name="Umacron" unicode="&#x16a;" horiz-adv-x="625" 
d="M514 697h152l-120 -564q-14 -67 -56.5 -102t-109.5 -35h-193q-83 0 -118.5 44.5t-17.5 127.5l113 529h152l-116 -543q-6 -26 21 -26h146q25 0 31 26zM298 762l21 97h252l-21 -97h-252z" />
    <glyph glyph-name="umacron" unicode="&#x16b;" horiz-adv-x="530" 
d="M107 507h144l-76 -361q-6 -26 20 -26h15q17 0 43 14l69 38l71 335h144l-108 -507h-130l2 40l-39 -22q-41 -22 -78 -22h-48q-66 0 -94 35t-14 102zM215 582l21 97h252l-21 -97h-252z" />
    <glyph glyph-name="Ubreve" unicode="&#x16c;" horiz-adv-x="625" 
d="M514 697h152l-120 -564q-14 -67 -56.5 -102t-109.5 -35h-193q-83 0 -118.5 44.5t-17.5 127.5l113 529h152l-116 -543q-6 -26 21 -26h146q25 0 31 26zM495 890h94l-16 -76q-18 -83 -110 -83h-73q-55 0 -79 26.5t-13 76.5l12 56h92l-12 -58q-4 -21 18 -21h51q19 0 24 21z
" />
    <glyph glyph-name="ubreve" unicode="&#x16d;" horiz-adv-x="530" 
d="M107 507h144l-76 -361q-6 -26 20 -26h15q17 0 43 14l69 38l71 335h144l-108 -507h-130l2 40l-39 -22q-41 -22 -78 -22h-48q-66 0 -94 35t-14 102zM404 710h93l-16 -76q-18 -83 -110 -83h-73q-55 0 -79 26.5t-13 76.5l12 56h92l-12 -58q-4 -21 18 -21h51q19 0 25 21z" />
    <glyph glyph-name="Uring" unicode="&#x16e;" horiz-adv-x="625" 
d="M451 732h-48q-97 0 -80 91l8 42q14 75 101 75h48q49 0 70 -22t12 -63l-10 -47q-17 -76 -101 -76zM414 802h41q20 0 23 18l6 32q3 18 -15 18h-41q-16 0 -21 -18l-7 -32q-4 -18 14 -18zM514 697h152l-120 -564q-14 -67 -56.5 -102t-109.5 -35h-193q-83 0 -118.5 44.5
t-17.5 127.5l113 529h152l-116 -543q-6 -26 21 -26h146q25 0 31 26z" />
    <glyph glyph-name="uring" unicode="&#x16f;" horiz-adv-x="530" 
d="M361 542h-48q-97 0 -80 91l8 42q14 75 101 75h48q49 0 70 -22t12 -63l-10 -47q-17 -76 -101 -76zM324 612h41q20 0 23 18l6 32q3 18 -15 18h-41q-16 0 -21 -18l-7 -32q-4 -18 14 -18zM107 507h144l-76 -361q-6 -26 20 -26h15q17 0 43 14l69 38l71 335h144l-108 -507h-130
l2 40l-39 -22q-41 -22 -78 -22h-48q-66 0 -94 35t-14 102z" />
    <glyph glyph-name="Uhungarumlaut" unicode="&#x170;" horiz-adv-x="625" 
d="M514 697h152l-120 -564q-14 -67 -56.5 -102t-109.5 -35h-193q-83 0 -118.5 44.5t-17.5 127.5l113 529h152l-116 -543q-6 -26 21 -26h146q25 0 31 26zM496 887l-6 -26l-104 -106h-75l63 132h122zM679 887l-6 -26l-144 -106h-80l103 132h127z" />
    <glyph glyph-name="uhungarumlaut" unicode="&#x171;" horiz-adv-x="530" 
d="M107 507h144l-76 -361q-6 -26 20 -26h15q17 0 43 14l69 38l71 335h144l-108 -507h-130l2 40l-39 -22q-41 -22 -78 -22h-48q-66 0 -94 35t-14 102zM401 697l-6 -26l-104 -106h-75l63 132h122zM584 697l-6 -26l-144 -106h-80l103 132h127z" />
    <glyph glyph-name="Uogonek" unicode="&#x172;" horiz-adv-x="625" 
d="M439 -190h-109q-46 0 -66 18.5t-12 53.5l6 27q8 39 60 75l17 12h-148q-83 0 -118.5 44.5t-17.5 127.5l113 529h152l-116 -543q-6 -26 21 -26h146q25 0 31 26l116 543h152l-120 -564q-15 -72 -62 -106l-111 -82q-18 -13 -20 -24l-4 -19q-4 -19 17 -19h88z" />
    <glyph glyph-name="uogonek" unicode="&#x173;" horiz-adv-x="530" 
d="M107 507h144l-76 -361q-6 -26 20 -26h15q17 0 43 14l69 38l71 335h144l-108 -507h-18l-90 -55q-16 -10 -19 -24l-4 -19q-4 -19 17 -19h87l-15 -73h-99q-51 0 -73 21t-13 61l6 27q8 35 57 62l34 20l2 39l-39 -22q-41 -22 -78 -22h-48q-66 0 -94 35t-14 102z" />
    <glyph glyph-name="Wcircumflex" unicode="&#x174;" horiz-adv-x="800" 
d="M542 745l-39 53l-61 -53h-104l126 132h101l70 -132h-93zM556 697l-30 -141q-7 -28 -7 -44l7 -296l134 296q9 19 14 44l30 141h147l-34 -160q-2 -11 -24 -60l-229 -477h-151l-17 268l-129 -268h-152l-27 477q-3 32 2 60l34 160h144l-30 -141q-6 -29 -6 -44l8 -296l132 296
q11 24 15 44l30 141h139z" />
    <glyph glyph-name="wcircumflex" unicode="&#x175;" horiz-adv-x="737" 
d="M476 565l-39 53l-61 -53h-104l125 132h102l69 -132h-92zM103 0l-52 293q-7 37 -2 61l33 153h140l-29 -140q-5 -23 -3 -43l21 -158l90 159q15 28 18 42l30 140h140l-30 -140q-5 -27 -3 -42l23 -159l90 159q15 27 19 47l28 135h136l-31 -149q-7 -32 -26 -64l-178 -294h-143
l-29 165l-99 -165h-143z" />
    <glyph glyph-name="Ycircumflex" unicode="&#x176;" horiz-adv-x="555" 
d="M298 0h-151l51 241l-106 256q-11 26 -3 60l30 140h147l-26 -121q-6 -29 0 -44l62 -154l122 144q17 18 22 44l28 131h147l-30 -140q-10 -47 -30 -70l-214 -253zM426 745l-39 53l-61 -53h-104l126 132h101l70 -132h-93z" />
    <glyph glyph-name="ycircumflex" unicode="&#x177;" horiz-adv-x="494" 
d="M69 -190h-110l27 124h76q4 0 8 1t6.5 1.5t5.5 3t5 4t4.5 5t4 5.5t4.5 6.5t4 6.5l10 15l-70 310q-8 34 -1 65l32 150h143l-29 -141q-6 -29 -3 -42l29 -171l103 171q13 22 17 42l29 141h140l-33 -155q-7 -34 -23 -59l-222 -364q-18 -29 -24 -39t-19.5 -28.5t-22 -24
t-23 -14.5t-30.5 -11t-38 -2zM347 565l-39 53l-61 -53h-104l125 132h102l69 -132h-92z" />
    <glyph glyph-name="Ydieresis" unicode="&#x178;" horiz-adv-x="555" 
d="M298 0h-151l51 241l-106 256q-11 26 -3 60l30 140h147l-26 -121q-6 -29 0 -44l62 -154l122 144q17 18 22 44l28 131h147l-30 -140q-10 -47 -30 -70l-214 -253zM242 754l24 112h103l-24 -112h-103zM400 754l24 112h104l-24 -112h-104z" />
    <glyph glyph-name="Zacute" unicode="&#x179;" horiz-adv-x="550" 
d="M462 0h-501l28 132l395 433h-284l29 132h471l-28 -132l-394 -433h312zM514 877l-6 -26l-107 -106h-99l66 132h146z" />
    <glyph glyph-name="zacute" unicode="&#x17a;" horiz-adv-x="480" 
d="M442 697l-6 -26l-106 -106h-99l66 132h145zM182 122h233l-26 -122h-422l22 109l281 276h-213l26 122h403l-22 -109z" />
    <glyph glyph-name="Zdotaccent" unicode="&#x17b;" horiz-adv-x="550" 
d="M300 749l29 141h130l-30 -141h-129zM462 0h-501l28 132l395 433h-284l29 132h471l-28 -132l-394 -433h312z" />
    <glyph glyph-name="zdotaccent" unicode="&#x17c;" horiz-adv-x="480" 
d="M182 122h233l-26 -122h-422l22 109l281 276h-213l26 122h403l-22 -109zM221 568l30 142h130l-30 -142h-130z" />
    <glyph glyph-name="Zcaron" unicode="&#x17d;" horiz-adv-x="550" 
d="M317 755l-69 132h94l39 -53l61 53h102l-125 -132h-102zM462 0h-501l28 132l395 433h-284l29 132h471l-28 -132l-394 -433h312z" />
    <glyph glyph-name="zcaron" unicode="&#x17e;" horiz-adv-x="480" 
d="M235 565l-69 132h94l39 -53l61 53h102l-125 -132h-102zM182 122h233l-26 -122h-422l22 109l281 276h-213l26 122h403l-22 -109z" />
    <glyph glyph-name="longs" unicode="&#x17f;" horiz-adv-x="302" 
d="M127 -190h-144l120 569h-70l26 124h70l13 62q28 132 161 132h137l-26 -124h-100q-25 0 -31 -26z" />
    <glyph glyph-name="florin" unicode="&#x192;" horiz-adv-x="392" 
d="M197 -48q-14 -77 -52.5 -109.5t-114.5 -32.5h-92l21 124h65q16 0 22 5.5t8 20.5l59 339h-90l22 124h89l23 132q13 76 52 109t115 33h120l-22 -124h-92q-16 0 -22 -6t-8 -20l-21 -124h113l-22 -124h-113z" />
    <glyph glyph-name="uni0218" unicode="&#x218;" horiz-adv-x="580" 
d="M317 -37l-11 -48l-128 -166h-84l78 214h145zM99 465l21 99q14 67 57 102t110 35h180q82 0 116 -41t17 -121l-11 -54h-150l13 63q6 26 -21 26h-133q-25 0 -31 -25l-15 -73q-3 -13 0 -19t16 -10l183 -50q119 -32 96 -141l-26 -123q-29 -137 -165 -137h-194
q-82 0 -116.5 41.5t-17.5 120.5l10 48h150l-12 -57q-6 -26 21 -26h146q25 0 31 26l19 87q5 23 -18 29l-190 52q-45 13 -72 49.5t-14 98.5z" />
    <glyph glyph-name="uni0219" unicode="&#x219;" horiz-adv-x="483" 
d="M278 -37l-11 -48l-128 -166h-84l78 214h145zM32 164h140l-7 -33q-6 -26 21 -26h84q27 0 31 22l7 35q3 17 -15 21l-142 36q-95 24 -76 117l13 63q23 112 156 112h106q80 0 114 -37.5t18 -109.5l-3 -14h-140l6 26q6 26 -20 26h-69q-27 0 -31 -20l-8 -38q-3 -16 11 -19
l145 -37q46 -12 66 -41t12 -68l-15 -71q-23 -112 -155 -112h-120q-160 0 -133 147z" />
    <glyph glyph-name="uni021A" unicode="&#x21a;" horiz-adv-x="514" 
d="M261 -37l-11 -48l-128 -166h-84l78 214h145zM555 565h-164l-120 -565h-152l121 565h-167l29 132h482z" />
    <glyph glyph-name="uni021B" unicode="&#x21b;" horiz-adv-x="376" 
d="M210 -37l-11 -48l-128 -166h-84l78 214h145zM316 124l-27 -124h-127q-69 0 -97.5 36t-13.5 106l51 237h-71l26 124h71l29 137h144l-29 -137h121l-25 -124h-123l-49 -229q-3 -14 2 -20t19 -6h99z" />
    <glyph glyph-name="uni0237" unicode="&#x237;" horiz-adv-x="247" 
d="M-146 -190l27 124h69q24 0 30 26l116 547h144l-121 -570q-13 -61 -52.5 -94t-100.5 -33h-112z" />
    <glyph glyph-name="circumflex" unicode="&#x2c6;" horiz-adv-x="354" 
d="M286 565l-39 53l-61 -53h-104l125 132h102l69 -132h-92z" />
    <glyph glyph-name="caron" unicode="&#x2c7;" horiz-adv-x="354" 
d="M179 565l-69 132h94l39 -53l61 53h102l-125 -132h-102z" />
    <glyph glyph-name="uni02C9" unicode="&#x2c9;" horiz-adv-x="312" 
d="M86 582l21 97h252l-21 -97h-252z" />
    <glyph glyph-name="breve" unicode="&#x2d8;" horiz-adv-x="339" 
d="M310 710h93l-16 -76q-18 -83 -110 -83h-73q-55 0 -79 26.5t-13 76.5l12 56h92l-12 -58q-5 -21 18 -21h51q19 0 25 21z" />
    <glyph glyph-name="dotaccent" unicode="&#x2d9;" horiz-adv-x="214" 
d="M96 568l30 142h130l-30 -142h-130z" />
    <glyph glyph-name="ring" unicode="&#x2da;" horiz-adv-x="294" 
d="M241 542h-48q-97 0 -80 91l8 42q14 75 101 75h48q49 0 70 -22t12 -63l-10 -47q-17 -76 -101 -76zM204 612h41q20 0 23 18l6 32q3 18 -15 18h-41q-17 0 -21 -18l-7 -32q-5 -18 14 -18z" />
    <glyph glyph-name="ogonek" unicode="&#x2db;" horiz-adv-x="262" 
d="M195 45h35l9 -41l-97 -59q-16 -10 -19 -24l-4 -19q-4 -19 17 -19h87l-15 -73h-99q-51 0 -73 21t-13 61l6 27q8 35 57 62z" />
    <glyph glyph-name="tilde" unicode="&#x2dc;" horiz-adv-x="404" 
d="M350 651q15 0 18 15l7 31h80l-14 -65q-14 -67 -77 -67h-37q-23 0 -49 13l-55 26q-16 8 -28 8h-8q-15 0 -18 -16l-6 -31h-80l13 66q6 32 26.5 49.5t51.5 17.5h39q16 0 46 -13l55 -25q18 -9 28 -9h8z" />
    <glyph glyph-name="hungarumlaut" unicode="&#x2dd;" horiz-adv-x="401" 
d="M269 697l-6 -26l-104 -106h-75l63 132h122zM452 697l-6 -26l-144 -106h-80l103 132h127z" />
    <glyph glyph-name="uni0394" unicode="&#x394;" horiz-adv-x="595" 
d="M-27 0l333 697h154l37 -697h-524zM342 498l-163 -372h169z" />
    <glyph glyph-name="uni03A9" unicode="&#x3a9;" horiz-adv-x="627" 
d="M217 119l-26 -119h-208l23 109h64q-35 63 -13 168l61 287q14 67 56.5 102t109.5 35h193q83 0 118.5 -44.5t17.5 -127.5l-61 -282q-18 -84 -72 -138h60l-24 -109h-209l26 119q26 7 39 30.5t25 77.5l67 318q6 26 -21 26h-146q-25 0 -31 -26l-67 -318q-12 -51 -9 -76t27 -32
z" />
    <glyph glyph-name="uni03BC" unicode="&#x3bc;" horiz-adv-x="533" 
d="M113 -92l-21 -98h-143l147 697h144l-76 -361q-6 -26 20 -26h15q17 0 43 14l69 38l71 335h144l-108 -507h-130l2 40l-39 -22q-41 -22 -78 -22h-47q-7 -59 -13 -88z" />
    <glyph glyph-name="pi" unicode="&#x3c0;" horiz-adv-x="612" 
d="M315 0l81 383h-146l-81 -383h-144l81 383h-65l26 124h564l-25 -124h-66l-82 -383h-143z" />
    <glyph glyph-name="Wgrave" unicode="&#x1e80;" horiz-adv-x="800" 
d="M346 851l6 26h140l40 -132h-93zM556 697l-30 -141q-7 -28 -7 -44l7 -296l134 296q9 19 14 44l30 141h147l-34 -160q-2 -11 -24 -60l-229 -477h-151l-17 268l-129 -268h-152l-27 477q-3 32 2 60l34 160h144l-30 -141q-6 -29 -6 -44l8 -296l132 296q11 24 15 44l30 141h139
z" />
    <glyph glyph-name="wgrave" unicode="&#x1e81;" horiz-adv-x="737" 
d="M103 0l-52 293q-7 37 -2 61l33 153h140l-29 -140q-5 -23 -3 -43l21 -158l90 159q15 28 18 42l30 140h140l-30 -140q-5 -27 -3 -42l23 -159l90 159q15 27 19 47l28 135h136l-31 -149q-7 -32 -26 -64l-178 -294h-143l-29 165l-99 -165h-143zM282 671l6 26h140l40 -132h-93z
" />
    <glyph glyph-name="Wacute" unicode="&#x1e82;" horiz-adv-x="800" 
d="M648 877l-6 -26l-107 -106h-99l66 132h146zM556 697l-30 -141q-7 -28 -7 -44l7 -296l134 296q9 19 14 44l30 141h147l-34 -160q-2 -11 -24 -60l-229 -477h-151l-17 268l-129 -268h-152l-27 477q-3 32 2 60l34 160h144l-30 -141q-6 -29 -6 -44l8 -296l132 296q11 24 15 44
l30 141h139z" />
    <glyph glyph-name="wacute" unicode="&#x1e83;" horiz-adv-x="737" 
d="M582 697l-6 -26l-106 -106h-99l66 132h145zM103 0l-52 293q-7 37 -2 61l33 153h140l-29 -140q-5 -23 -3 -43l21 -158l90 159q15 28 18 42l30 140h140l-30 -140q-5 -27 -3 -42l23 -159l90 159q15 27 19 47l28 135h136l-31 -149q-7 -32 -26 -64l-178 -294h-143l-29 165
l-99 -165h-143z" />
    <glyph glyph-name="Wdieresis" unicode="&#x1e84;" horiz-adv-x="800" 
d="M556 697l-30 -141q-7 -28 -7 -44l7 -296l134 296q9 19 14 44l30 141h147l-34 -160q-2 -11 -24 -60l-229 -477h-151l-17 268l-129 -268h-152l-27 477q-3 32 2 60l34 160h144l-30 -141q-6 -29 -6 -44l8 -296l132 296q11 24 15 44l30 141h139zM358 754l24 112h103l-24 -112
h-103zM516 754l24 112h104l-24 -112h-104z" />
    <glyph glyph-name="wdieresis" unicode="&#x1e85;" horiz-adv-x="737" 
d="M290 574l24 112h103l-24 -112h-103zM448 574l24 112h104l-24 -112h-104zM103 0l-52 293q-7 37 -2 61l33 153h140l-29 -140q-5 -23 -3 -43l21 -158l90 159q15 28 18 42l30 140h140l-30 -140q-5 -27 -3 -42l23 -159l90 159q15 27 19 47l28 135h136l-31 -149q-7 -32 -26 -64
l-178 -294h-143l-29 165l-99 -165h-143z" />
    <glyph glyph-name="endash" unicode="&#x2013;" horiz-adv-x="470" 
d="M62 345h367l-26 -119h-367z" />
    <glyph glyph-name="emdash" unicode="&#x2014;" horiz-adv-x="817" 
d="M62 345h713l-26 -118h-713z" />
    <glyph glyph-name="quoteleft" unicode="&#x2018;" horiz-adv-x="252" 
d="M61 431l10 49l147 217h86l-97 -266h-146z" />
    <glyph glyph-name="quoteright" unicode="&#x2019;" horiz-adv-x="248" 
d="M309 697l-10 -49l-147 -217h-86l97 266h146z" />
    <glyph glyph-name="quotesinglbase" unicode="&#x201a;" horiz-adv-x="251" 
d="M182 165l-10 -49l-147 -217h-86l97 266h146z" />
    <glyph glyph-name="quotedblleft" unicode="&#x201c;" horiz-adv-x="451" 
d="M61 431l10 49l147 217h86l-97 -266h-146zM260 431l10 49l147 217h86l-97 -266h-146z" />
    <glyph glyph-name="quotedblright" unicode="&#x201d;" horiz-adv-x="447" 
d="M310 697l-11 -49l-147 -217h-86l97 266h147zM509 697l-11 -49l-147 -217h-86l97 266h147z" />
    <glyph glyph-name="quotedblbase" unicode="&#x201e;" horiz-adv-x="450" 
d="M183 165l-11 -49l-147 -217h-86l97 266h147zM382 165l-11 -49l-147 -217h-86l97 266h147z" />
    <glyph glyph-name="dagger" unicode="&#x2020;" horiz-adv-x="419" 
d="M297 340l-94 -340h-113l50 340l3 16l35 88h-121l23 110h117l8 94l11 49h157l-11 -49l-32 -94h117l-23 -110h-120l-4 -88z" />
    <glyph glyph-name="daggerdbl" unicode="&#x2021;" horiz-adv-x="444" 
d="M249 49l-11 -49h-157l10 49l32 94h-117l24 110h120l4 89l2 14l35 88h-121l23 110h117l8 94l11 49h157l-11 -49l-32 -94h117l-23 -110h-120l-3 -88l-4 -15l-35 -88h122l-24 -110h-116z" />
    <glyph glyph-name="bullet" unicode="&#x2022;" horiz-adv-x="376" 
d="M47 174l52 246h229l-52 -246h-229z" />
    <glyph glyph-name="ellipsis" unicode="&#x2026;" horiz-adv-x="746" 
d="M-12 0l35 165h153l-35 -165h-153zM482 0l34 165h153l-35 -165h-152zM235 0l35 165h153l-35 -165h-153z" />
    <glyph glyph-name="perthousand" unicode="&#x2030;" horiz-adv-x="1123" 
d="M777 100l40 186q9 41 36.5 63.5t68.5 22.5h98q49 0 70 -26.5t10 -74.5l-40 -186q-18 -87 -105 -87h-98q-49 0 -70 26t-10 76zM921 268l-37 -167q-3 -14 12 -14h46q12 0 15 14l36 167q3 14 -10 14h-46q-13 0 -16 -14zM441 100l40 186q9 41 36.5 63.5t68.5 22.5h98
q49 0 70 -26.5t10 -74.5l-40 -186q-18 -87 -105 -87h-98q-49 0 -70 26t-10 76zM585 268l-37 -167q-3 -14 12 -14h46q12 0 15 14l36 167q3 14 -10 14h-46q-13 0 -16 -14zM68 428l40 186q9 41 36.5 63.5t68.5 22.5h98q49 0 70 -26.5t10 -74.5l-40 -186q-18 -87 -105 -87h-98
q-49 0 -70 26t-10 76zM212 596l-37 -167q-3 -14 12 -14h46q12 0 15 14l36 167q3 14 -10 14h-46q-13 0 -16 -14zM182 -4h-108l575 705h109z" />
    <glyph glyph-name="guilsinglleft" unicode="&#x2039;" horiz-adv-x="330" 
d="M244 107h-145l-61 84q-1 2 -5 7.5t-5.5 7t-4 6.5t-3.5 8t-2 8t0 10.5t2 11.5l12 53q3 14 11 26t11.5 15.5t19.5 17.5l97 84h157l-176 -154q-12 -10 -14 -18l-1 -4q-2 -10 3 -17z" />
    <glyph glyph-name="guilsinglright" unicode="&#x203a;" horiz-adv-x="328" 
d="M76 446h146l60 -84q1 -2 5 -7.5t5.5 -7t4 -6.5t3.5 -8t2 -8t0 -10.5t-2 -11.5l-12 -53q-3 -14 -10 -25.5t-12 -16t-19 -17.5l-97 -84h-158l176 154q12 10 14 18l1 4q2 10 -3 17z" />
    <glyph glyph-name="fraction" unicode="&#x2044;" horiz-adv-x="199" 
d="M-123 -4h-108l575 705h109z" />
    <glyph glyph-name="zero.superior" unicode="&#x2070;" horiz-adv-x="353" 
d="M104 579l40 186q9 41 36.5 63.5t68.5 22.5h98q49 0 70 -26.5t10 -74.5l-40 -186q-18 -87 -105 -87h-98q-49 0 -70 26t-10 76zM248 747l-37 -167q-3 -14 12 -14h46q12 0 15 14l36 167q3 14 -10 14h-46q-13 0 -16 -14z" />
    <glyph glyph-name="four.superior" unicode="&#x2074;" horiz-adv-x="350" 
d="M379 544h-43l-14 -65h-101l14 65h-166l17 82l220 222h94l-47 -222h43zM252 626l18 81l-81 -81h63z" />
    <glyph glyph-name="five.superior" unicode="&#x2075;" horiz-adv-x="329" 
d="M272 477h-90q-98 0 -80 99l2 11h103l-2 -9q-3 -14 11 -14h40q13 0 16 14l9 38q3 13 -11 13h-140l46 219h242l-19 -89h-141l-10 -45h57q49 0 70 -26t11 -73l-12 -55q-18 -83 -102 -83z" />
    <glyph glyph-name="six.superior" unicode="&#x2076;" horiz-adv-x="342" 
d="M388 559q-8 -40 -34.5 -61t-65.5 -21h-92q-101 0 -80 102l40 190q17 82 100 82h91q101 0 81 -97l-4 -20h-103l3 17q3 14 -11 14h-37q-13 0 -16 -14l-12 -52h76q46 0 65 -23t10 -65zM234 564h36q13 0 16 14l6 22q3 14 -12 14h-49l-8 -36q-3 -14 11 -14z" />
    <glyph glyph-name="seven.superior" unicode="&#x2077;" horiz-adv-x="317" 
d="M216 479h-113l182 278h-172l19 91h285l-17 -82z" />
    <glyph glyph-name="eight.superior" unicode="&#x2078;" horiz-adv-x="343" 
d="M279 477h-108q-44 0 -63 23.5t-9 68.5l11 53q9 41 55 52q-30 14 -20 63l8 38q16 76 91 76h95q43 0 62 -23.5t10 -67.5l-9 -42q-8 -37 -42 -47q36 -15 26 -64l-12 -58q-15 -72 -95 -72zM247 751l-6 -26q-3 -15 13 -15h30q15 0 18 14l7 26q4 16 -13 16h-31q-15 0 -18 -15z
M208 610l-7 -33q-3 -16 12 -16h48q15 0 18 15l7 34q3 15 -13 15h-47q-15 0 -18 -15z" />
    <glyph glyph-name="nine.superior" unicode="&#x2079;" horiz-adv-x="341" 
d="M273 477h-91q-49 0 -70 24.5t-11 72.5l4 18h103l-3 -15q-3 -14 11 -14h37q13 0 16 14l12 54h-76q-46 0 -65 23t-10 65l11 50q18 82 100 82h92q101 0 80 -102l-40 -190q-17 -82 -100 -82zM249 717h49l8 35q4 14 -11 14h-36q-14 0 -17 -14l-5 -22q-3 -13 12 -13z" />
    <glyph glyph-name="parenleft.superior" unicode="&#x207d;" horiz-adv-x="210" 
d="M99 542l56 263q8 39 35 60.5t67 21.5h54l-20 -90h-25q-6 0 -7 -7l-55 -253q-1 -7 6 -7h25l-19 -90h-34q-50 0 -71.5 26.5t-11.5 75.5z" />
    <glyph glyph-name="parenright.superior" unicode="&#x207e;" horiz-adv-x="209" 
d="M277 785l-56 -263q-8 -39 -35 -60.5t-67 -21.5h-54l20 90h25q6 0 7 7l54 253q3 7 -5 7h-25l19 90h34q50 0 71.5 -26.5t11.5 -75.5z" />
    <glyph glyph-name="zero.inferior" unicode="&#x2080;" horiz-adv-x="354" 
d="M-29 -50l40 186q9 41 36.5 63.5t68.5 22.5h98q49 0 70 -26.5t10 -74.5l-40 -186q-18 -87 -105 -87h-98q-49 0 -70 26t-10 76zM115 118l-37 -167q-3 -14 12 -14h46q12 0 15 14l36 167q3 14 -10 14h-46q-13 0 -16 -14z" />
    <glyph glyph-name="one.inferior" unicode="&#x2081;" horiz-adv-x="322" 
d="M-45 -59h90l39 187h-90l19 91h195l-58 -278h85l-20 -91h-280z" />
    <glyph glyph-name="two.inferior" unicode="&#x2082;" horiz-adv-x="346" 
d="M100 118l-7 -26h-102l9 44q8 41 35.5 63.5t69.5 22.5h87q50 0 70.5 -26.5t9.5 -74.5l-11 -52q-12 -55 -77 -73l-106 -30q-11 -2 -14 -16l-2 -9h178l-18 -91h-283l23 114q11 57 87 78l94 26q13 3 16 18l7 32q5 14 -11 14h-40q-12 0 -15 -14z" />
    <glyph glyph-name="three.inferior" unicode="&#x2083;" horiz-adv-x="344" 
d="M142 -152h-101q-47 0 -68.5 24.5t-10.5 69.5l5 20h103l-3 -12q-3 -14 11 -14h50q13 0 16 14l8 38q3 13 -10 13h-74l16 75h67q13 0 16 13l6 30q3 14 -10 14h-41q-13 0 -16 -14l-3 -11h-102l6 29q8 41 35 63t66 22h92q48 0 69 -26t11 -73l-6 -28q-8 -40 -51 -52
q44 -15 32 -70l-11 -54q-15 -71 -102 -71z" />
    <glyph glyph-name="four.inferior" unicode="&#x2084;" horiz-adv-x="349" 
d="M245 -85h-43l-14 -65h-101l14 65h-166l17 82l220 222h94l-47 -222h43zM118 -3l18 81l-81 -81h63z" />
    <glyph glyph-name="five.inferior" unicode="&#x2085;" horiz-adv-x="329" 
d="M139 -152h-90q-98 0 -80 99l2 11h103l-2 -9q-3 -14 11 -14h40q13 0 16 14l9 38q3 13 -11 13h-140l46 219h242l-19 -89h-141l-10 -45h57q49 0 70 -26t11 -73l-12 -55q-18 -83 -102 -83z" />
    <glyph glyph-name="six.inferior" unicode="&#x2086;" horiz-adv-x="342" 
d="M255 -70q-8 -40 -34.5 -61t-65.5 -21h-92q-101 0 -80 102l40 190q17 82 100 82h91q101 0 81 -97l-4 -20h-103l3 17q3 14 -11 14h-37q-13 0 -16 -14l-12 -52h76q46 0 65 -23t10 -65zM101 -65h36q13 0 16 14l6 22q4 14 -12 14h-49l-8 -36q-3 -14 11 -14z" />
    <glyph glyph-name="seven.inferior" unicode="&#x2087;" horiz-adv-x="315" 
d="M81 -150h-113l182 278h-172l19 91h285l-17 -82z" />
    <glyph glyph-name="eight.inferior" unicode="&#x2088;" horiz-adv-x="344" 
d="M146 -152h-108q-44 0 -63 23.5t-9 68.5l11 53q9 41 55 52q-30 14 -20 63l8 38q16 76 91 76h95q43 0 62 -23.5t10 -67.5l-9 -42q-8 -37 -42 -47q36 -15 26 -64l-12 -58q-15 -72 -95 -72zM114 122l-6 -26q-3 -15 13 -15h30q15 0 18 14l7 26q4 16 -13 16h-31q-15 0 -18 -15z
M75 -19l-7 -33q-3 -16 12 -16h48q15 0 18 15l7 34q3 15 -13 15h-47q-15 0 -18 -15z" />
    <glyph glyph-name="nine.inferior" unicode="&#x2089;" horiz-adv-x="343" 
d="M140 -152h-91q-49 0 -70 24.5t-11 72.5l4 18h103l-3 -15q-3 -14 11 -14h37q13 0 16 14l12 54h-76q-46 0 -65 23t-10 65l11 50q18 82 100 82h92q101 0 80 -102l-40 -190q-17 -82 -100 -82zM116 88h49l8 35q3 14 -11 14h-36q-14 0 -17 -14l-5 -22q-3 -13 12 -13z" />
    <glyph glyph-name="parenleft.inferior" unicode="&#x208d;" horiz-adv-x="211" 
d="M-34 -87l56 263q8 39 35 60.5t67 21.5h54l-20 -90h-25q-6 0 -7 -7l-55 -253q-1 -7 6 -7h25l-19 -90h-34q-50 0 -71.5 26.5t-11.5 75.5z" />
    <glyph glyph-name="parenright.inferior" unicode="&#x208e;" horiz-adv-x="211" 
d="M144 156l-56 -263q-8 -39 -35 -60.5t-67 -21.5h-54l20 90h25q6 0 7 7l54 253q3 7 -5 7h-25l19 90h34q50 0 71.5 -26.5t11.5 -75.5z" />
    <glyph glyph-name="franc" unicode="&#x20a3;" horiz-adv-x="576" 
d="M421 238h-183l-51 -238h-152l52 238h-55l19 91h54l9 41h-54l20 90h53l50 237h452l-28 -130h-300l-22 -107h183l-19 -90h-183l-9 -41h183z" />
    <glyph glyph-name="lira" unicode="&#x20a4;" horiz-adv-x="603" 
d="M506 0h-524l28 130h63l20 92h-64l20 90h63l9 41h-64l20 91h64l25 120q14 67 56.5 102t109.5 35h140q84 0 119.5 -41.5t18.5 -120.5l-13 -62h-148l16 70q6 26 -21 26h-99q-25 0 -31 -26l-23 -103h111l-20 -91h-111l-8 -41h111l-20 -90h-111l-20 -92h310z" />
    <glyph glyph-name="peseta" unicode="&#x20a7;" horiz-adv-x="1461" 
d="M422 247h-202l-52 -247h-152l148 697h319q84 0 118.5 -44.5t16.5 -127.5l-30 -141q-14 -67 -56.5 -102t-109.5 -35zM450 566h-162l-40 -188h162q25 0 31 26l29 136q6 26 -20 26zM924 124l-26 -124h-137q-64 0 -90.5 33.5t-12.5 98.5l52 247h-70l25 124h72l29 137h143
l-29 -137h122l-26 -124h-122l-50 -229q-6 -26 21 -26h99zM986 164h139l-7 -33q-6 -26 21 -26h84q27 0 31 22l7 35q3 17 -15 21l-160 41q-30 8 -48.5 35t-9.5 72l14 68q23 112 155 112h106q80 0 114 -37.5t18 -109.5l-3 -14h-140l6 26q6 26 -20 26h-69q-27 0 -31 -20l-8 -38
q-3 -16 12 -19l152 -39q41 -10 60 -37.5t11 -64.5l-16 -76q-23 -112 -155 -112h-120q-159 0 -132 147z" />
    <glyph glyph-name="Euro" unicode="&#x20ac;" horiz-adv-x="602" 
d="M525 133q-14 -67 -56.5 -102t-109.5 -35h-149q-83 0 -118.5 44.5t-17.5 127.5l15 71h-65l19 90h65l9 41h-65l20 91h64l22 103q14 67 57 102t110 35h149q84 0 118 -44t17 -128l-11 -52h-150l14 68q6 26 -20 26h-104q-26 0 -32 -26l-18 -84h103l-20 -91h-102l-9 -41h102
l-19 -90h-102l-18 -87q-6 -26 21 -26h104q25 0 31 26l19 88h150z" />
    <glyph glyph-name="uni2113" unicode="&#x2113;" horiz-adv-x="495" 
d="M82 167l3 14l-33 -21l-41 104l106 67l52 244q13 59 52.5 90.5t101.5 31.5h66q79 0 111.5 -33.5t15.5 -108.5l-12 -54q-7 -31 -26.5 -57t-42.5 -41l-184 -117l-29 -136q-6 -26 20 -26h171l-25 -124h-174q-82 0 -115.5 43t-16.5 124zM309 557l-26 -121l65 41q18 14 22 34
l10 46q6 26 -21 26h-19q-25 0 -31 -26z" />
    <glyph glyph-name="trademark" unicode="&#x2122;" horiz-adv-x="928" 
d="M428 602h-106v-355h-109v355h-106v95h321v-95zM634 377l-49 103v-233h-105v450h105l95 -200l92 200h106v-450h-106v235l-49 -105h-89z" />
    <glyph glyph-name="Omega" unicode="&#x2126;" horiz-adv-x="638" 
d="M225 119l-26 -119h-208l23 109h64q-34 62 -13 168l61 287q14 67 56.5 102t109.5 35h193q83 0 118 -44.5t18 -127.5l-61 -282q-20 -86 -72 -138h59l-23 -109h-209l26 119q26 7 39 30.5t25 77.5l67 318q6 26 -21 26h-146q-25 0 -31 -26l-67 -318q-12 -51 -9 -76t27 -32z
" />
    <glyph glyph-name="estimated" unicode="&#x212e;" horiz-adv-x="752" 
d="M588 143h89q-45 -70 -121 -112t-165 -42q-141 0 -240 98.5t-99 239.5t99 240.5t240 99.5q142 0 241 -100t99 -248h-518v-195q78 -68 178 -68q118 0 197 87zM391 600q-100 0 -178 -70v-146h357v145q-77 71 -179 71z" />
    <glyph glyph-name="uni2153" unicode="&#x2153;" horiz-adv-x="803" 
d="M58 419h90l39 187h-90l19 91h195l-58 -278h85l-20 -91h-280zM194 -4h-108l575 705h109zM624 -2h-101q-47 0 -68.5 24.5t-10.5 69.5l5 20h103l-3 -12q-3 -14 11 -14h50q13 0 16 14l8 38q3 13 -10 13h-74l16 75h67q13 0 16 13l6 30q3 14 -10 14h-41q-13 0 -16 -14l-3 -11
h-102l6 29q8 41 35 63t66 22h92q48 0 69 -26t11 -73l-6 -28q-8 -40 -51 -52q44 -15 32 -70l-11 -54q-15 -71 -102 -71z" />
    <glyph glyph-name="uni2154" unicode="&#x2154;" horiz-adv-x="804" 
d="M201 596l-7 -26h-102l9 44q8 41 35.5 63.5t69.5 22.5h87q50 0 70.5 -26.5t9.5 -74.5l-11 -52q-12 -55 -77 -73l-106 -30q-11 -2 -14 -16l-2 -9h178l-18 -91h-283l23 114q11 57 87 78l94 26q13 3 16 18l7 32q5 14 -11 14h-40q-12 0 -15 -14zM195 -4h-108l575 705h109z
M625 -2h-101q-47 0 -68.5 24.5t-10.5 69.5l5 20h103l-3 -12q-3 -14 11 -14h50q13 0 16 14l8 38q3 13 -10 13h-74l16 75h67q13 0 16 13l6 30q3 14 -10 14h-41q-13 0 -16 -14l-3 -11h-102l6 29q8 41 35 63t66 22h92q48 0 69 -26t11 -73l-6 -28q-8 -40 -51 -52q44 -15 32 -70
l-11 -54q-15 -71 -102 -71z" />
    <glyph glyph-name="uni2155" unicode="&#x2155;" horiz-adv-x="810" 
d="M634 -2h-90q-98 0 -80 99l2 11h103l-2 -9q-3 -14 11 -14h40q13 0 16 14l9 38q3 13 -11 13h-140l46 219h242l-19 -89h-141l-10 -45h57q49 0 70 -26t11 -73l-12 -55q-18 -83 -102 -83zM59 419h90l39 187h-90l19 91h195l-58 -278h85l-20 -91h-280zM195 -4h-108l575 705h109z
" />
    <glyph glyph-name="uni2156" unicode="&#x2156;" horiz-adv-x="811" 
d="M202 596l-7 -26h-102l9 44q8 41 35.5 63.5t69.5 22.5h87q50 0 70.5 -26.5t9.5 -74.5l-11 -52q-12 -55 -77 -73l-106 -30q-11 -2 -14 -16l-2 -9h178l-18 -91h-283l23 114q11 57 87 78l94 26q13 3 16 18l7 32q5 14 -11 14h-40q-12 0 -15 -14zM635 -2h-90q-98 0 -80 99l2 11
h103l-2 -9q-3 -14 11 -14h40q13 0 16 14l9 38q3 13 -11 13h-140l46 219h242l-19 -89h-141l-10 -45h57q49 0 70 -26t11 -73l-12 -55q-18 -83 -102 -83zM196 -4h-108l575 705h109z" />
    <glyph glyph-name="uni2157" unicode="&#x2157;" horiz-adv-x="796" 
d="M631 -2h-90q-98 0 -80 99l2 11h103l-2 -9q-3 -14 11 -14h40q13 0 16 14l9 38q3 13 -11 13h-140l46 219h242l-19 -89h-141l-10 -45h57q49 0 70 -26t11 -73l-12 -55q-18 -83 -102 -83zM192 -4h-108l575 705h109zM245 326h-101q-47 0 -68.5 24.5t-10.5 69.5l5 20h103l-3 -12
q-3 -14 11 -14h50q13 0 16 14l8 38q3 13 -10 13h-74l16 75h67q13 0 16 13l6 30q3 14 -10 14h-41q-13 0 -16 -14l-3 -11h-102l6 29q8 41 35 63t66 22h92q48 0 69 -26t11 -73l-6 -28q-8 -40 -51 -52q44 -15 32 -70l-11 -54q-15 -71 -102 -71z" />
    <glyph glyph-name="uni2158" unicode="&#x2158;" horiz-adv-x="808" 
d="M356 393h-43l-14 -65h-101l14 65h-166l17 82l220 222h94l-47 -222h43zM229 475l18 81l-81 -81h63zM188 -4h-108l575 705h109zM627 -2h-90q-98 0 -80 99l2 11h103l-2 -9q-3 -14 11 -14h40q13 0 16 14l9 38q3 13 -11 13h-140l46 219h242l-19 -89h-141l-10 -45h57
q49 0 70 -26t11 -73l-12 -55q-18 -83 -102 -83z" />
    <glyph glyph-name="uni2159" unicode="&#x2159;" horiz-adv-x="794" 
d="M719 80q-8 -40 -34.5 -61t-65.5 -21h-92q-101 0 -80 102l40 190q17 82 100 82h91q101 0 81 -97l-4 -20h-103l3 17q3 14 -11 14h-37q-13 0 -16 -14l-12 -52h76q46 0 65 -23t10 -65zM565 85h36q13 0 16 14l6 22q3 14 -12 14h-49l-8 -36q-3 -14 11 -14zM58 419h90l39 187
h-90l19 91h195l-58 -278h85l-20 -91h-280zM191 -4h-108l575 705h109z" />
    <glyph glyph-name="uni215A" unicode="&#x215a;" horiz-adv-x="751" 
d="M678 80q-8 -40 -34.5 -61t-65.5 -21h-92q-101 0 -80 102l40 190q17 82 100 82h91q101 0 81 -97l-4 -20h-103l3 17q3 14 -11 14h-37q-13 0 -16 -14l-12 -52h76q46 0 65 -23t10 -65zM524 85h36q13 0 16 14l6 22q4 14 -12 14h-49l-8 -36q-3 -14 11 -14zM229 326h-90
q-98 0 -80 99l2 11h103l-2 -9q-3 -14 11 -14h40q13 0 16 14l9 38q3 13 -11 13h-140l46 219h242l-19 -89h-141l-10 -45h57q49 0 70 -26t11 -73l-12 -55q-18 -83 -102 -83zM153 -4h-108l575 705h109z" />
    <glyph glyph-name="uni215B" unicode="&#x215b;" horiz-adv-x="798" 
d="M626 -2h-108q-44 0 -63 23.5t-9 68.5l11 53q9 41 55 52q-30 14 -20 63l8 38q16 76 91 76h95q43 0 62 -23.5t10 -67.5l-9 -42q-8 -37 -42 -47q36 -15 26 -64l-12 -58q-15 -72 -95 -72zM594 272l-6 -26q-3 -15 13 -15h30q15 0 18 14l7 26q4 16 -13 16h-31q-15 0 -18 -15z
M555 131l-7 -33q-3 -16 12 -16h48q15 0 18 15l7 34q3 15 -13 15h-47q-15 0 -18 -15zM58 419h90l39 187h-90l19 91h195l-58 -278h85l-20 -91h-280zM191 -4h-108l575 705h109z" />
    <glyph glyph-name="uni215C" unicode="&#x215c;" horiz-adv-x="785" 
d="M625 -2h-108q-44 0 -63 23.5t-9 68.5l11 53q9 41 55 52q-30 14 -20 63l8 38q16 76 91 76h95q43 0 62 -23.5t10 -67.5l-9 -42q-8 -37 -42 -47q36 -15 26 -64l-12 -58q-15 -72 -95 -72zM593 272l-6 -26q-3 -15 13 -15h30q15 0 18 14l7 26q4 16 -13 16h-31q-15 0 -18 -15z
M554 131l-7 -33q-3 -16 12 -16h48q15 0 18 15l7 34q3 15 -13 15h-47q-15 0 -18 -15zM189 -4h-108l575 705h109zM245 326h-101q-47 0 -68.5 24.5t-10.5 69.5l5 20h103l-3 -12q-3 -14 11 -14h50q13 0 16 14l8 38q3 13 -10 13h-74l16 75h67q13 0 16 13l6 30q3 14 -10 14h-41
q-13 0 -16 -14l-3 -11h-102l6 29q8 41 35 63t66 22h92q48 0 69 -26t11 -73l-6 -28q-8 -40 -51 -52q44 -15 32 -70l-11 -54q-15 -71 -102 -71z" />
    <glyph glyph-name="uni215D" unicode="&#x215d;" horiz-adv-x="767" 
d="M238 326h-90q-98 0 -80 99l2 11h103l-2 -9q-3 -14 11 -14h40q13 0 16 14l9 38q3 13 -11 13h-140l46 219h242l-19 -89h-141l-10 -45h57q49 0 70 -26t11 -73l-12 -55q-18 -83 -102 -83zM607 -2h-108q-44 0 -63 23.5t-9 68.5l11 53q9 41 55 52q-30 14 -20 63l8 38
q16 76 91 76h95q43 0 62 -23.5t10 -67.5l-9 -42q-8 -37 -42 -47q36 -15 26 -64l-12 -58q-15 -72 -95 -72zM575 272l-6 -26q-3 -15 13 -15h30q15 0 18 14l7 26q4 16 -13 16h-31q-15 0 -18 -15zM536 131l-7 -33q-3 -16 12 -16h48q15 0 18 15l7 34q3 15 -13 15h-47
q-15 0 -18 -15zM171 -4h-108l575 705h109z" />
    <glyph glyph-name="uni215E" unicode="&#x215e;" horiz-adv-x="735" 
d="M195 328h-113l182 278h-172l19 91h285l-17 -82zM125 -4h-108l575 705h109zM560 -2h-108q-44 0 -63 23.5t-9 68.5l11 53q9 41 55 52q-30 14 -20 63l8 38q16 76 91 76h95q43 0 62 -23.5t10 -67.5l-9 -42q-8 -37 -42 -47q36 -15 26 -64l-12 -58q-15 -72 -95 -72zM528 272
l-6 -26q-3 -15 13 -15h30q15 0 18 14l7 26q4 16 -13 16h-31q-15 0 -18 -15zM489 131l-7 -33q-3 -16 12 -16h48q15 0 18 15l7 34q3 15 -13 15h-47q-15 0 -18 -15z" />
    <glyph glyph-name="uni215F" unicode="&#x215f;" horiz-adv-x="653" 
d="M55 419h90l39 187h-90l19 91h195l-58 -278h85l-20 -91h-280zM176 -4h-108l575 705h109z" />
    <glyph glyph-name="partialdiff" unicode="&#x2202;" horiz-adv-x="527" 
d="M299 -4h-135q-82 0 -115.5 43t-16.5 124l41 191q25 112 136 112h73q44 0 74 -22l23 -16l26 122q6 26 -21 26h-213l26 121h216q83 0 117 -39t18 -113l-89 -417q-28 -132 -160 -132zM193 117h94q25 0 31 26l33 153l-43 32q-19 14 -37 14h-31q-25 0 -31 -26l-37 -173
q-6 -26 21 -26z" />
    <glyph glyph-name="Delta" unicode="&#x2206;" horiz-adv-x="572" 
d="M-37 0l333 697h154l37 -697h-524zM332 498l-163 -372h169z" />
    <glyph glyph-name="product" unicode="&#x220f;" horiz-adv-x="659" 
d="M366 0l120 565h-198l-120 -565h-152l148 697h501l-148 -697h-151z" />
    <glyph glyph-name="summation" unicode="&#x2211;" horiz-adv-x="553" 
d="M565 565h-284l108 -215l-206 -218h303l-27 -132h-485l26 126l221 231l-115 213l28 127h460z" />
    <glyph glyph-name="minus" unicode="&#x2212;" horiz-adv-x="491" 
d="M71 404h367v-111h-367v111z" />
    <glyph glyph-name="uni2215" unicode="&#x2215;" horiz-adv-x="509" 
d="M31 -4h-108l575 705h109z" />
    <glyph glyph-name="uni2219" unicode="&#x2219;" horiz-adv-x="331" 
d="M25 174l52 246h229l-52 -246h-229z" />
    <glyph glyph-name="radical" unicode="&#x221a;" horiz-adv-x="594" 
d="M44 394v113h197l111 -382l153 572h121l-217 -770h-130l-148 467h-87z" />
    <glyph glyph-name="infinity" unicode="&#x221e;" horiz-adv-x="814" 
d="M549 515h93q67 0 102 -32.5t35 -94.5v-82q0 -61 -35 -93t-102 -32h-93q-42 0 -68.5 14.5t-53.5 47.5l-12 14l-10 -15q-43 -61 -129 -61h-86q-67 0 -102 32.5t-35 94.5v83q0 61 35 92.5t102 31.5h86q80 0 127 -61l12 -17l14 17q26 33 52.5 47t67.5 14zM180 382v-67
q0 -26 26 -26h71q32 0 49 23l26 36l-26 37q-17 23 -49 23h-71q-26 0 -26 -26zM652 316v66q0 26 -26 26h-75q-18 0 -27 -5t-19 -20l-25 -35l25 -34q10 -15 19 -20t27 -5h75q26 0 26 27z" />
    <glyph glyph-name="integral" unicode="&#x222b;" horiz-adv-x="362" 
d="M-63 -70l26 124h69q26 0 32 26l117 555q28 132 161 132h107l-27 -124h-70q-24 0 -31 -26l-118 -555q-28 -132 -159 -132h-107z" />
    <glyph glyph-name="approxequal" unicode="&#x2248;" horiz-adv-x="546" 
d="M387 464q12 0 23 12l34 37l65 -69l-45 -56q-15 -18 -28 -26t-34 -8h-42q-20 0 -56 17l-68 31q-24 12 -31 12h-29q-13 0 -22 -12l-34 -36l-65 69l44 55q27 33 62 33h43q17 0 54 -16l66 -31q22 -12 33 -12h30zM387 274q11 0 23 12l34 37l65 -69l-44 -55q-26 -34 -63 -34
h-42q-17 0 -56 17l-67 31q-27 12 -31 12h-30q-10 0 -22 -12l-34 -37l-65 69l45 56q25 33 61 33h43q18 0 54 -17l67 -31q27 -12 32 -12h30z" />
    <glyph glyph-name="notequal" unicode="&#x2260;" horiz-adv-x="491" 
d="M67 503h199l33 94h73l-33 -94h95v-110h-132l-32 -91h164v-110h-202l-31 -92h-73l31 92h-92v110h130l32 91h-162v110z" />
    <glyph glyph-name="lessequal" unicode="&#x2264;" horiz-adv-x="491" 
d="M423 209l-367 155v107l367 155v-127l-219 -81l219 -82v-127zM56 180h367v-110h-367v110z" />
    <glyph glyph-name="greaterequal" unicode="&#x2265;" horiz-adv-x="491" 
d="M441 364l-367 -155v127l219 82l-219 81v127l367 -155v-107zM74 180h367v-110h-367v110z" />
    <glyph glyph-name="lozenge" unicode="&#x25ca;" horiz-adv-x="558" 
d="M546 348l-279 -358h-108l-124 358l278 359h108zM339 546l-156 -206l59 -189l156 205z" />
    <glyph glyph-name="cent.denominator" unicode="&#xf629;" horiz-adv-x="314" 
d="M164 47h-3l-11 -49h-91l11 49h-2q-34 0 -53 26t-10 70l21 98q8 39 34 60t65 21h2l11 50h91l-11 -50h1q36 0 55.5 -24.5t10.5 -66.5l-4 -19h-98l3 16q2 12 -8 12h-40q-12 0 -14 -12l-19 -86q-2 -12 10 -12h40q11 0 13 12l3 15h98l-6 -29q-8 -39 -34 -60t-65 -21z" />
    <glyph glyph-name="dollar.denominator" unicode="&#xf62a;" horiz-adv-x="333" 
d="M160 -2h-3l-11 -56h-92l11 56q-41 0 -62 25.5t-11 70.5l4 19h104l-3 -14q-3 -14 11 -14h45q13 0 16 14l3 16q3 13 -8 16l-86 27q-27 9 -43 31t-8 57l10 45q19 81 99 81h9l12 56h92l-12 -56h1q39 0 59 -25.5t11 -70.5l-5 -23h-105l3 17q3 14 -10 14h-38q-12 0 -17 -14
l-3 -13q-3 -13 10 -16l84 -26q68 -21 52 -94l-9 -42q-8 -39 -37.5 -60t-72.5 -21z" />
    <glyph glyph-name="hyphen.denominator" unicode="&#xf62b;" horiz-adv-x="234" 
d="M17 195h157l-19 -87h-157z" />
    <glyph glyph-name="parenleft.denominator" unicode="&#xf62c;" horiz-adv-x="210" 
d="M-3 63l56 263q8 39 35 60.5t67 21.5h54l-20 -90h-25q-6 0 -7 -7l-55 -253q-1 -7 6 -7h25l-19 -90h-34q-50 0 -71.5 26.5t-11.5 75.5z" />
    <glyph glyph-name="parenright.denominator" unicode="&#xf62d;" horiz-adv-x="209" 
d="M175 306l-56 -263q-8 -39 -35 -60.5t-67 -21.5h-54l20 90h25q6 0 7 7l54 253q3 7 -5 7h-25l19 90h34q50 0 71.5 -26.5t11.5 -75.5z" />
    <glyph glyph-name="cent.numerator" unicode="&#xf62e;" horiz-adv-x="314" 
d="M234 375h-3l-11 -49h-91l11 49h-2q-34 0 -53 26t-10 70l21 98q8 39 34 60t65 21h2l11 50h91l-11 -50h1q36 0 55.5 -24.5t10.5 -66.5l-4 -19h-98l3 16q2 12 -8 12h-40q-12 0 -14 -12l-19 -86q-2 -12 10 -12h40q11 0 13 12l3 15h98l-6 -29q-8 -39 -34 -60t-65 -21z" />
    <glyph glyph-name="dollar.numerator" unicode="&#xf62f;" horiz-adv-x="332" 
d="M229 326h-3l-11 -56h-92l11 56q-41 0 -62 25.5t-11 70.5l4 19h104l-3 -14q-3 -14 11 -14h45q13 0 16 14l3 16q3 13 -8 16l-86 27q-27 9 -43 31t-8 57l10 45q19 81 99 81h9l12 56h92l-12 -56h1q39 0 59 -25.5t11 -70.5l-5 -23h-105l3 17q3 14 -10 14h-38q-12 0 -17 -14
l-3 -13q-3 -13 10 -16l84 -26q68 -21 52 -94l-9 -42q-8 -39 -37.5 -60t-72.5 -21z" />
    <glyph glyph-name="hyphen.numerator" unicode="&#xf630;" horiz-adv-x="234" 
d="M87 523h157l-19 -87h-157z" />
    <glyph glyph-name="parenleft.numerator" unicode="&#xf631;" horiz-adv-x="209" 
d="M66 391l56 263q8 39 35 60.5t67 21.5h54l-20 -90h-25q-6 0 -7 -7l-55 -253q-1 -7 6 -7h25l-19 -90h-34q-50 0 -71.5 26.5t-11.5 75.5z" />
    <glyph glyph-name="parenright.numerator" unicode="&#xf632;" horiz-adv-x="210" 
d="M245 634l-56 -263q-8 -39 -35 -60.5t-67 -21.5h-54l20 90h25q6 0 7 7l54 253q3 7 -5 7h-25l19 90h34q50 0 71.5 -26.5t11.5 -75.5z" />
    <glyph glyph-name="zero.denominator" unicode="&#xf655;" horiz-adv-x="354" 
d="M3 100l40 186q9 41 36.5 63.5t68.5 22.5h98q49 0 70 -26.5t10 -74.5l-40 -186q-18 -87 -105 -87h-98q-49 0 -70 26t-10 76zM147 268l-37 -167q-3 -14 12 -14h46q12 0 15 14l36 167q3 14 -10 14h-46q-13 0 -16 -14z" />
    <glyph glyph-name="one.denominator" unicode="&#xf656;" horiz-adv-x="325" 
d="M-12 91h90l39 187h-90l19 91h195l-58 -278h85l-20 -91h-280z" />
    <glyph glyph-name="two.denominator" unicode="&#xf657;" horiz-adv-x="346" 
d="M132 268l-7 -26h-102l9 44q8 41 35.5 63.5t69.5 22.5h87q50 0 70.5 -26.5t9.5 -74.5l-11 -52q-12 -55 -77 -73l-106 -30q-11 -2 -14 -16l-2 -9h178l-18 -91h-283l23 114q11 57 87 78l94 26q13 3 16 18l7 32q5 14 -11 14h-40q-12 0 -15 -14z" />
    <glyph glyph-name="three.denominator" unicode="&#xf658;" horiz-adv-x="344" 
d="M174 -2h-101q-47 0 -68.5 24.5t-10.5 69.5l5 20h103l-3 -12q-3 -14 11 -14h50q13 0 16 14l8 38q3 13 -10 13h-74l16 75h67q13 0 16 13l6 30q3 14 -10 14h-41q-13 0 -16 -14l-3 -11h-102l6 29q8 41 35 63t66 22h92q48 0 69 -26t11 -73l-6 -28q-8 -40 -51 -52
q44 -15 32 -70l-11 -54q-15 -71 -102 -71z" />
    <glyph glyph-name="four.denominator" unicode="&#xf659;" horiz-adv-x="351" 
d="M278 65h-43l-14 -65h-101l14 65h-166l17 82l220 222h94l-47 -222h43zM151 147l18 81l-81 -81h63z" />
    <glyph glyph-name="five.denominator" unicode="&#xf65a;" horiz-adv-x="329" 
d="M170 -2h-90q-98 0 -80 99l2 11h103l-2 -9q-3 -14 11 -14h40q13 0 16 14l9 38q3 13 -11 13h-140l46 219h242l-19 -89h-141l-10 -45h57q49 0 70 -26t11 -73l-12 -55q-18 -83 -102 -83z" />
    <glyph glyph-name="six.denominator" unicode="&#xf65b;" horiz-adv-x="341" 
d="M285 80q-8 -40 -34.5 -61t-65.5 -21h-92q-101 0 -80 102l40 190q17 82 100 82h91q101 0 81 -97l-4 -20h-103l3 17q3 14 -11 14h-37q-13 0 -16 -14l-12 -52h76q46 0 65 -23t10 -65zM131 85h36q13 0 16 14l6 22q4 14 -12 14h-49l-8 -36q-3 -14 11 -14z" />
    <glyph glyph-name="seven.denominator" unicode="&#xf65c;" horiz-adv-x="317" 
d="M114 0h-113l182 278h-172l19 91h285l-17 -82z" />
    <glyph glyph-name="eight.denominator" unicode="&#xf65d;" horiz-adv-x="343" 
d="M177 -2h-108q-44 0 -63 23.5t-9 68.5l11 53q9 41 55 52q-30 14 -20 63l8 38q16 76 91 76h95q43 0 62 -23.5t10 -67.5l-9 -42q-8 -37 -42 -47q36 -15 26 -64l-12 -58q-15 -72 -95 -72zM145 272l-6 -26q-3 -15 13 -15h30q15 0 18 14l7 26q4 16 -13 16h-31q-15 0 -18 -15z
M106 131l-7 -33q-3 -16 12 -16h48q15 0 18 15l7 34q3 15 -13 15h-47q-15 0 -18 -15z" />
    <glyph glyph-name="nine.denominator" unicode="&#xf65e;" horiz-adv-x="341" 
d="M171 -2h-91q-49 0 -70 24.5t-11 72.5l4 18h103l-3 -15q-3 -14 11 -14h37q13 0 16 14l12 54h-76q-46 0 -65 23t-10 65l11 50q18 82 100 82h92q101 0 80 -102l-40 -190q-17 -82 -100 -82zM147 238h49l8 35q4 14 -11 14h-36q-14 0 -17 -14l-5 -22q-3 -13 12 -13z" />
    <glyph glyph-name="comma.denominator" unicode="&#xf65f;" horiz-adv-x="193" 
d="M118 108l-8 -34l-100 -142h-61l63 176h106z" />
    <glyph glyph-name="period.denominator" unicode="&#xf660;" horiz-adv-x="181" 
d="M-25 0l23 108h105l-23 -108h-105z" />
    <glyph glyph-name="zero.numerator" unicode="&#xf661;" horiz-adv-x="353" 
d="M72 428l40 186q9 41 36.5 63.5t68.5 22.5h98q49 0 70 -26.5t10 -74.5l-40 -186q-18 -87 -105 -87h-98q-49 0 -70 26t-10 76zM216 596l-37 -167q-3 -14 12 -14h46q12 0 15 14l36 167q3 14 -10 14h-46q-13 0 -16 -14z" />
    <glyph glyph-name="one.numerator" unicode="&#xf662;" horiz-adv-x="325" 
d="M58 419h90l39 187h-90l19 91h195l-58 -278h85l-20 -91h-280z" />
    <glyph glyph-name="two.numerator" unicode="&#xf663;" horiz-adv-x="346" 
d="M202 596l-7 -26h-102l9 44q8 41 35.5 63.5t69.5 22.5h87q50 0 70.5 -26.5t9.5 -74.5l-11 -52q-12 -55 -77 -73l-106 -30q-11 -2 -14 -16l-2 -9h178l-18 -91h-283l23 114q11 57 87 78l94 26q13 3 16 18l7 32q5 14 -11 14h-40q-12 0 -15 -14z" />
    <glyph glyph-name="three.numerator" unicode="&#xf664;" horiz-adv-x="345" 
d="M244 326h-101q-47 0 -68.5 24.5t-10.5 69.5l5 20h103l-3 -12q-3 -14 11 -14h50q13 0 16 14l8 38q3 13 -10 13h-74l16 75h67q13 0 16 13l6 30q3 14 -10 14h-41q-13 0 -16 -14l-3 -11h-102l6 29q8 41 35 63t66 22h92q48 0 69 -26t11 -73l-6 -28q-8 -40 -51 -52
q44 -15 32 -70l-11 -54q-15 -71 -102 -71z" />
    <glyph glyph-name="four.numerator" unicode="&#xf665;" horiz-adv-x="350" 
d="M347 393h-43l-14 -65h-101l14 65h-166l17 82l220 222h94l-47 -222h43zM220 475l18 81l-81 -81h63z" />
    <glyph glyph-name="five.numerator" unicode="&#xf666;" horiz-adv-x="329" 
d="M240 326h-90q-98 0 -80 99l2 11h103l-2 -9q-3 -14 11 -14h40q13 0 16 14l9 38q3 13 -11 13h-140l46 219h242l-19 -89h-141l-10 -45h57q49 0 70 -26t11 -73l-12 -55q-18 -83 -102 -83z" />
    <glyph glyph-name="six.numerator" unicode="&#xf667;" horiz-adv-x="341" 
d="M355 408q-8 -40 -34.5 -61t-65.5 -21h-92q-101 0 -80 102l40 190q17 82 100 82h91q101 0 81 -97l-4 -20h-103l3 17q3 14 -11 14h-37q-13 0 -16 -14l-12 -52h76q46 0 65 -23t10 -65zM201 413h36q13 0 16 14l6 22q4 14 -12 14h-49l-8 -36q-3 -14 11 -14z" />
    <glyph glyph-name="seven.numerator" unicode="&#xf668;" horiz-adv-x="317" 
d="M184 328h-113l182 278h-172l19 91h285l-17 -82z" />
    <glyph glyph-name="eight.numerator" unicode="&#xf669;" horiz-adv-x="344" 
d="M247 326h-108q-44 0 -63 23.5t-9 68.5l11 53q9 41 55 52q-30 14 -20 63l8 38q16 76 91 76h95q43 0 62 -23.5t10 -67.5l-9 -42q-8 -37 -42 -47q36 -15 26 -64l-12 -58q-15 -72 -95 -72zM215 600l-6 -26q-3 -15 13 -15h30q15 0 18 14l7 26q4 16 -13 16h-31q-15 0 -18 -15z
M176 459l-7 -33q-3 -16 12 -16h48q15 0 18 15l7 34q3 15 -13 15h-47q-15 0 -18 -15z" />
    <glyph glyph-name="nine.numerator" unicode="&#xf66a;" horiz-adv-x="341" 
d="M241 326h-91q-49 0 -70 24.5t-11 72.5l4 18h103l-3 -15q-3 -14 11 -14h37q13 0 16 14l12 54h-76q-46 0 -65 23t-10 65l11 50q18 82 100 82h92q101 0 80 -102l-40 -190q-17 -82 -100 -82zM217 566h49l8 35q4 14 -11 14h-36q-14 0 -17 -14l-5 -22q-3 -13 12 -13z" />
    <glyph glyph-name="comma.numerator" unicode="&#xf66b;" horiz-adv-x="191" 
d="M187 436l-8 -34l-100 -142h-61l63 176h106z" />
    <glyph glyph-name="period.numerator" unicode="&#xf66c;" horiz-adv-x="181" 
d="M45 328l23 108h105l-23 -108h-105z" />
    <glyph glyph-name="commaaccent" unicode="&#xf6c3;" horiz-adv-x="274" 
d="M258 165l-11 -48l-128 -166h-84l78 214h145z" />
    <glyph glyph-name="uniF8FF" unicode="&#xf8ff;" horiz-adv-x="1420" 
d="M340 488h38q11 0 11 -11v-6q28 21 58 21q34 0 51 -26q29 26 64 26q26 0 41.5 -15t15.5 -39v-132q0 -11 -12 -11h-38q-13 0 -13 11v116q0 9 -2.5 12.5t-11.5 3.5q-18 0 -38 -15v-117q0 -11 -11 -11h-38q-12 0 -12 11v116q0 9 -3 12.5t-12 3.5q-20 0 -37 -15v-117
q0 -11 -10 -11h-41q-11 0 -11 11v171q0 11 11 11zM1007 488h36q12 0 12 -11l1 -7q27 22 60 22q57 0 57 -60v-80q0 -62 -57 -62q-32 0 -58 21v-83q0 -11 -11 -11h-40q-11 0 -11 11v249q0 11 11 11zM296 431v-43q0 -11 -12 -11h-93v-23q0 -18 23 -18q25 0 25 18v1q0 11 11 11
h32q12 0 12 -11v-3q0 -62 -80 -62q-85 0 -85 62v79q0 61 85 61q82 0 82 -61zM1370 431v-43q0 -11 -11 -11h-94v-23q0 -18 23 -18q24 0 24 18v1q0 11 12 11h32q11 0 11 -11v-3q0 -62 -79 -62q-84 0 -84 62v79q0 61 84 61q82 0 82 -61zM850 477l22 -70q7 -27 7 -37q2 2 10 35
l24 72q3 11 12 11h37q14 0 11 -11l-84 -249q-4 -11 -14 -11h-28q-14 0 -11 11l16 59l-65 190q-4 11 11 11h40q9 0 12 -11zM731 487h31q11 0 11 -10v-27q0 -11 -11 -11h-31v-77q0 -18 24 -18h10q12 0 12 -11v-27q0 -11 -12 -11h-19q-43 0 -60.5 14t-17.5 46v84h-17
q-11 0 -11 11v25q0 8 11 11l16 1h1v36q0 12 12 12h39q12 0 12 -12v-36zM472 147v-49q0 -4 -4 -4h-114v-48q0 -33 50 -33q48 0 48 33v8q0 4 6 4h9q5 0 5 -4v-9q0 -48 -69 -48t-69 48v102q0 48 70 48q68 0 68 -48zM154 188v-17q33 24 67 24q27 0 40.5 -12.5t13.5 -33.5v-144
q0 -5 -4 -5h-11q-4 0 -4 5v140q0 31 -39 31t-62 -23v-148q0 -5 -4 -5h-11q-5 0 -5 5v183q0 4 5 4h9q5 0 5 -4zM556 191h47q4 0 4 -4v-8q0 -5 -4 -5h-47v-124q0 -33 50 -33h6q5 0 5 -5v-7q0 -5 -5 -5h-9q-37 0 -51.5 12t-14.5 36v126h-25q-4 0 -4 5v7q0 4 4 5h25v41q0 5 4 5
h11q4 0 4 -5v-41zM354 146v-36h98v36q0 32 -48 32q-50 0 -50 -32zM1112 361v62q0 15 -17 15q-13 0 -37 -15v-63q26 -16 37 -16q17 0 17 17zM191 428v-11h48v11q0 18 -25 18q-23 0 -23 -18zM1265 428v-11h47v11q0 18 -24 18q-23 0 -23 -18zM70 35v-30q0 -5 -5 -5h-11
q-4 0 -4 5v30q0 5 4 5h11q5 0 5 -5z" />
    <glyph glyph-name="f_f" unicode="&#xfb00;" horiz-adv-x="728" 
d="M370 379h-123l-120 -569h-144l121 569h-71l26 124h70l13 62q28 132 161 132h137l-26 -124h-100q-25 0 -31 -26l-9 -44h121zM735 379h-123l-120 -569h-144l121 569h-71l26 124h70l13 62q28 132 161 132h137l-26 -124h-100q-25 0 -31 -26l-9 -44h121z" />
    <glyph glyph-name="f_f_i" unicode="&#xfb03;" horiz-adv-x="975" 
d="M717 0l107 507h144l-107 -507h-144zM835 566l28 131h148l-28 -131h-148zM370 379h-123l-120 -569h-144l121 569h-71l26 124h70l13 62q28 132 161 132h137l-26 -124h-100q-25 0 -31 -26l-9 -44h121zM735 379h-123l-120 -569h-144l121 569h-71l26 124h70l13 62
q28 132 161 132h137l-26 -124h-100q-25 0 -31 -26l-9 -44h121z" />
    <glyph glyph-name="f_f_l" unicode="&#xfb04;" horiz-adv-x="976" 
d="M865 697h144l-148 -697h-144zM370 379h-123l-120 -569h-144l121 569h-71l26 124h70l13 62q28 132 161 132h137l-26 -124h-100q-25 0 -31 -26l-9 -44h121zM735 379h-123l-120 -569h-144l121 569h-71l26 124h70l13 62q28 132 161 132h137l-26 -124h-100q-25 0 -31 -26
l-9 -44h121z" />
    <glyph glyph-name="longs_t" unicode="&#xfb05;" horiz-adv-x="680" 
d="M127 -190h-144l120 569h-70l26 124h70l13 62q28 132 161 132h137l-26 -124h-100q-25 0 -31 -26zM619 124l-27 -124h-127q-69 0 -97.5 36t-13.5 106l51 237h-71l26 124h71l29 137h144l-29 -137h121l-25 -124h-123l-49 -229q-3 -14 2 -20t19 -6h99z" />
    <glyph glyph-name="zero.tab" unicode="&#xff10;" horiz-adv-x="586" 
d="M53 168l84 396q14 67 57 102t110 35h153q84 0 118.5 -44.5t16.5 -127.5l-84 -396q-14 -67 -56.5 -102t-109.5 -35h-153q-83 0 -118.5 44.5t-17.5 127.5zM223 126h106q25 0 31 26l83 393q6 26 -20 26h-106q-26 0 -32 -26l-83 -393q-6 -26 21 -26z" />
    <glyph glyph-name="one.tab" unicode="&#xff11;" horiz-adv-x="586" 
d="M477 0h-467l28 132h161l93 433h-162l28 132h313l-120 -565h153z" />
    <glyph glyph-name="two.tab" unicode="&#xff12;" horiz-adv-x="586" 
d="M254 464h-148l21 100q14 67 56.5 102t109.5 35h139q84 0 119.5 -41.5t18.5 -120.5l-26 -121q-10 -46 -38 -73t-77 -43l-198 -65q-28 -9 -32 -33l-15 -72h310l-28 -132h-463l46 215q10 47 39 78t90 51l186 60q27 8 32 32l23 109q6 26 -21 26h-96q-25 0 -31 -26z" />
    <glyph glyph-name="three.tab" unicode="&#xff13;" horiz-adv-x="586" 
d="M336 -4h-158q-82 0 -116.5 41.5t-17.5 120.5l10 45h148l-12 -53q-6 -26 21 -26h111q25 0 31 26l26 119q6 26 -21 26h-135l27 125h121q25 0 31 26l22 100q6 26 -21 26h-94q-25 0 -31 -25l-11 -53h-148l14 70q13 66 55.5 101.5t107.5 35.5h141q84 0 119 -41.5t18 -120.5
l-16 -77q-16 -79 -86 -100q73 -26 53 -121l-23 -108q-14 -67 -56.5 -102t-109.5 -35z" />
    <glyph glyph-name="four.tab" unicode="&#xff14;" horiz-adv-x="586" 
d="M515 149h-71l-31 -149h-152l31 149h-298l27 126l402 422h138l-90 -422h71zM319 275l42 199l-189 -199h147z" />
    <glyph glyph-name="five.tab" unicode="&#xff15;" horiz-adv-x="586" 
d="M339 -4h-156q-82 0 -116.5 41.5t-17.5 120.5l9 41h148l-11 -51q-6 -26 21 -26h109q25 0 31 26l29 134q6 26 -21 26h-260l83 389h410l-28 -132h-262l-28 -130h118q84 0 119.5 -41.5t18.5 -120.5l-30 -140q-29 -137 -166 -137z" />
    <glyph glyph-name="six.tab" unicode="&#xff16;" horiz-adv-x="586" 
d="M511 133q-14 -67 -56.5 -102t-109.5 -35h-153q-83 0 -118 44.5t-18 127.5l84 396q14 67 57 102t110 35h153q83 0 117 -41.5t16 -120.5l-10 -46h-148l11 52q6 26 -20 26h-106q-26 0 -32 -26l-28 -131h139q85 0 119.5 -41.5t17.5 -120.5zM226 126h106q25 0 31 26l22 106
q6 26 -20 26h-132l-28 -132q-6 -26 21 -26z" />
    <glyph glyph-name="seven.tab" unicode="&#xff17;" horiz-adv-x="586" 
d="M246 0h-165l345 565h-318l28 132h483l-26 -118z" />
    <glyph glyph-name="eight.tab" unicode="&#xff18;" horiz-adv-x="586" 
d="M344 -4h-161q-85 0 -120.5 40t-18.5 117l24 113q19 88 102 103q-60 29 -42 113l17 82q13 66 56.5 101.5t110.5 35.5h133q170 0 138 -157l-17 -82q-17 -79 -85 -100q71 -26 53 -116l-24 -113q-14 -67 -56.5 -102t-109.5 -35zM381 420q25 0 31 25l22 103q6 26 -21 26h-90
q-25 0 -31 -26l-22 -102q-6 -26 21 -26h90zM214 122h118q25 0 31 26l26 122q6 26 -21 26h-118q-25 0 -31 -26l-26 -122q-6 -26 21 -26z" />
    <glyph glyph-name="nine.tab" unicode="&#xff19;" horiz-adv-x="586" 
d="M335 -4h-153q-82 0 -116 41.5t-17 120.5l10 46h148l-11 -52q-6 -26 20 -26h106q26 0 32 26l30 141h-139q-84 0 -119 41.5t-18 120.5l23 109q14 67 56.5 102t109.5 35h153q83 0 118.5 -44.5t17.5 -127.5l-84 -396q-14 -67 -57 -102t-110 -35zM279 423h132l26 122
q6 26 -21 26h-106q-25 0 -31 -26l-20 -96q-6 -26 20 -26z" />
    <glyph glyph-name="grave.case" horiz-adv-x="251" 
d="M107 851l6 26h140l40 -132h-93z" />
    <glyph glyph-name="dieresis.case" horiz-adv-x="322" 
d="M103 754l24 112h103l-24 -112h-103zM261 754l24 112h104l-24 -112h-104z" />
    <glyph glyph-name="macron.case" horiz-adv-x="312" 
d="M105 762l21 97h252l-21 -97h-252z" />
    <glyph glyph-name="acute.case" horiz-adv-x="251" 
d="M315 877l-6 -26l-107 -106h-99l66 132h146z" />
    <glyph glyph-name="circumflex.case" horiz-adv-x="352" 
d="M303 745l-39 53l-61 -53h-104l126 132h101l70 -132h-93z" />
    <glyph glyph-name="caron.case" horiz-adv-x="352" 
d="M199 745l-70 132h94l39 -53l61 53h103l-126 -132h-101z" />
    <glyph glyph-name="breve.case" horiz-adv-x="339" 
d="M329 890h94l-16 -76q-18 -83 -110 -83h-73q-55 0 -79 26.5t-13 76.5l12 56h92l-12 -58q-5 -21 18 -21h51q20 0 24 21z" />
    <glyph glyph-name="dotaccent.case" horiz-adv-x="214" 
d="M115 749l29 141h130l-30 -141h-129z" />
    <glyph glyph-name="ring.case" horiz-adv-x="293" 
d="M254 726h-48q-48 0 -69.5 23t-11.5 68l9 42q15 75 101 75h48q49 0 70 -22t12 -63l-10 -47q-17 -76 -101 -76zM217 796h41q18 0 22 18l7 32q5 18 -15 18h-41q-17 0 -21 -18l-7 -32q-5 -18 14 -18z" />
    <glyph glyph-name="tilde.case" horiz-adv-x="403" 
d="M370 831q15 0 18 15l7 31h79l-14 -65q-14 -67 -77 -67h-36q-19 0 -49 13l-55 25q-16 8 -28 8h-8q-16 0 -19 -15l-6 -31h-79l13 66q6 32 26.5 49.5t51.5 17.5h39q16 0 46 -13l54 -25q18 -9 29 -9h8z" />
    <glyph glyph-name="hungarumlaut.case" horiz-adv-x="400" 
d="M288 877l-6 -26l-104 -106h-75l63 132h122zM471 877l-6 -26l-144 -106h-80l103 132h127z" />
    <glyph glyph-name="caron.salt" horiz-adv-x="267" 
d="M291 697l-9 -46l-101 -117h-82l58 163h134z" />
    <glyph glyph-name="commaaccent.salt" horiz-adv-x="275" 
d="M255 165l-10 -48l-109 -115h-88l59 163h148z" />
    </font>
</defs>
</svg>
